<svg width="1506" height="1670" viewBox="0 0 1506 1670" fill="none" xmlns="http://www.w3.org/2000/svg">
<path d="M828.406 37.3391C840.344 32.9681 853.25 35.2311 865.655 34.7471C876.367 35.1271 887.545 33.1581 897.825 37.0791C910.282 41.4671 922.739 45.8731 935.316 49.9681C938.84 51.2811 942.78 52.3181 945.268 55.3761C962.165 76.6611 978.319 98.5511 993.505 121.098C989.479 128.026 985.488 134.954 981.446 141.848C993.523 146.478 1005.62 151.057 1017.69 155.687C1021.15 164.274 1024.64 172.843 1027.96 181.499C1022.03 177.525 1016.67 172.653 1010.28 169.422C1003.35 168.247 996.27 169.992 989.342 170.407C998.153 175.849 1007.07 181.136 1015.97 186.475C1024.45 191.226 1029.77 199.623 1035.89 206.896C1034.11 218.593 1031.51 230.203 1030.34 241.986C1030.48 254.374 1038.08 265.621 1037.08 278.164C1036.27 287.424 1035.06 296.65 1034.23 305.928C1033.21 318.972 1027.28 330.859 1023.55 343.229C1018.11 360.731 1010.13 377.282 1003.39 394.3C1000.74 394.542 998.118 394.801 995.492 395.06C984.141 433.277 972.185 471.355 959.452 509.14C955.737 518.4 953.405 528.317 947.859 536.749C938.236 551.797 929.597 567.468 919.456 582.188C902.87 602.523 886.785 623.359 868.333 642.07C860.524 649.948 852.922 658.38 842.988 663.614C829.374 671.009 815.725 678.403 801.471 684.519C790.846 689.011 779.218 689.477 767.85 689.305C751.921 680.891 737.823 669.592 723.258 659.088C707.415 648.186 695.131 633.19 681.258 620.042C676.127 614.721 670.028 610.021 666.763 603.214C660.647 591.034 653.356 579.406 648.087 566.811C645.755 558.328 643.198 549.914 640.658 541.5C641.332 523.618 632.883 506.946 633.056 489.099C632.987 477.005 632.33 464.894 632.624 452.8C635.406 422.945 639.984 393.263 643.854 363.53C646.031 384.642 647.724 405.807 649.728 426.954C663.74 437.873 677.751 448.827 691.763 459.746C694.078 453.025 696.376 446.287 698.708 439.584C710.076 432.5 720.252 423.05 733.297 419.128C741.538 416.45 749.468 411.578 758.435 412.355C773.898 412.821 789.378 411.284 804.824 412.407C813.877 414.86 823.224 416.882 831.776 420.873C855.791 435.109 879.702 449.518 903.7 463.806C901.748 480.098 899.847 496.39 897.895 512.7C902.715 509.245 907.518 505.806 912.339 502.351C917.297 504.649 922.291 506.947 927.266 509.262C939.377 492.037 952.594 475.624 964.532 458.278C968.817 451.747 974.708 446.029 976.902 438.34C981.411 423.637 986.093 408.986 990.706 394.335C993.539 386.388 991.293 377.939 991.656 369.75C991.898 363.928 994.472 358.52 995.025 352.732C995.474 347.532 995.232 342.331 995.25 337.131C993.073 336.82 990.913 336.509 988.771 336.198C986.56 356.568 976.712 375.175 965.153 391.726C959.4 396.84 952.99 401.401 946.304 405.219C928.751 406.463 910.99 404.148 894.3 398.585C881.239 396.08 869.663 387.735 862.476 376.66C857.69 370.112 857.137 361.698 854.684 354.2C851.902 345.838 852.887 336.958 852.732 328.319C852.525 319.922 854.114 311.664 855.341 303.406C849.536 301.488 843.886 299.035 837.96 297.601C831.412 296.461 824.76 296.271 818.161 295.631C815.414 304.65 812.529 313.651 810.887 322.963C809.781 331.55 803.441 337.942 799.035 345.008C791.053 354.787 781.119 363.754 768.731 367.244C760.697 367.71 752.646 368.211 744.612 367.918C728.251 364.808 711.647 360.575 697.48 351.522C689.705 343.54 683.589 333.917 680.67 323.101C677.957 305.755 681.707 288.391 685.145 271.425C681.068 272.012 677.007 272.6 672.947 273.222C667.522 281.308 659.626 288.063 657.035 297.738C652.197 313.132 646.859 328.37 642.142 343.799C641.295 338.357 641.244 332.5 638.255 327.697C636.044 324.777 631.862 325.52 628.753 325.572L628.096 324.933C626.956 322.756 626.282 320.458 626.075 318.022C625.056 300.175 622.602 282.241 625.643 264.429C628.114 249.968 625.574 233.918 633.746 220.977C642.246 205.808 650.401 190.431 658.677 175.141C662.478 167.729 669.095 162.529 674.952 156.845C685.733 146.479 696.531 136.13 707.26 125.712C705.809 125.677 702.923 125.608 701.489 125.557C706.897 116.469 709.143 104.548 718.818 98.7781C737.926 86.3041 756.655 73.2601 775.055 59.7661C779.823 56.1551 784.972 53.0281 790.656 51.0411C803.216 46.4441 815.742 41.7271 828.406 37.3391ZM832.933 109.298C817.263 111.596 801.679 114.602 786.302 118.351C774.122 122.463 762.995 129.063 751.558 134.799C742.038 140.172 731.862 144.595 723.172 151.316C711.406 162.252 700.764 174.554 692.73 188.513C687.322 199.968 684.817 212.459 681.828 224.691C677.336 236.318 666.901 244.404 661.458 255.496C659.281 264.411 659.644 273.758 658.555 282.863C664.412 272.929 669.232 261.077 680.099 255.634C686.232 253.803 693.074 254.96 698.879 251.937C702.525 250.348 705.859 247.635 710.005 247.514C718.125 246.892 726.228 245.614 734.4 245.579C745.958 246.356 757.413 248.24 768.85 250.088C782.775 252.161 794.817 259.97 807.291 265.948C814.945 269.593 818.677 277.524 820.94 285.246C834.088 286.611 846.769 290.239 859.26 294.437C862.076 290.446 864.27 285.349 868.987 283.224C873.565 281.773 878.438 281.289 883.223 280.909C899.429 281.341 915.531 283.57 931.391 286.852C951.709 290.774 970.23 301.762 984.967 316.05C988.163 319.177 992.915 319.194 996.957 320.438C996.646 299.412 997.544 278.351 996.853 257.325C992.948 241.085 988.094 225.034 983.532 208.967C978.833 199.171 971.352 191.016 965.426 181.946C957.859 171.77 952.382 159.624 941.929 151.936C929.731 142.71 918.156 132.465 904.421 125.502C894.504 120.613 884.898 114.859 874.342 111.421C860.749 108.71 846.737 108.537 832.933 109.298ZM709.229 253.595C701.541 255.115 693.697 260.022 691.399 267.918C688.099 278.578 685.663 289.583 684.678 300.727C684.194 314.704 685.317 329.839 693.576 341.656C698.12 348.48 706.275 351.141 713.635 353.784C730.86 359.537 749.381 363.718 767.557 360.436C775.332 358.933 783.331 356.099 788.635 349.932C800.245 336.992 805.636 320.146 811.423 304.113C813.686 297.202 817.038 289.255 813.393 282.24C807.605 273.342 797.809 268.004 787.789 265.239C762.805 256.083 735.922 249.708 709.229 253.595ZM874.605 290.845C868.178 294.37 861.388 299.864 860.559 307.656C858.002 317.798 857.501 328.319 857.726 338.72C860.266 353.164 862.805 368.592 872.342 380.323C878.51 386.318 886.319 390.983 894.785 392.883C910.075 396.736 925.676 400.83 941.606 399.811C947.307 398.999 953.579 397.029 956.862 391.898C962.771 383.415 969.612 375.502 974.467 366.363C978.095 356.809 980.963 346.909 982.605 336.837C982.657 329.356 981.517 320.597 975.09 315.776C966.02 308.623 956.69 300.71 945.011 298.482C930.792 295.286 916.366 293.161 902.043 290.517C892.97 289.549 883.503 288.495 874.605 290.845ZM763.807 445.059C750.884 445.18 739.101 451.071 727.128 455.235C736.941 454.216 746.686 451.417 756.62 452.384C763.289 452.989 770.044 452.937 776.679 453.922C780.618 456.358 784.091 459.485 787.788 462.267C795.373 462.267 802.94 461.472 810.542 461.645C818.351 462.785 826.126 464.271 833.831 465.999C841.848 468.729 849.588 472.201 857.535 475.139C849.743 467.831 841.623 460.903 833.762 453.698C827.024 452.99 820.286 452.333 813.565 451.659C805.859 450.968 798.776 447.599 791.468 445.336C782.605 441.638 773.016 445.007 763.807 445.059ZM736.009 459.952C738.549 467.174 746.738 469.627 753.735 468.452C755.186 466.983 756.655 465.532 758.141 464.098C758.953 466.154 759.782 468.227 760.612 470.3C768.093 469.903 775.557 471.354 783.038 470.542C784.645 471.803 786.269 473.064 787.91 474.343C790.692 474.257 793.49 474.17 796.289 474.049C796.755 474.896 797.688 476.554 798.155 477.401C803.614 478.87 809.074 480.286 814.534 481.789C815.467 481.081 817.35 479.664 818.283 478.938C820.944 481.305 823.743 483.534 826.576 485.693C828.667 484.985 830.74 484.259 832.848 483.533C834.61 484.881 836.373 486.211 838.169 487.559C842.091 487.473 845.978 488.043 849.365 490.168C851.231 488.077 853.08 485.952 854.876 483.793C850.954 481.305 846.721 479.353 842.419 477.642C833.798 474.29 825.66 469.349 816.365 468.053C807.83 466.135 799.036 466.774 790.449 465.6C784.005 464.753 780.377 458.136 773.949 457.393C766.053 456.045 758.037 456.927 750.089 456.46C745.217 456.255 739.723 456.324 736.009 459.952ZM725.677 463.2C728.718 473.411 736.579 480.926 743.109 488.977C750.538 495.283 757.985 501.693 766.001 507.239C777.162 510.038 788.392 512.802 799.709 514.91C812.839 515.186 825.97 515.014 839.101 514.962C847.29 507.412 855.67 500.069 863.928 492.588C853.545 494.177 843.316 497.356 832.726 497.132C824.744 497.097 816.745 498.151 808.797 497.374C795.805 494.385 782.761 491.586 769.82 488.355C754.668 480.788 742.09 468.245 725.677 463.2Z" fill="black" stroke="black" stroke-width="0.0938"/>
<path d="M832.933 109.298C846.737 108.538 860.749 108.711 874.346 111.423C884.902 114.861 894.508 120.614 904.425 125.504C918.16 132.467 929.736 142.712 941.933 151.938C952.386 159.626 957.862 171.772 965.43 181.948C971.356 191.018 978.837 199.173 983.536 208.969C988.097 225.037 992.952 241.087 996.857 257.327C997.548 278.353 996.65 299.414 996.961 320.44C992.918 319.196 988.167 319.179 984.971 316.052C970.234 301.764 951.713 290.776 931.395 286.854C915.535 283.571 899.432 281.343 883.227 280.911C878.441 281.291 873.569 281.775 868.991 283.226C864.274 285.351 862.08 290.448 859.264 294.439C846.773 290.241 834.091 286.612 820.944 285.248C818.681 277.525 814.949 269.595 807.295 265.95C794.821 259.972 782.779 252.163 768.854 250.09C757.417 248.241 745.962 246.358 734.404 245.581C726.232 245.616 718.129 246.894 710.009 247.516C705.863 247.637 702.528 250.349 698.883 251.939C693.078 254.962 686.236 253.805 680.103 255.636C669.236 261.078 664.415 272.93 658.559 282.865C659.647 273.76 659.285 264.413 661.462 255.498C666.904 244.406 677.34 236.321 681.832 224.693C684.821 212.461 687.326 199.97 692.734 188.515C700.768 174.555 711.41 162.254 723.176 151.318C731.866 144.597 742.043 140.174 751.562 134.801C762.999 129.065 774.126 122.465 786.306 118.353C801.679 114.602 817.262 111.595 832.933 109.298Z" fill="white" stroke="white" stroke-width="0.0938"/>
<path d="M709.229 253.595C735.922 249.708 762.805 256.083 787.788 265.24C797.809 268.004 807.605 273.343 813.392 282.241C817.037 289.255 813.686 297.203 811.422 304.114C805.634 320.147 800.244 336.992 788.634 349.933C783.33 356.101 775.331 358.934 767.556 360.437C749.381 363.72 730.86 359.539 713.634 353.785C706.274 351.142 698.119 348.481 693.575 341.657C685.317 329.84 684.194 314.705 684.677 300.728C685.662 289.584 688.098 278.579 691.398 267.919C693.697 260.022 701.541 255.116 709.229 253.595Z" fill="white" stroke="white" stroke-width="0.0938"/>
<path d="M672.948 273.222C677.008 272.6 681.068 272.013 685.146 271.425C681.708 288.391 677.959 305.754 680.671 323.101C683.591 333.916 689.707 343.54 697.481 351.522C711.648 360.575 728.251 364.808 744.613 367.918C752.647 368.212 760.698 367.711 768.732 367.244C781.12 363.754 791.054 354.787 799.036 345.008C803.442 337.942 809.782 331.549 810.888 322.963C812.529 313.651 815.415 304.649 818.162 295.631C824.762 296.27 831.413 296.46 837.961 297.601C843.887 299.035 849.537 301.488 855.342 303.406C854.115 311.664 852.526 319.923 852.733 328.319C852.889 336.957 851.904 345.838 854.685 354.2C857.138 361.698 857.691 370.112 862.477 376.66C869.664 387.735 881.24 396.079 894.301 398.585C910.991 404.148 928.751 406.463 946.305 405.219C952.991 401.401 959.401 396.84 965.154 391.726C976.712 375.175 986.56 356.567 988.772 336.198C990.914 336.509 993.074 336.82 995.251 337.131C995.234 342.331 995.476 347.532 995.026 352.732C994.473 358.52 991.899 363.927 991.657 369.75C991.294 377.939 993.54 386.388 990.707 394.335C986.094 408.986 981.412 423.637 976.903 438.34C974.709 446.028 968.817 451.747 964.533 458.278C952.595 475.624 939.378 492.037 927.267 509.262C922.291 506.947 917.298 504.649 912.34 502.351C907.52 505.806 902.717 509.244 897.896 512.7C899.848 496.39 901.749 480.098 903.701 463.806C879.703 449.518 855.792 435.109 831.777 420.873C823.225 416.882 813.878 414.861 804.825 412.407C789.379 411.284 773.899 412.822 758.436 412.355C749.469 411.578 741.539 416.45 733.298 419.128C720.254 423.05 710.078 432.5 698.709 439.584C696.377 446.287 694.079 453.026 691.764 459.746C677.752 448.827 663.741 437.873 649.729 426.954C647.725 405.807 646.032 384.643 643.855 363.53C639.985 393.264 635.407 422.946 632.625 452.8C625.127 449.846 616.799 447.479 611.115 441.484C605.569 432.794 604.273 422.186 599.418 413.132C595.237 404.373 588.499 395.717 590.002 385.42C591.609 371.737 595.565 358.485 599.159 345.234C601.18 338.911 602.632 332.121 606.657 326.713C613.326 322.273 621.515 327.11 628.754 325.573C631.864 325.521 636.045 324.778 638.256 327.698C641.245 332.501 641.297 338.358 642.143 343.8C646.86 328.372 652.198 313.133 657.036 297.739C659.627 288.063 667.523 281.308 672.948 273.222ZM610.837 338.806C608.297 341.691 605.447 344.335 603.321 347.548C600.954 362.493 599.624 377.731 601.714 392.814C603.666 382.137 606.465 371.632 608.798 361.024C610.042 353.491 616.348 348.395 620.356 342.278C617.177 341.121 613.998 339.963 610.837 338.806ZM784.401 394.99C791.899 397.201 799.363 399.586 806.861 401.832C803.457 398.394 800.037 394.973 796.616 391.552C792.522 392.675 788.462 393.833 784.401 394.99ZM828.544 407.067C835.213 409.762 842.21 411.455 849.466 410.712C846.512 408.587 843.523 406.496 840.517 404.44C836.526 405.357 832.535 406.203 828.544 407.067Z" fill="white" stroke="white" stroke-width="0.0938"/>
<path d="M874.605 290.845C883.503 288.495 892.97 289.549 902.041 290.517C916.364 293.16 930.79 295.285 945.009 298.482C956.688 300.711 966.018 308.624 975.088 315.776C981.515 320.596 982.655 329.356 982.603 336.837C980.962 346.91 978.094 356.809 974.465 366.363C969.61 375.503 962.769 383.415 956.86 391.898C953.577 397.029 947.306 398.999 941.604 399.811C925.675 400.83 910.073 396.736 894.783 392.883C886.317 390.983 878.508 386.318 872.34 380.323C862.803 368.592 860.263 353.164 857.724 338.72C857.499 328.319 858 317.798 860.557 307.656C861.388 299.863 868.178 294.369 874.605 290.845Z" fill="white" stroke="white" stroke-width="0.0938"/>
<path d="M610.837 338.806C613.999 339.964 617.178 341.121 620.357 342.279C616.349 348.395 610.043 353.492 608.799 361.025C606.467 371.633 603.668 382.138 601.715 392.815C599.624 377.732 600.955 362.494 603.322 347.549C605.446 344.334 608.297 341.691 610.837 338.806Z" fill="black" stroke="black" stroke-width="0.0938"/>
<path d="M784.401 394.99C788.461 393.832 792.521 392.675 796.616 391.552C800.037 394.973 803.458 398.394 806.861 401.832C799.363 399.586 791.9 397.202 784.401 394.99Z" fill="black" stroke="black" stroke-width="0.0938"/>
<path d="M995.492 395.059C1002.61 395.145 1009.71 395.353 1016.79 395.923C1018.85 402.385 1021.74 409.002 1020.27 415.93C1019.44 425.398 1014.64 433.708 1010.12 441.846C1003.16 454.199 1000.38 468.332 994.075 480.978C990.499 488.182 986.715 495.301 983.018 502.436C975.192 504.768 967.365 507.135 959.452 509.139C972.185 471.355 984.141 433.276 995.492 395.059ZM1004.72 409.676C1003.66 422.565 1002.4 435.453 1001.33 448.359C1005.89 440.913 1010.39 433.432 1014.88 425.951C1018.54 421.148 1015.22 415.032 1015.14 409.641C1011.65 409.624 1008.17 409.641 1004.72 409.676Z" fill="white" stroke="white" stroke-width="0.0938"/>
<path d="M828.544 407.067C832.535 406.203 836.526 405.357 840.517 404.441C843.523 406.497 846.512 408.587 849.466 410.713C842.21 411.455 835.213 409.762 828.544 407.067Z" fill="black" stroke="black" stroke-width="0.0938"/>
<path d="M1004.72 409.676C1008.17 409.641 1011.65 409.624 1015.14 409.641C1015.22 415.031 1018.54 421.148 1014.88 425.951C1010.39 433.432 1005.89 440.913 1001.33 448.359C1002.4 435.453 1003.66 422.564 1004.72 409.676Z" fill="black" stroke="black" stroke-width="0.0938"/>
<path d="M763.807 445.059C773.016 445.007 782.604 441.638 791.467 445.335C798.775 447.598 805.859 450.967 813.564 451.658C820.285 452.332 827.023 452.988 833.761 453.697C841.622 460.902 849.742 467.83 857.534 475.138C849.587 472.201 841.846 468.728 833.83 465.998C826.124 464.27 818.35 462.784 810.541 461.644C802.939 461.471 795.372 462.266 787.787 462.266C784.09 459.484 780.617 456.357 776.678 453.921C770.044 452.936 763.288 452.988 756.619 452.383C746.685 451.415 736.94 454.214 727.127 455.234C739.101 451.072 750.884 445.18 763.807 445.059Z" fill="white" stroke="white" stroke-width="0.0938"/>
<path d="M736.009 459.952C739.724 456.324 745.218 456.255 750.09 456.462C758.037 456.928 766.054 456.047 773.95 457.395C780.377 458.138 784.005 464.755 790.45 465.602C799.037 466.777 807.831 466.138 816.366 468.055C825.661 469.351 833.798 474.292 842.42 477.644C846.722 479.354 850.955 481.307 854.877 483.795C853.08 485.955 851.232 488.08 849.366 490.17C845.98 488.045 842.092 487.475 838.17 487.561C836.373 486.213 834.611 484.883 832.849 483.535C830.741 484.261 828.668 484.986 826.577 485.695C823.744 483.535 820.945 481.307 818.284 478.94C817.351 479.666 815.468 481.082 814.535 481.791C809.075 480.288 803.616 478.871 798.156 477.403C797.689 476.556 796.757 474.898 796.29 474.051C793.491 474.172 790.692 474.258 787.911 474.345C786.27 473.066 784.646 471.805 783.039 470.544C775.558 471.356 768.094 469.905 760.613 470.302C759.784 468.229 758.954 466.156 758.142 464.1C756.656 465.534 755.188 466.985 753.736 468.454C746.738 469.627 738.548 467.174 736.009 459.952Z" fill="white" stroke="white" stroke-width="0.0938"/>
<path d="M725.677 463.2C742.09 468.245 754.668 480.788 769.82 488.355C782.76 491.586 795.805 494.385 808.797 497.374C816.744 498.151 824.744 497.098 832.726 497.132C843.317 497.357 853.545 494.178 863.928 492.588C855.67 500.069 847.29 507.412 839.101 514.962C825.97 515.014 812.84 515.187 799.709 514.91C788.392 512.802 777.162 510.038 766.001 507.239C757.985 501.693 750.538 495.283 743.109 488.977C736.579 480.926 728.718 473.411 725.677 463.2Z" fill="white" stroke="white" stroke-width="0.0938"/>
<path d="M638.532 535.159C639.258 537.249 639.966 539.375 640.657 541.5C643.197 549.914 645.754 558.328 648.086 566.811C653.355 579.406 660.646 591.033 666.762 603.214C670.027 610.021 676.126 614.721 681.257 620.042C695.13 633.19 707.414 648.186 723.257 659.088C737.822 669.592 751.92 680.892 767.849 689.305C779.217 689.478 790.845 689.011 801.47 684.519C815.724 678.403 829.372 671.008 842.987 663.614C852.921 658.379 860.523 649.948 868.332 642.07C886.784 623.359 902.869 602.523 919.455 582.188L921.442 580.115C920.319 591.328 917.883 602.402 914.358 613.097C908.657 628.612 901.919 643.729 895.353 658.881C888.874 673.273 883.173 688.217 873.549 700.899C860.816 718.366 847.806 735.937 831.808 750.588C827.16 755.633 819.921 754.683 813.754 754.855C788.305 754.337 762.89 752.298 737.666 749.033C725.849 747.634 713.703 746.096 703.129 740.274C692.625 734.642 680.496 729.234 675.088 717.866C660.143 689.48 646.322 660.489 633.485 631.101C631.049 624.899 627.645 618.679 628.112 611.82C628.889 598.569 631.153 585.473 632.76 572.307C634.644 559.917 636.389 547.512 638.532 535.159Z" fill="white" stroke="white" stroke-width="0.0938"/>
<path d="M608.504 574.205C616.78 570.974 625.315 568.452 633.625 565.307C633.418 567.052 632.968 570.559 632.761 572.304C631.154 585.469 628.891 598.565 628.113 611.817C627.647 618.676 631.05 624.896 633.486 631.098C646.323 660.486 660.144 689.477 675.089 717.863C680.497 729.231 692.625 734.639 703.13 740.271C713.704 746.093 725.849 747.631 737.667 749.03C762.891 752.295 788.306 754.334 813.755 754.852C819.923 754.679 827.162 755.629 831.809 750.585C847.808 735.934 860.817 718.363 873.55 700.896C883.173 688.215 888.875 673.27 895.354 658.878C901.919 643.726 908.657 628.609 914.359 613.094C916.139 611.764 917.987 610.52 919.853 609.276C935.351 638.077 951.263 666.653 966.812 695.419C969.974 701.656 976.919 704.161 982.569 707.582C1016.9 727.295 1051.16 747.146 1085.47 766.911C1111.35 781.406 1135.9 798.13 1161.07 813.801C1194.26 834.827 1227.42 855.94 1260.64 876.914C1265.62 879.747 1267.47 885.432 1269.71 890.338C1284.33 923.994 1300.62 956.941 1314.01 991.132C1327.88 1025.58 1342.07 1059.93 1355.77 1094.45C1362.96 1117.36 1369.13 1140.58 1375.92 1163.61C1395.58 1233.53 1417.6 1302.76 1438.65 1372.26C1442.88 1385.45 1446.3 1398.89 1451.14 1411.88C1458.64 1430.26 1466.27 1448.59 1473.81 1466.99C1448.89 1479.47 1424 1491.94 1399.05 1504.36C1393.48 1494.6 1387.75 1484.93 1381.43 1475.65C1372.43 1480.68 1363.06 1484.98 1353.57 1489L1353.4 1490.63C1352.85 1490.52 1351.74 1490.32 1351.19 1490.21C1348.31 1491.63 1345.42 1493.05 1342.5 1494.39C1323.12 1503.72 1302.8 1510.93 1283.15 1519.64C1255.39 1533.72 1227.66 1547.9 1199.95 1562.09C1199.01 1567.7 1197.05 1573.33 1198.01 1579.1C1190.89 1579.33 1183.78 1579.31 1176.66 1579.29C1170.08 1571.09 1160.88 1564.68 1156.5 1554.93C1141.83 1510.43 1127.77 1465.73 1112.87 1421.31C1111.02 1435.84 1109.73 1450.44 1108.05 1464.99C1107.07 1472.38 1110.97 1479.07 1113.44 1485.76C1130.03 1528.36 1146.44 1571.04 1162.99 1613.66C1165.57 1620.45 1169.39 1627.1 1169.16 1634.58H500.177C505.377 1634.25 510.595 1633.87 515.813 1633.63C517.178 1599.39 519.337 1565.16 519.769 1530.88C520.443 1498.04 521.03 1465.2 521.773 1432.35C522.326 1413.28 521.911 1394.05 518.058 1375.29C517.574 1370.17 512.305 1368.36 508.504 1366.15C511.493 1363.33 514.395 1360.46 517.263 1357.53C523.656 1361.98 531.119 1365.78 539.153 1364.99C543.524 1360.1 549.657 1357.3 554.253 1352.79C553.095 1337.38 540.414 1326.84 530.894 1316.03C523.62 1305.71 523.119 1292.63 520.925 1280.63C519.94 1273.39 514.239 1268.19 510.611 1262.21C512.373 1255.92 514.084 1249.61 515.794 1243.32C521.305 1239.47 526.661 1235.39 532.518 1232.11C538.496 1224.39 549.018 1217.32 546.841 1206.27C546.444 1196.04 536.458 1189.13 526.955 1188.5C517.366 1187.38 507.726 1189.61 498.189 1189.14C488.427 1181.96 479.633 1173.58 470.045 1166.17C464.827 1162.74 458.798 1160.67 452.837 1158.98C442.194 1158.05 432.001 1161.85 421.825 1164.27C409.195 1167.12 396.86 1171.71 383.833 1172.45C374.555 1173.28 365.277 1174.15 356.017 1175.03C351.318 1181.7 345.91 1187.88 341.677 1194.86C339.189 1201.58 337.997 1208.7 336.148 1215.63C331.207 1218.22 326.283 1220.83 321.342 1223.42C314.189 1239.2 319.666 1256.94 316.28 1273.42C312.462 1290.21 307.382 1306.89 306.415 1324.16C288.101 1333.29 270.168 1343.38 250.818 1350.24C246.309 1351.84 241.575 1353.16 236.755 1352.9C219.91 1351.84 203.186 1354.8 186.531 1356.85C171.414 1359.29 156.072 1361.05 141.524 1366.08C127.15 1370.95 112.602 1375.65 99.109 1382.7C88.743 1387.73 83.508 1398.59 76.614 1407.23C71.051 1414.19 66.472 1422.35 58.974 1427.46C54.603 1424.82 51.925 1418.5 46.085 1419.36C40.384 1418.55 35.909 1414.61 31.192 1411.65C33.922 1401.58 35.183 1391.08 39.001 1381.33C43.027 1372.95 48.279 1365.23 52.823 1357.13C56.814 1349.87 62.757 1343.01 62.705 1334.29C63.517 1316.63 64.467 1298.97 65.279 1281.32C65.504 1273.92 67.577 1266.8 69.927 1259.88C78.116 1232.89 87.325 1206.18 93.925 1178.73C112.308 1107.73 130.414 1036.66 148.313 965.527C153.323 942.6 157.988 919.605 162.774 896.644C163.724 891.876 165.4 887.28 167.56 882.943C178.479 860.984 189.156 838.904 199.903 816.858C201.855 811.917 206.779 809.533 211.168 807.2C233.283 795.521 254.913 782.943 277.097 771.454C303.22 759.585 329.204 747.335 355.5 735.863C418.371 713.904 481.398 692.359 544.303 670.521C547.396 663.437 550.315 656.216 554.686 649.789C570.253 626.724 585.888 603.711 601.282 580.56C603.096 577.85 605.291 575.241 608.504 574.205ZM752.404 877.071C739.118 882.358 747.307 905.163 760.507 903.263C765.414 903.228 770.925 898.926 770.009 893.571C769.698 890.582 769.059 887.628 768.143 884.794C766.053 878.678 758.538 874.773 752.404 877.071ZM730.342 1070.8C725.072 1078.14 730.584 1087.11 735.992 1092.6C740.346 1092.88 745.339 1094.49 749.053 1091.27C755.048 1087.77 752.318 1079.92 750.798 1074.69C748.137 1066.48 735.559 1063.18 730.342 1070.8ZM440.744 1110.81C435.924 1112.06 430.291 1112.59 426.784 1116.48C425.229 1131.51 420.754 1146.06 419.994 1161.19C431.31 1158.88 442.61 1155.39 454.237 1155.3C464.845 1158.74 473.052 1167.02 482.122 1173.23C486.493 1152.88 488.445 1131.44 483.539 1111C469.839 1105.75 454.739 1108.1 440.744 1110.81ZM712.702 1289.04C712.236 1295.4 716.451 1300.62 720.408 1305.09C726.42 1306.46 734.748 1306.27 737.011 1299.23C737.512 1292.01 735.612 1282.7 727.941 1279.9C721.427 1276.6 712.823 1281.75 712.702 1289.04ZM695.632 1512.02C694.25 1518.9 698.776 1524.91 703.148 1529.69C709.16 1531.04 717.471 1530.87 719.751 1523.84C720.183 1516.74 718.455 1507.67 711.078 1504.66C705.048 1501.39 696.893 1505.32 695.632 1512.02Z" fill="black" stroke="black" stroke-width="0.0938"/>
<path d="M752.404 877.071C758.537 874.773 766.053 878.678 768.143 884.794C769.059 887.627 769.698 890.582 770.009 893.571C770.925 898.927 765.413 903.229 760.507 903.263C747.308 905.163 739.118 882.358 752.404 877.071Z" fill="white" stroke="white" stroke-width="0.0938"/>
<path d="M730.342 1070.8C735.56 1063.18 748.137 1066.48 750.798 1074.69C752.318 1079.92 755.048 1087.76 749.053 1091.27C745.338 1094.49 740.345 1092.88 735.992 1092.6C730.584 1087.11 725.072 1078.14 730.342 1070.8Z" fill="white" stroke="white" stroke-width="0.0938"/>
<path d="M440.744 1110.81C454.738 1108.1 469.839 1105.75 483.539 1111C488.446 1131.44 486.493 1152.88 482.122 1173.23C473.052 1167.01 464.845 1158.74 454.237 1155.3C442.61 1155.39 431.31 1158.88 419.994 1161.19C420.754 1146.06 425.229 1131.51 426.784 1116.48C430.292 1112.59 435.924 1112.06 440.744 1110.81Z" fill="#646464" stroke="#646464" stroke-width="0.0938"/>
<path d="M421.826 1164.27C432.002 1161.85 442.196 1158.05 452.838 1158.98C458.799 1160.67 464.828 1162.75 470.046 1166.17C479.635 1173.58 488.429 1181.96 498.19 1189.15C507.727 1189.61 517.367 1187.38 526.956 1188.51C536.458 1189.13 546.444 1196.04 546.842 1206.27C549.019 1217.32 538.497 1224.39 532.519 1232.11C526.662 1235.4 521.306 1239.47 515.795 1243.33C514.085 1249.62 512.374 1255.92 510.612 1262.21C514.24 1268.19 519.942 1273.39 520.926 1280.63C523.12 1292.64 523.621 1305.71 530.895 1316.03C540.415 1326.84 553.096 1337.38 554.254 1352.79C549.658 1357.3 543.525 1360.1 539.154 1364.99C531.12 1365.79 523.657 1361.99 517.264 1357.53C514.396 1360.47 511.493 1363.33 508.505 1366.15C499.746 1365.13 490.9 1366.01 482.123 1365.48C474.348 1364.94 466.746 1363.11 459.058 1362C450.972 1361.23 443.301 1364.58 435.371 1365.53C427.804 1365.1 420.305 1363.99 412.773 1363.18C412.013 1363.18 410.51 1363.18 409.767 1363.18C402.372 1364.01 394.961 1364.75 387.601 1365.77C384.819 1366.13 382.055 1366.53 379.273 1366.91C378.046 1368.76 376.82 1370.61 375.576 1372.47C371.948 1378.07 367.784 1383.39 364.778 1389.37C365.193 1413.76 369.927 1438.19 367.49 1462.66C357.4 1485.65 347.017 1508.93 331.416 1528.81C325.006 1536.9 317.301 1544.36 307.522 1548.15C293.528 1553.83 280.259 1561.05 266.886 1568.05C251.769 1575.25 236.755 1584.82 219.426 1584.77C199.609 1584.95 180.069 1581.14 160.511 1578.59C152.46 1577.48 144.374 1578.95 136.323 1578.73C128.79 1578.57 122.225 1574.3 116.143 1570.33C102.961 1561.34 90.348 1551.39 79.239 1539.9C74.263 1534.95 71.378 1528.41 69.305 1521.81C62.083 1499.32 55.242 1476.64 50.732 1453.43C48.503 1442.19 44.927 1430.94 46.084 1419.36C51.924 1418.5 54.602 1424.82 58.973 1427.47C66.471 1422.35 71.05 1414.2 76.613 1407.23C83.507 1398.6 88.741 1387.73 99.108 1382.7C112.601 1375.65 127.149 1370.95 141.523 1366.08C156.07 1361.05 171.412 1359.29 186.53 1356.86C203.185 1354.8 219.909 1351.85 236.754 1352.9C241.574 1353.16 246.308 1351.85 250.817 1350.24C270.167 1343.38 288.101 1333.29 306.414 1324.17C307.382 1306.89 312.461 1290.22 316.279 1273.42C319.665 1256.94 314.188 1239.2 321.341 1223.42C326.282 1220.83 331.206 1218.22 336.147 1215.63C337.996 1208.7 339.188 1201.59 341.676 1194.87C345.909 1187.89 351.317 1181.7 356.016 1175.03C365.276 1174.15 374.554 1173.29 383.832 1172.46C396.861 1171.71 409.197 1167.12 421.826 1164.27Z" fill="white" stroke="white" stroke-width="0.0938"/>
<path d="M712.702 1289.04C712.823 1281.75 721.427 1276.6 727.94 1279.9C735.611 1282.7 737.511 1292.01 737.01 1299.23C734.747 1306.27 726.419 1306.46 720.407 1305.09C716.451 1300.62 712.235 1295.4 712.702 1289.04Z" fill="white" stroke="white" stroke-width="0.0938"/>
<path d="M435.371 1365.53C443.301 1364.58 450.972 1361.23 459.058 1362C451.525 1364.84 443.44 1366.62 435.371 1365.53Z" fill="black" stroke="black" stroke-width="0.0938"/>
<path d="M459.058 1362C466.746 1363.11 474.348 1364.94 482.123 1365.47C490.9 1366.01 499.746 1365.13 508.505 1366.15C512.306 1368.36 517.575 1370.17 518.059 1375.29C521.912 1394.05 522.326 1413.28 521.774 1432.35C521.031 1465.2 520.444 1498.04 519.77 1530.89C519.338 1565.16 517.178 1599.39 515.814 1633.63C510.596 1633.87 505.379 1634.25 500.178 1634.58H362.462C363.101 1577.26 366.919 1519.98 367.49 1462.66C369.926 1438.19 365.192 1413.76 364.778 1389.37C367.784 1383.39 371.948 1378.07 375.576 1372.47C379.532 1370.16 383.523 1367.88 387.601 1365.77C394.961 1364.75 402.373 1364.01 409.767 1363.18C410.769 1365.84 411.754 1365.84 412.773 1363.18C420.306 1363.99 427.804 1365.09 435.371 1365.53C443.44 1366.61 451.525 1364.84 459.058 1362Z" fill="#646464" stroke="#646464" stroke-width="0.0938"/>
<path d="M409.767 1363.18C410.51 1363.18 412.013 1363.18 412.773 1363.18C411.754 1365.84 410.769 1365.84 409.767 1363.18Z" fill="#2F2F2F" stroke="#2F2F2F" stroke-width="0.0938"/>
<path d="M379.273 1366.91C382.055 1366.53 384.819 1366.13 387.601 1365.77C383.524 1367.88 379.533 1370.16 375.576 1372.47C376.819 1370.61 378.046 1368.76 379.273 1366.91Z" fill="black" stroke="black" stroke-width="0.0938"/>
<path d="M1353.58 1489.01C1363.06 1484.98 1372.42 1480.68 1381.43 1475.65C1387.75 1484.93 1393.49 1494.6 1399.05 1504.36C1404.54 1514.3 1411 1523.71 1415.5 1534.18C1429.65 1566.54 1444.06 1598.78 1458.26 1631.11C1377.38 1631.52 1296.49 1631.58 1215.6 1632.09C1209.62 1614.47 1204.56 1596.52 1198.01 1579.1C1197.05 1573.33 1199.02 1567.7 1199.95 1562.09C1227.66 1547.9 1255.39 1533.72 1283.16 1519.64C1302.8 1510.93 1323.12 1503.72 1342.5 1494.39C1345.42 1493.05 1348.31 1491.63 1351.19 1490.21C1351.75 1490.32 1352.85 1490.52 1353.4 1490.63L1353.58 1489.01Z" fill="white" stroke="white" stroke-width="0.0938"/>
<path d="M695.632 1512.02C696.893 1505.32 705.048 1501.39 711.078 1504.66C718.455 1507.67 720.183 1516.74 719.751 1523.84C717.47 1530.87 709.16 1531.04 703.148 1529.69C698.777 1524.91 694.25 1518.9 695.632 1512.02Z" fill="white" stroke="white" stroke-width="0.0938"/>
</svg>
