<?xml version="1.0" encoding="utf-8"?>

<!DOCTYPE svg PUBLIC "-//W3C//DTD SVG 1.1//EN" "http://www.w3.org/Graphics/SVG/1.1/DTD/svg11.dtd">
<svg version="1.1" id="Layer_1" xmlns="http://www.w3.org/2000/svg" xmlns:xlink="http://www.w3.org/1999/xlink" x="0px" y="0px"
	 viewBox="0 0 1505.005 1669.163" enable-background="new 0 0 1505.005 1669.163" xml:space="preserve">
<g>
	<path stroke="#000000" stroke-width="0.0938" d="M828.406,37.339c11.938-4.371,24.844-2.108,37.249-2.592
		c10.712,0.38,21.89-1.589,32.17,2.332c12.457,4.388,24.914,8.794,37.491,12.889c3.524,1.313,7.464,2.35,9.952,5.408
		c16.897,21.285,33.051,43.175,48.237,65.722c-4.026,6.928-8.017,13.856-12.059,20.75c12.077,4.63,24.17,9.209,36.247,13.839
		c3.455,8.587,6.945,17.156,10.263,25.812c-5.926-3.974-11.282-8.846-17.674-12.077c-6.928-1.175-14.012,0.57-20.94,0.985
		c8.811,5.442,17.726,10.729,26.624,16.068c8.483,4.751,13.804,13.148,19.92,20.421c-1.78,11.697-4.371,23.307-5.546,35.09
		c0.138,12.388,7.74,23.635,6.738,36.178c-0.812,9.26-2.021,18.486-2.851,27.764c-1.019,13.044-6.945,24.931-10.677,37.301
		c-5.442,17.502-13.424,34.053-20.162,51.071c-2.643,0.242-5.27,0.501-7.896,0.76c-11.351,38.217-23.307,76.295-36.04,114.08
		c-3.715,9.26-6.047,19.177-11.593,27.609c-9.623,15.048-18.262,30.719-28.403,45.439c-16.586,20.335-32.671,41.171-51.123,59.882
		c-7.809,7.878-15.411,16.31-25.345,21.544c-13.614,7.395-27.263,14.789-41.517,20.905c-10.625,4.492-22.253,4.958-33.621,4.786
		c-15.929-8.414-30.027-19.713-44.592-30.217c-15.843-10.902-28.127-25.898-42-39.046c-5.131-5.321-11.23-10.021-14.495-16.828
		c-6.116-12.18-13.407-23.808-18.676-36.403c-2.332-8.483-4.889-16.897-7.429-25.311c0.674-17.882-7.775-34.554-7.602-52.401
		c-0.069-12.094-0.726-24.205-0.432-36.299c2.782-29.855,7.36-59.537,11.23-89.27c2.177,21.112,3.87,42.277,5.874,63.424
		c14.012,10.919,28.023,21.873,42.035,32.792c2.315-6.721,4.613-13.459,6.945-20.162c11.368-7.084,21.544-16.534,34.589-20.456
		c8.241-2.678,16.171-7.55,25.138-6.773c15.463,0.466,30.943-1.071,46.389,0.052c9.053,2.453,18.4,4.475,26.952,8.466
		c24.015,14.236,47.926,28.645,71.924,42.933c-1.952,16.292-3.853,32.584-5.805,48.894c4.82-3.455,9.623-6.894,14.444-10.349
		c4.958,2.298,9.952,4.596,14.927,6.911c12.111-17.225,25.328-33.638,37.266-50.984c4.285-6.531,10.176-12.249,12.37-19.938
		c4.509-14.703,9.191-29.354,13.804-44.005c2.833-7.947,0.587-16.396,0.95-24.585c0.242-5.822,2.816-11.23,3.369-17.018
		c0.449-5.2,0.207-10.401,0.225-15.601c-2.177-0.311-4.337-0.622-6.479-0.933c-2.211,20.37-12.059,38.977-23.618,55.528
		c-5.753,5.114-12.163,9.675-18.849,13.493c-17.553,1.244-35.314-1.071-52.004-6.634c-13.061-2.505-24.637-10.85-31.824-21.925
		c-4.786-6.548-5.339-14.962-7.792-22.46c-2.782-8.362-1.797-17.242-1.952-25.881c-0.207-8.397,1.382-16.655,2.609-24.913
		c-5.805-1.918-11.455-4.371-17.381-5.805c-6.548-1.14-13.2-1.33-19.799-1.97c-2.747,9.019-5.632,18.02-7.274,27.332
		c-1.106,8.587-7.446,14.979-11.852,22.045c-7.982,9.779-17.916,18.746-30.304,22.236c-8.034,0.466-16.085,0.967-24.119,0.674
		c-16.361-3.11-32.965-7.343-47.132-16.396c-7.775-7.982-13.891-17.605-16.81-28.421c-2.713-17.346,1.037-34.71,4.475-51.676
		c-4.077,0.587-8.138,1.175-12.198,1.797c-5.425,8.086-13.321,14.841-15.912,24.516c-4.838,15.394-10.176,30.632-14.893,46.061
		c-0.847-5.442-0.898-11.299-3.887-16.102c-2.211-2.92-6.393-2.177-9.502-2.125l-0.657-0.639c-1.14-2.177-1.814-4.475-2.021-6.911
		c-1.019-17.847-3.473-35.781-0.432-53.593c2.471-14.461-0.069-30.511,8.103-43.452c8.5-15.169,16.655-30.546,24.931-45.836
		c3.801-7.412,10.418-12.612,16.275-18.296c10.781-10.366,21.579-20.715,32.308-31.133c-1.451-0.035-4.337-0.104-5.771-0.155
		c5.408-9.088,7.654-21.009,17.329-26.779c19.108-12.474,37.837-25.518,56.237-39.012c4.768-3.611,9.917-6.738,15.601-8.725
		C803.216,46.444,815.742,41.727,828.406,37.339 M832.933,109.298c-15.67,2.298-31.254,5.304-46.631,9.053
		c-12.18,4.112-23.307,10.712-34.744,16.448c-9.52,5.373-19.696,9.796-28.386,16.517c-11.766,10.936-22.408,23.238-30.442,37.197
		c-5.408,11.455-7.913,23.946-10.902,36.178c-4.492,11.627-14.927,19.713-20.37,30.805c-2.177,8.915-1.814,18.262-2.903,27.367
		c5.857-9.934,10.677-21.786,21.544-27.229c6.133-1.831,12.975-0.674,18.78-3.697c3.646-1.589,6.98-4.302,11.126-4.423
		c8.12-0.622,16.223-1.9,24.395-1.935c11.558,0.777,23.013,2.661,34.45,4.509c13.925,2.073,25.967,9.882,38.441,15.86
		c7.654,3.645,11.386,11.576,13.649,19.298c13.148,1.365,25.829,4.993,38.32,9.191c2.816-3.991,5.01-9.088,9.727-11.213
		c4.578-1.451,9.451-1.935,14.236-2.315c16.206,0.432,32.308,2.661,48.168,5.943c20.318,3.922,38.839,14.91,53.576,29.198
		c3.196,3.127,7.948,3.144,11.99,4.388c-0.311-21.026,0.587-42.087-0.104-63.113c-3.905-16.24-8.759-32.291-13.321-48.358
		c-4.699-9.796-12.18-17.951-18.106-27.021c-7.567-10.176-13.044-22.322-23.497-30.01c-12.198-9.226-23.773-19.471-37.508-26.434
		c-9.917-4.889-19.523-10.643-30.079-14.081C860.749,108.71,846.737,108.537,832.933,109.298 M709.229,253.595
		c-7.688,1.52-15.532,6.427-17.83,14.323c-3.3,10.66-5.736,21.665-6.721,32.809c-0.484,13.977,0.639,29.112,8.898,40.929
		c4.544,6.824,12.699,9.485,20.059,12.128c17.225,5.753,35.746,9.934,53.922,6.652c7.775-1.503,15.774-4.337,21.078-10.504
		c11.61-12.94,17.001-29.786,22.788-45.819c2.263-6.911,5.615-14.858,1.97-21.873c-5.788-8.898-15.584-14.236-25.604-17.001
		C762.805,256.083,735.922,249.708,709.229,253.595 M874.605,290.845c-6.427,3.525-13.217,9.019-14.046,16.811
		c-2.557,10.142-3.058,20.663-2.833,31.064c2.54,14.444,5.079,29.872,14.616,41.603c6.168,5.995,13.977,10.66,22.443,12.56
		c15.29,3.853,30.891,7.947,46.821,6.928c5.701-0.812,11.973-2.782,15.256-7.913c5.909-8.483,12.75-16.396,17.605-25.535
		c3.628-9.554,6.496-19.454,8.138-29.526c0.052-7.481-1.088-16.24-7.515-21.061c-9.07-7.153-18.4-15.066-30.079-17.294
		c-14.219-3.196-28.645-5.321-42.968-7.965C892.97,289.549,883.503,288.495,874.605,290.845 M763.807,445.059
		c-12.923,0.121-24.706,6.012-36.679,10.176c9.813-1.019,19.558-3.818,29.492-2.851c6.669,0.605,13.424,0.553,20.059,1.538
		c3.939,2.436,7.412,5.563,11.109,8.345c7.585,0,15.152-0.795,22.754-0.622c7.809,1.14,15.584,2.626,23.289,4.354
		c8.017,2.73,15.757,6.202,23.704,9.14c-7.792-7.308-15.912-14.236-23.773-21.441c-6.738-0.708-13.476-1.365-20.197-2.039
		c-7.706-0.691-14.789-4.06-22.097-6.323C782.605,441.638,773.016,445.007,763.807,445.059 M736.009,459.952
		c2.54,7.222,10.729,9.675,17.726,8.5c1.451-1.469,2.92-2.92,4.406-4.354c0.812,2.056,1.641,4.129,2.471,6.202
		c7.481-0.397,14.945,1.054,22.426,0.242c1.607,1.261,3.231,2.522,4.872,3.801c2.782-0.086,5.58-0.173,8.379-0.294
		c0.466,0.847,1.399,2.505,1.866,3.352c5.459,1.469,10.919,2.885,16.379,4.388c0.933-0.708,2.816-2.125,3.749-2.851
		c2.661,2.367,5.46,4.596,8.293,6.755c2.091-0.708,4.164-1.434,6.272-2.16c1.762,1.348,3.525,2.678,5.321,4.026
		c3.922-0.086,7.809,0.484,11.196,2.609c1.866-2.091,3.715-4.216,5.511-6.375c-3.922-2.488-8.155-4.44-12.457-6.151
		c-8.621-3.352-16.759-8.293-26.054-9.589c-8.535-1.918-17.329-1.279-25.916-2.453c-6.444-0.847-10.072-7.464-16.5-8.207
		c-7.896-1.348-15.912-0.466-23.86-0.933C745.217,456.255,739.723,456.324,736.009,459.952 M725.677,463.2
		c3.041,10.211,10.902,17.726,17.432,25.777c7.429,6.306,14.876,12.716,22.892,18.262c11.161,2.799,22.391,5.563,33.708,7.671
		c13.13,0.276,26.261,0.104,39.392,0.052c8.189-7.55,16.569-14.893,24.827-22.374c-10.383,1.589-20.612,4.768-31.202,4.544
		c-7.982-0.035-15.981,1.019-23.929,0.242c-12.992-2.989-26.036-5.788-38.977-9.019C754.668,480.788,742.09,468.245,725.677,463.2z"
		/>
	<path fill="#FFFFFF" stroke="#FFFFFF" stroke-width="0.0938" d="M832.933,109.298c13.804-0.76,27.816-0.587,41.413,2.125
		c10.556,3.438,20.162,9.191,30.079,14.081c13.735,6.963,25.311,17.208,37.508,26.434c10.453,7.688,15.929,19.834,23.497,30.01
		c5.926,9.07,13.407,17.225,18.106,27.021c4.561,16.068,9.416,32.118,13.321,48.358c0.691,21.026-0.207,42.087,0.104,63.113
		c-4.043-1.244-8.794-1.261-11.99-4.388c-14.737-14.288-33.258-25.276-53.576-29.198c-15.86-3.283-31.963-5.511-48.168-5.943
		c-4.786,0.38-9.658,0.864-14.236,2.315c-4.717,2.125-6.911,7.222-9.727,11.213c-12.491-4.198-25.173-7.827-38.32-9.191
		c-2.263-7.723-5.995-15.653-13.649-19.298c-12.474-5.978-24.516-13.787-38.441-15.86c-11.437-1.849-22.892-3.732-34.45-4.509
		c-8.172,0.035-16.275,1.313-24.395,1.935c-4.146,0.121-7.481,2.833-11.126,4.423c-5.805,3.023-12.647,1.866-18.78,3.697
		c-10.867,5.442-15.688,17.294-21.544,27.229c1.088-9.105,0.726-18.452,2.903-27.367c5.442-11.092,15.878-19.177,20.37-30.805
		c2.989-12.232,5.494-24.723,10.902-36.178c8.034-13.96,18.676-26.261,30.442-37.197c8.69-6.721,18.867-11.144,28.386-16.517
		c11.437-5.736,22.564-12.336,34.744-16.448C801.679,114.602,817.262,111.595,832.933,109.298z"/>
	<path fill="#FFFFFF" stroke="#FFFFFF" stroke-width="0.0938" d="M709.229,253.595c26.693-3.887,53.576,2.488,78.559,11.645
		c10.021,2.764,19.817,8.103,25.604,17.001c3.645,7.014,0.294,14.962-1.97,21.873c-5.788,16.033-11.178,32.878-22.788,45.819
		c-5.304,6.168-13.303,9.001-21.078,10.504c-18.175,3.283-36.696-0.898-53.922-6.652c-7.36-2.643-15.515-5.304-20.059-12.128
		c-8.258-11.817-9.381-26.952-8.898-40.929c0.985-11.144,3.421-22.149,6.721-32.809
		C693.697,260.022,701.541,255.116,709.229,253.595z"/>
	<path fill="#FFFFFF" stroke="#FFFFFF" stroke-width="0.0938" d="M672.948,273.222c4.06-0.622,8.12-1.209,12.198-1.797
		c-3.438,16.966-7.187,34.329-4.475,51.676c2.92,10.815,9.036,20.439,16.81,28.421c14.167,9.053,30.77,13.286,47.132,16.396
		c8.034,0.294,16.085-0.207,24.119-0.674c12.388-3.49,22.322-12.457,30.304-22.236c4.406-7.066,10.746-13.459,11.852-22.045
		c1.641-9.312,4.527-18.314,7.274-27.332c6.6,0.639,13.251,0.829,19.799,1.97c5.926,1.434,11.576,3.887,17.381,5.805
		c-1.227,8.258-2.816,16.517-2.609,24.913c0.156,8.638-0.829,17.519,1.952,25.881c2.453,7.498,3.006,15.912,7.792,22.46
		c7.187,11.075,18.763,19.419,31.824,21.925c16.69,5.563,34.45,7.878,52.004,6.634c6.686-3.818,13.096-8.379,18.849-13.493
		c11.558-16.551,21.406-35.159,23.618-55.528c2.142,0.311,4.302,0.622,6.479,0.933c-0.017,5.2,0.225,10.401-0.225,15.601
		c-0.553,5.788-3.127,11.195-3.369,17.018c-0.363,8.189,1.883,16.638-0.95,24.585c-4.613,14.651-9.295,29.302-13.804,44.005
		c-2.194,7.688-8.086,13.407-12.37,19.938c-11.938,17.346-25.155,33.759-37.266,50.984c-4.976-2.315-9.969-4.613-14.927-6.911
		c-4.82,3.455-9.623,6.893-14.444,10.349c1.952-16.31,3.853-32.602,5.805-48.894c-23.998-14.288-47.909-28.697-71.924-42.933
		c-8.552-3.991-17.899-6.012-26.952-8.466c-15.446-1.123-30.926,0.415-46.389-0.052c-8.967-0.777-16.897,4.095-25.138,6.773
		c-13.044,3.922-23.22,13.372-34.589,20.456c-2.332,6.703-4.63,13.442-6.945,20.162c-14.012-10.919-28.023-21.873-42.035-32.792
		c-2.004-21.147-3.697-42.311-5.874-63.424c-3.87,29.734-8.448,59.416-11.23,89.27c-7.498-2.954-15.826-5.321-21.51-11.316
		c-5.546-8.69-6.842-19.298-11.697-28.352c-4.181-8.759-10.919-17.415-9.416-27.712c1.607-13.683,5.563-26.935,9.157-40.186
		c2.021-6.323,3.473-13.113,7.498-18.521c6.669-4.44,14.858,0.397,22.097-1.14c3.11-0.052,7.291-0.795,9.502,2.125
		c2.989,4.803,3.041,10.66,3.887,16.102c4.717-15.428,10.055-30.667,14.893-46.061C659.627,288.063,667.523,281.308,672.948,273.222
		 M610.837,338.806c-2.54,2.885-5.39,5.529-7.516,8.742c-2.367,14.945-3.697,30.183-1.607,45.266
		c1.952-10.677,4.751-21.182,7.084-31.79c1.244-7.533,7.55-12.629,11.558-18.746C617.177,341.121,613.998,339.963,610.837,338.806
		 M784.401,394.99c7.498,2.211,14.962,4.596,22.46,6.842c-3.404-3.438-6.824-6.859-10.245-10.28
		C792.522,392.675,788.462,393.833,784.401,394.99 M828.544,407.067c6.669,2.695,13.666,4.388,20.922,3.645
		c-2.954-2.125-5.943-4.216-8.949-6.272C836.526,405.357,832.535,406.203,828.544,407.067z"/>
	<path fill="#FFFFFF" stroke="#FFFFFF" stroke-width="0.0938" d="M874.605,290.845c8.898-2.35,18.365-1.296,27.436-0.328
		c14.323,2.643,28.749,4.768,42.968,7.965c11.679,2.229,21.009,10.142,30.079,17.294c6.427,4.82,7.567,13.58,7.515,21.061
		c-1.641,10.073-4.509,19.972-8.138,29.526c-4.855,9.14-11.696,17.052-17.605,25.535c-3.283,5.131-9.554,7.101-15.256,7.913
		c-15.929,1.019-31.531-3.075-46.821-6.928c-8.466-1.9-16.275-6.565-22.443-12.56c-9.537-11.731-12.077-27.159-14.616-41.603
		c-0.225-10.401,0.276-20.922,2.833-31.064C861.388,299.863,868.178,294.369,874.605,290.845z"/>
	<path stroke="#000000" stroke-width="0.0938" d="M610.837,338.806c3.162,1.158,6.341,2.315,9.52,3.473
		c-4.008,6.116-10.314,11.213-11.558,18.746c-2.332,10.608-5.131,21.113-7.084,31.79c-2.091-15.083-0.76-30.321,1.607-45.266
		C605.446,344.334,608.297,341.691,610.837,338.806z"/>
	<path stroke="#000000" stroke-width="0.0938" d="M784.401,394.99c4.06-1.158,8.12-2.315,12.215-3.438
		c3.421,3.421,6.842,6.842,10.245,10.28C799.363,399.586,791.9,397.202,784.401,394.99z"/>
	<path fill="#FFFFFF" stroke="#FFFFFF" stroke-width="0.0938" d="M995.492,395.059c7.118,0.086,14.219,0.294,21.302,0.864
		c2.056,6.462,4.941,13.079,3.473,20.007c-0.829,9.468-5.632,17.778-10.142,25.916c-6.963,12.353-9.744,26.486-16.05,39.132
		c-3.576,7.204-7.36,14.323-11.057,21.458c-7.826,2.332-15.653,4.699-23.566,6.703C972.185,471.355,984.141,433.276,995.492,395.059
		 M1004.718,409.676c-1.054,12.889-2.315,25.777-3.386,38.683c4.561-7.446,9.053-14.927,13.545-22.408
		c3.663-4.803,0.346-10.919,0.259-16.31C1011.646,409.624,1008.173,409.641,1004.718,409.676z"/>
	<path stroke="#000000" stroke-width="0.0938" d="M828.544,407.067c3.991-0.864,7.982-1.71,11.973-2.626
		c3.006,2.056,5.995,4.146,8.949,6.272C842.21,411.455,835.213,409.762,828.544,407.067z"/>
	<path stroke="#000000" stroke-width="0.0938" d="M1004.718,409.676c3.455-0.035,6.928-0.052,10.418-0.035
		c0.086,5.39,3.404,11.507-0.259,16.31c-4.492,7.481-8.984,14.962-13.545,22.408
		C1002.403,435.453,1003.664,422.564,1004.718,409.676z"/>
	<path fill="#FFFFFF" stroke="#FFFFFF" stroke-width="0.0938" d="M763.807,445.059c9.209-0.052,18.797-3.421,27.66,0.276
		c7.308,2.263,14.392,5.632,22.097,6.323c6.721,0.674,13.459,1.33,20.197,2.039c7.861,7.205,15.981,14.133,23.773,21.441
		c-7.947-2.937-15.688-6.41-23.704-9.14c-7.706-1.728-15.48-3.214-23.289-4.354c-7.602-0.173-15.169,0.622-22.754,0.622
		c-3.697-2.782-7.17-5.909-11.109-8.345c-6.634-0.985-13.39-0.933-20.059-1.538c-9.934-0.968-19.679,1.831-29.492,2.851
		C739.101,451.072,750.884,445.18,763.807,445.059z"/>
	<path fill="#FFFFFF" stroke="#FFFFFF" stroke-width="0.0938" d="M736.009,459.952c3.715-3.628,9.209-3.697,14.081-3.49
		c7.947,0.466,15.964-0.415,23.86,0.933c6.427,0.743,10.055,7.36,16.5,8.207c8.587,1.175,17.381,0.536,25.916,2.453
		c9.295,1.296,17.432,6.237,26.054,9.589c4.302,1.71,8.535,3.663,12.457,6.151c-1.797,2.16-3.645,4.285-5.511,6.375
		c-3.386-2.125-7.274-2.695-11.196-2.609c-1.797-1.348-3.559-2.678-5.321-4.026c-2.108,0.726-4.181,1.451-6.272,2.16
		c-2.833-2.16-5.632-4.388-8.293-6.755c-0.933,0.726-2.816,2.142-3.749,2.851c-5.46-1.503-10.919-2.92-16.379-4.388
		c-0.467-0.847-1.399-2.505-1.866-3.352c-2.799,0.121-5.598,0.207-8.379,0.294c-1.641-1.279-3.265-2.54-4.872-3.801
		c-7.481,0.812-14.945-0.639-22.426-0.242c-0.829-2.073-1.659-4.146-2.471-6.202c-1.486,1.434-2.954,2.885-4.406,4.354
		C746.738,469.627,738.548,467.174,736.009,459.952z"/>
	<path fill="#FFFFFF" stroke="#FFFFFF" stroke-width="0.0938" d="M725.677,463.2c16.413,5.045,28.991,17.588,44.143,25.155
		c12.94,3.231,25.985,6.03,38.977,9.019c7.947,0.777,15.947-0.276,23.929-0.242c10.591,0.225,20.819-2.954,31.202-4.544
		c-8.258,7.481-16.638,14.824-24.827,22.374c-13.131,0.052-26.261,0.225-39.392-0.052c-11.317-2.108-22.547-4.872-33.708-7.671
		c-8.016-5.546-15.463-11.956-22.892-18.262C736.579,480.926,728.718,473.411,725.677,463.2z"/>
	<path fill="#FFFFFF" stroke="#FFFFFF" stroke-width="0.0938" d="M638.532,535.159c0.726,2.09,1.434,4.216,2.125,6.341
		c2.54,8.414,5.097,16.828,7.429,25.311c5.269,12.595,12.56,24.222,18.676,36.403c3.265,6.807,9.364,11.507,14.495,16.828
		c13.873,13.148,26.157,28.144,42,39.046c14.565,10.504,28.663,21.804,44.592,30.217c11.368,0.173,22.996-0.294,33.621-4.786
		c14.254-6.116,27.902-13.511,41.517-20.905c9.934-5.235,17.536-13.666,25.345-21.544c18.452-18.711,34.537-39.547,51.123-59.882
		l1.987-2.073c-1.123,11.213-3.559,22.287-7.084,32.982c-5.701,15.515-12.439,30.632-19.005,45.784
		c-6.479,14.392-12.18,29.336-21.804,42.018c-12.733,17.467-25.743,35.038-41.741,49.689c-4.648,5.045-11.887,4.095-18.054,4.267
		c-25.449-0.518-50.864-2.557-76.088-5.822c-11.817-1.399-23.963-2.937-34.537-8.759c-10.504-5.632-22.633-11.04-28.041-22.408
		c-14.945-28.386-28.766-57.377-41.603-86.765c-2.436-6.202-5.84-12.422-5.373-19.281c0.777-13.251,3.041-26.347,4.648-39.513
		C634.644,559.917,636.389,547.512,638.532,535.159z"/>
	<path stroke="#000000" stroke-width="0.0938" d="M608.504,574.205c8.276-3.231,16.811-5.753,25.121-8.898
		c-0.207,1.745-0.657,5.252-0.864,6.997c-1.607,13.165-3.87,26.261-4.648,39.513c-0.466,6.859,2.937,13.079,5.373,19.281
		c12.837,29.388,26.658,58.379,41.603,86.765c5.408,11.368,17.536,16.776,28.041,22.408c10.574,5.822,22.719,7.36,34.537,8.759
		c25.224,3.265,50.639,5.304,76.088,5.822c6.168-0.173,13.407,0.777,18.054-4.267c15.999-14.651,29.008-32.222,41.741-49.689
		c9.623-12.681,15.325-27.626,21.804-42.018c6.565-15.152,13.303-30.269,19.005-45.784c1.78-1.33,3.628-2.574,5.494-3.818
		c15.498,28.801,31.41,57.377,46.959,86.143c3.162,6.237,10.107,8.742,15.757,12.163c34.33,19.713,68.59,39.564,102.902,59.329
		c25.881,14.495,50.432,31.219,75.604,46.89c33.189,21.026,66.344,42.139,99.568,63.113c4.976,2.833,6.824,8.518,9.07,13.424
		c14.616,33.656,30.909,66.603,44.298,100.794c13.874,34.45,28.058,68.797,41.759,103.317c7.187,22.909,13.355,46.13,20.145,69.16
		c19.661,69.92,41.689,139.149,62.733,208.654c4.233,13.182,7.654,26.624,12.491,39.616c7.498,18.383,15.135,36.714,22.667,55.114
		c-24.913,12.474-49.81,24.948-74.758,37.37c-5.563-9.762-11.299-19.437-17.622-28.714c-9.001,5.028-18.365,9.33-27.851,13.355
		l-0.173,1.624c-0.553-0.104-1.658-0.311-2.211-0.415c-2.885,1.417-5.771,2.833-8.69,4.181
		c-19.385,9.33-39.703,16.534-59.347,25.242c-27.764,14.081-55.494,28.265-83.206,42.45c-0.933,5.615-2.902,11.247-1.935,17.018
		c-7.118,0.225-14.236,0.207-21.354,0.19c-6.583-8.207-15.774-14.616-20.162-24.361c-14.668-44.506-28.732-89.201-43.624-133.62
		c-1.849,14.53-3.144,29.129-4.82,43.676c-0.985,7.394,2.92,14.081,5.391,20.767c16.586,42.605,32.999,85.279,49.551,127.902
		c2.574,6.79,6.392,13.441,6.168,20.922H500.177c5.2-0.328,10.418-0.708,15.636-0.95c1.365-34.243,3.524-68.469,3.956-102.746
		c0.674-32.844,1.261-65.687,2.004-98.531c0.553-19.074,0.138-38.303-3.715-57.066c-0.484-5.114-5.753-6.928-9.554-9.14
		c2.989-2.816,5.891-5.684,8.759-8.621c6.393,4.457,13.856,8.258,21.89,7.464c4.371-4.889,10.504-7.688,15.1-12.198
		c-1.158-15.411-13.839-25.95-23.359-36.766c-7.274-10.314-7.775-23.393-9.969-35.401c-0.985-7.239-6.686-12.439-10.314-18.417
		c1.762-6.289,3.473-12.595,5.183-18.884c5.511-3.853,10.867-7.93,16.724-11.213c5.978-7.723,16.5-14.789,14.323-25.846
		c-0.397-10.228-10.383-17.139-19.886-17.761c-9.589-1.123-19.229,1.106-28.766,0.639c-9.762-7.187-18.556-15.567-28.144-22.978
		c-5.218-3.421-11.247-5.494-17.208-7.187c-10.643-0.933-20.836,2.868-31.012,5.287c-12.63,2.851-24.965,7.446-37.992,8.189
		c-9.278,0.829-18.556,1.693-27.816,2.574c-4.699,6.669-10.107,12.854-14.34,19.834c-2.488,6.721-3.68,13.839-5.529,20.767
		c-4.941,2.592-9.865,5.2-14.806,7.792c-7.153,15.774-1.676,33.517-5.062,50c-3.818,16.793-8.898,33.466-9.865,50.743
		c-18.314,9.122-36.247,19.212-55.597,26.071c-4.509,1.607-9.243,2.92-14.063,2.661c-16.845-1.054-33.569,1.901-50.224,3.956
		c-15.117,2.436-30.459,4.198-45.007,9.226c-14.374,4.872-28.922,9.572-42.415,16.62c-10.366,5.028-15.601,15.895-22.495,24.533
		c-5.563,6.963-10.142,15.117-17.64,20.231c-4.371-2.643-7.049-8.967-12.889-8.103c-5.701-0.812-10.176-4.751-14.893-7.706
		c2.73-10.073,3.991-20.577,7.809-30.321c4.026-8.379,9.278-16.102,13.822-24.205c3.991-7.256,9.934-14.115,9.882-22.84
		c0.812-17.657,1.762-35.314,2.574-52.971c0.225-7.395,2.298-14.513,4.648-21.441c8.189-26.987,17.398-53.697,23.998-81.15
		c18.383-70.991,36.489-142.069,54.388-213.198c5.01-22.927,9.675-45.922,14.461-68.883c0.95-4.768,2.626-9.364,4.786-13.701
		c10.919-21.959,21.596-44.039,32.343-66.085c1.952-4.941,6.876-7.325,11.265-9.658c22.115-11.679,43.745-24.257,65.929-35.746
		c26.123-11.869,52.107-24.119,78.403-35.591c62.871-21.959,125.898-43.504,188.803-65.342c3.093-7.084,6.012-14.305,10.383-20.732
		c15.567-23.065,31.202-46.078,46.596-69.229C603.096,577.85,605.291,575.241,608.504,574.205 M752.404,877.071
		c-13.286,5.287-5.097,28.092,8.103,26.192c4.907-0.035,10.418-4.337,9.502-9.692c-0.311-2.989-0.95-5.943-1.866-8.777
		C766.053,878.678,758.538,874.773,752.404,877.071 M730.342,1070.798c-5.27,7.343,0.242,16.31,5.65,21.804
		c4.354,0.276,9.347,1.883,13.061-1.33c5.995-3.507,3.265-11.351,1.745-16.586C748.137,1066.479,735.559,1063.179,730.342,1070.798
		 M440.744,1110.812c-4.82,1.244-10.453,1.779-13.96,5.667c-1.555,15.031-6.03,29.578-6.79,44.713
		c11.316-2.315,22.616-5.805,34.243-5.891c10.608,3.438,18.815,11.714,27.885,17.933c4.371-20.352,6.323-41.793,1.417-62.232
		C469.839,1105.75,454.739,1108.099,440.744,1110.812 M712.702,1289.041c-0.466,6.358,3.749,11.576,7.706,16.05
		c6.012,1.365,14.34,1.175,16.603-5.857c0.501-7.222-1.399-16.534-9.07-19.333C721.427,1276.602,712.823,1281.75,712.702,1289.041
		 M695.632,1512.019c-1.382,6.876,3.144,12.889,7.516,17.674c6.012,1.348,14.323,1.175,16.603-5.857
		c0.432-7.101-1.296-16.171-8.673-19.177C705.048,1501.393,696.893,1505.315,695.632,1512.019z"/>
	<path fill="#FFFFFF" stroke="#FFFFFF" stroke-width="0.0938" d="M752.404,877.071c6.133-2.298,13.649,1.607,15.739,7.723
		c0.916,2.833,1.555,5.788,1.866,8.777c0.916,5.356-4.596,9.658-9.502,9.692C747.308,905.163,739.118,882.358,752.404,877.071z"/>
	<path fill="#FFFFFF" stroke="#FFFFFF" stroke-width="0.0938" d="M730.342,1070.798c5.218-7.619,17.795-4.319,20.456,3.887
		c1.52,5.235,4.25,13.079-1.745,16.586c-3.715,3.214-8.708,1.607-13.061,1.33C730.584,1087.108,725.072,1078.141,730.342,1070.798z"
		/>
	<path fill="#646464" stroke="#646464" stroke-width="0.0938" d="M440.744,1110.812c13.994-2.713,29.095-5.062,42.795,0.19
		c4.907,20.439,2.954,41.88-1.417,62.232c-9.07-6.22-17.277-14.495-27.885-17.933c-11.627,0.086-22.927,3.576-34.243,5.891
		c0.76-15.135,5.235-29.682,6.79-44.713C430.292,1112.591,435.924,1112.056,440.744,1110.812z"/>
	<path fill="#FFFFFF" stroke="#FFFFFF" stroke-width="0.0938" d="M421.826,1164.267c10.176-2.419,20.37-6.22,31.012-5.287
		c5.961,1.693,11.99,3.766,17.208,7.187c9.589,7.412,18.383,15.791,28.144,22.978c9.537,0.467,19.177-1.762,28.766-0.639
		c9.502,0.622,19.488,7.533,19.886,17.761c2.177,11.057-8.345,18.124-14.323,25.846c-5.857,3.283-11.213,7.36-16.724,11.213
		c-1.71,6.289-3.421,12.595-5.183,18.884c3.628,5.978,9.33,11.178,10.314,18.417c2.194,12.008,2.695,25.086,9.969,35.401
		c9.52,10.815,22.201,21.354,23.359,36.766c-4.596,4.509-10.729,7.308-15.1,12.198c-8.034,0.795-15.497-3.006-21.89-7.464
		c-2.868,2.937-5.771,5.805-8.759,8.621c-8.759-1.019-17.605-0.138-26.382-0.674c-7.775-0.536-15.377-2.367-23.065-3.473
		c-8.086-0.777-15.757,2.574-23.687,3.525c-7.567-0.432-15.066-1.538-22.598-2.35c-0.76,0-2.263,0-3.006,0
		c-7.395,0.829-14.806,1.572-22.166,2.592c-2.782,0.363-5.546,0.76-8.328,1.14c-1.227,1.849-2.453,3.697-3.697,5.563
		c-3.628,5.598-7.792,10.919-10.798,16.897c0.415,24.395,5.149,48.825,2.712,73.289c-10.09,22.996-20.473,46.268-36.074,66.154
		c-6.41,8.086-14.115,15.549-23.894,19.333c-13.994,5.684-27.263,12.906-40.636,19.903c-15.117,7.205-30.131,16.776-47.46,16.724
		c-19.817,0.173-39.357-3.628-58.915-6.185c-8.051-1.106-16.137,0.363-24.188,0.138c-7.533-0.155-14.098-4.423-20.18-8.397
		c-13.182-8.984-25.795-18.936-36.904-30.425c-4.976-4.958-7.861-11.489-9.934-18.089c-7.222-22.495-14.063-45.179-18.573-68.382
		c-2.229-11.247-5.805-22.495-4.648-34.07c5.84-0.864,8.518,5.46,12.889,8.103c7.498-5.114,12.077-13.269,17.64-20.231
		c6.894-8.639,12.128-19.506,22.495-24.533c13.493-7.049,28.041-11.748,42.415-16.62c14.547-5.028,29.889-6.79,45.007-9.226
		c16.655-2.056,33.379-5.01,50.224-3.956c4.82,0.259,9.554-1.054,14.063-2.661c19.35-6.859,37.284-16.949,55.597-26.071
		c0.968-17.277,6.047-33.949,9.865-50.743c3.386-16.482-2.091-34.226,5.062-50c4.941-2.592,9.865-5.2,14.806-7.792
		c1.849-6.928,3.041-14.046,5.529-20.767c4.233-6.98,9.641-13.165,14.34-19.834c9.26-0.881,18.538-1.745,27.816-2.574
		C396.861,1171.713,409.197,1167.117,421.826,1164.267z"/>
	<path fill="#FFFFFF" stroke="#FFFFFF" stroke-width="0.0938" d="M712.702,1289.041c0.121-7.291,8.725-12.439,15.238-9.14
		c7.671,2.799,9.571,12.111,9.07,19.333c-2.263,7.032-10.591,7.222-16.603,5.857
		C716.451,1300.617,712.235,1295.399,712.702,1289.041z"/>
	<path stroke="#000000" stroke-width="0.0938" d="M435.371,1365.527c7.93-0.95,15.601-4.302,23.687-3.525
		C451.525,1364.836,443.44,1366.615,435.371,1365.527z"/>
	<path fill="#646464" stroke="#646464" stroke-width="0.0938" d="M459.058,1362.002c7.688,1.106,15.29,2.937,23.065,3.473
		c8.777,0.536,17.623-0.346,26.382,0.674c3.801,2.211,9.07,4.026,9.554,9.14c3.853,18.763,4.267,37.992,3.715,57.066
		c-0.743,32.844-1.33,65.687-2.004,98.531c-0.432,34.278-2.592,68.503-3.956,102.746c-5.218,0.242-10.435,0.622-15.636,0.95H362.462
		c0.639-57.325,4.457-114.598,5.028-171.924c2.436-24.464-2.298-48.894-2.712-73.289c3.006-5.978,7.17-11.299,10.798-16.897
		c3.956-2.315,7.947-4.596,12.025-6.703c7.36-1.019,14.772-1.762,22.166-2.592c1.002,2.661,1.987,2.661,3.006,0
		c7.533,0.812,15.031,1.918,22.598,2.35C443.44,1366.615,451.525,1364.836,459.058,1362.002z"/>
	<path fill="#2F2F2F" stroke="#2F2F2F" stroke-width="0.0938" d="M409.767,1363.177c0.743,0,2.246,0,3.006,0
		C411.754,1365.838,410.769,1365.838,409.767,1363.177z"/>
	<path stroke="#000000" stroke-width="0.0938" d="M379.273,1366.909c2.782-0.38,5.546-0.777,8.328-1.14
		c-4.077,2.108-8.068,4.388-12.025,6.703C376.819,1370.606,378.046,1368.758,379.273,1366.909z"/>
	<path fill="#FFFFFF" stroke="#FFFFFF" stroke-width="0.0938" d="M1353.576,1489.005c9.485-4.026,18.849-8.328,27.851-13.355
		c6.323,9.278,12.059,18.953,17.622,28.714c5.494,9.934,11.956,19.35,16.448,29.82c14.15,32.36,28.559,64.599,42.761,96.924
		c-80.874,0.415-161.765,0.467-242.656,0.985c-5.978-17.623-11.04-35.573-17.588-52.989c-0.968-5.771,1.002-11.403,1.935-17.018
		c27.712-14.184,55.442-28.369,83.206-42.45c19.644-8.708,39.962-15.912,59.347-25.242c2.92-1.348,5.805-2.764,8.69-4.181
		c0.553,0.104,1.659,0.311,2.211,0.415L1353.576,1489.005z"/>
	<path fill="#FFFFFF" stroke="#FFFFFF" stroke-width="0.0938" d="M695.632,1512.019c1.261-6.703,9.416-10.625,15.446-7.36
		c7.377,3.006,9.105,12.077,8.673,19.177c-2.281,7.032-10.591,7.204-16.603,5.857
		C698.777,1524.907,694.25,1518.895,695.632,1512.019z"/>
</g>
</svg>
