<svg width="1443" height="1602" viewBox="0 0 1443 1602" fill="none" xmlns="http://www.w3.org/2000/svg">
<path d="M797.087 3.35772C809.02 -1.01548 821.92 1.24866 834.32 0.764417C845.027 1.14461 856.201 -0.825383 866.476 3.09758C878.928 7.48778 891.38 11.896 903.951 15.993C907.474 17.3067 911.412 18.3442 913.899 21.4038C930.789 42.6994 946.936 64.6004 962.115 87.1587C958.091 94.0902 954.102 101.022 950.062 107.919C962.133 112.551 974.221 117.133 986.293 121.765C989.747 130.356 993.235 138.93 996.552 147.59C990.628 143.614 985.275 138.74 978.885 135.507C971.96 134.331 964.879 136.077 957.954 136.492C966.761 141.937 975.673 147.227 984.567 152.569C993.046 157.322 998.365 165.723 1004.48 173C1002.7 184.703 1000.11 196.318 998.935 208.107C999.073 220.502 1006.67 231.754 1005.67 244.303C1004.86 253.568 1003.65 262.799 1002.82 272.081C1001.8 285.132 995.878 297.025 992.148 309.401C986.708 326.912 978.729 343.471 971.994 360.498C969.352 360.74 966.727 360.999 964.102 361.258C952.755 399.494 940.805 437.591 928.077 475.395C924.364 484.66 922.033 494.582 916.489 503.018C906.87 518.074 898.235 533.753 888.098 548.48C871.519 568.825 855.441 589.672 836.997 608.392C829.191 616.274 821.592 624.71 811.663 629.947C798.054 637.346 784.411 644.743 770.163 650.862C759.543 655.357 747.92 655.823 736.556 655.651C720.634 647.232 706.542 635.928 691.983 625.419C676.147 614.511 663.868 599.508 650.001 586.353C644.873 581.029 638.776 576.327 635.513 569.517C629.399 557.33 622.111 545.697 616.844 533.095C614.513 524.608 611.958 516.19 609.419 507.772C610.092 489.881 601.647 473.2 601.82 455.344C601.751 443.244 601.094 431.127 601.388 419.027C604.169 389.157 608.745 359.46 612.613 329.712C614.789 350.835 616.482 372.011 618.485 393.168C632.491 404.093 646.496 415.052 660.502 425.977C662.816 419.252 665.113 412.511 667.444 405.804C678.807 398.717 688.979 389.262 702.018 385.338C710.256 382.659 718.182 377.784 727.146 378.562C742.602 379.028 758.075 377.49 773.515 378.614C782.564 381.068 791.907 383.091 800.455 387.084C824.46 401.327 848.361 415.743 872.349 430.039C870.398 446.339 868.497 462.639 866.546 478.957C871.364 475.5 876.165 472.06 880.984 468.603C885.94 470.902 890.932 473.201 895.905 475.517C908.01 458.284 921.222 441.863 933.155 424.508C937.438 417.974 943.326 412.253 945.52 404.56C950.027 389.849 954.707 375.191 959.318 360.533C962.149 352.582 959.904 344.129 960.267 335.935C960.509 330.111 963.082 324.7 963.635 318.909C964.084 313.706 963.842 308.503 963.86 303.3C961.684 302.989 959.525 302.678 957.383 302.367C955.173 322.747 945.33 341.363 933.776 357.922C928.025 363.039 921.618 367.602 914.935 371.422C897.389 372.667 879.636 370.351 862.953 364.785C849.897 362.279 838.326 353.929 831.142 342.849C826.358 336.298 825.806 327.879 823.354 320.378C820.573 312.011 821.557 303.127 821.402 294.484C821.195 286.082 822.784 277.82 824.01 269.558C818.208 267.639 812.56 265.185 806.637 263.75C800.091 262.61 793.442 262.42 786.846 261.779C784.1 270.803 781.217 279.808 779.575 289.125C778.47 297.716 772.132 304.111 767.728 311.181C759.75 320.965 749.82 329.936 737.437 333.428C729.407 333.894 721.359 334.396 713.328 334.103C696.974 330.991 680.377 326.756 666.216 317.698C658.445 309.712 652.331 300.084 649.414 289.263C646.702 271.908 650.45 254.536 653.887 237.561C649.811 238.148 645.752 238.737 641.694 239.359C636.271 247.449 628.379 254.207 625.789 263.887C620.953 279.289 615.617 294.535 610.902 309.971C610.055 304.527 610.004 298.667 607.017 293.861C604.807 290.94 600.626 291.683 597.519 291.735L596.862 291.096C595.722 288.918 595.049 286.619 594.842 284.181C593.823 266.326 591.37 248.383 594.41 230.562C596.88 216.093 594.341 200.035 602.51 187.088C611.006 171.911 619.158 156.527 627.43 141.229C631.229 133.813 637.844 128.611 643.698 122.924C654.474 112.552 665.268 102.198 675.992 91.775C674.542 91.74 671.657 91.671 670.224 91.62C675.629 82.5274 677.874 70.6004 687.545 64.8275C706.645 52.3473 725.366 39.2967 743.758 25.796C748.524 22.1832 753.671 19.0546 759.353 17.0666C771.907 12.4673 784.428 7.74792 797.087 3.35772ZM801.612 75.3528C785.948 77.652 770.371 80.6595 755.001 84.4103C742.826 88.5244 731.704 95.1277 720.271 100.867C710.755 106.242 700.584 110.668 691.898 117.392C680.137 128.333 669.499 140.642 661.468 154.608C656.063 166.068 653.559 178.566 650.571 190.804C646.081 202.437 635.65 210.527 630.21 221.624C628.034 230.544 628.397 239.895 627.308 249.005C633.163 239.066 637.98 227.208 648.843 221.762C654.973 219.93 661.812 221.088 667.615 218.063C671.259 216.474 674.592 213.759 678.736 213.638C686.853 213.016 694.952 211.737 703.121 211.702C714.674 212.48 726.124 214.364 737.556 216.213C751.475 218.287 763.512 226.1 775.981 232.081C783.631 235.728 787.362 243.663 789.624 251.389C802.766 252.755 815.442 256.385 827.928 260.585C830.742 256.592 832.935 251.492 837.65 249.366C842.227 247.914 847.097 247.43 851.88 247.05C868.08 247.482 884.175 249.712 900.028 252.996C920.337 256.92 938.85 267.913 953.581 282.208C956.776 285.337 961.526 285.354 965.566 286.599C965.255 265.562 966.153 244.491 965.462 223.454C961.559 207.206 956.707 191.147 952.147 175.072C947.45 165.271 939.972 157.112 934.048 148.037C926.485 137.856 921.01 125.704 910.561 118.012C898.369 108.782 886.799 98.5314 873.069 91.5649C863.157 86.6735 853.555 80.9166 843.003 77.4769C829.416 74.7645 815.41 74.5914 801.612 75.3528ZM677.96 219.722C670.276 221.243 662.435 226.152 660.138 234.052C656.839 244.718 654.404 255.728 653.42 266.878C652.936 280.862 654.059 296.004 662.314 307.827C666.856 314.655 675.008 317.317 682.365 319.961C699.582 325.717 718.095 329.9 736.264 326.617C744.035 325.113 752.031 322.278 757.333 316.107C768.938 303.161 774.326 286.307 780.111 270.266C782.373 263.351 785.724 255.4 782.08 248.382C776.295 239.479 766.503 234.138 756.487 231.372C731.514 222.211 704.642 215.833 677.96 219.722ZM843.266 256.991C836.842 260.518 830.055 266.014 829.226 273.81C826.67 283.957 826.169 294.484 826.394 304.89C828.933 319.341 831.471 334.777 841.004 346.514C847.169 352.512 854.975 357.179 863.437 359.08C878.721 362.935 894.315 367.031 910.239 366.012C915.937 365.199 922.206 363.228 925.488 358.095C931.395 349.607 938.233 341.69 943.086 332.547C946.712 322.988 949.579 313.083 951.22 303.006C951.272 295.521 950.133 286.758 943.708 281.934C934.642 274.778 925.316 266.861 913.642 264.632C899.429 261.434 885.009 259.308 870.692 256.663C861.623 255.694 852.16 254.64 843.266 256.991ZM732.515 411.282C719.598 411.403 707.82 417.297 695.852 421.463C705.661 420.444 715.402 417.643 725.331 418.611C731.997 419.216 738.75 419.164 745.382 420.15C749.319 422.587 752.791 425.715 756.486 428.499C764.068 428.499 771.632 427.703 779.23 427.877C787.036 429.017 794.808 430.504 802.509 432.233C810.523 434.964 818.26 438.438 826.203 441.377C818.415 434.066 810.298 427.134 802.44 419.926C795.705 419.217 788.97 418.56 782.252 417.886C774.549 417.194 767.469 413.823 760.164 411.559C751.305 407.859 741.72 411.23 732.515 411.282ZM704.729 426.183C707.268 433.408 715.453 435.863 722.448 434.687C723.898 433.217 725.366 431.765 726.852 430.331C727.663 432.388 728.492 434.462 729.322 436.536C736.799 436.139 744.26 437.59 751.738 436.778C753.344 438.04 754.968 439.301 756.608 440.581C759.389 440.495 762.186 440.408 764.983 440.287C765.449 441.134 766.382 442.793 766.849 443.64C772.305 445.11 777.763 446.527 783.221 448.031C784.153 447.322 786.035 445.905 786.968 445.178C789.628 447.546 792.426 449.776 795.258 451.937C797.348 451.228 799.42 450.502 801.527 449.775C803.288 451.124 805.05 452.455 806.846 453.803C810.766 453.717 814.651 454.288 818.037 456.414C819.902 454.322 821.75 452.196 823.545 450.036C819.625 447.546 815.394 445.593 811.094 443.882C802.476 440.528 794.342 435.584 785.051 434.288C776.519 432.369 767.729 433.008 759.146 431.834C752.705 430.986 749.078 424.366 742.653 423.622C734.76 422.274 726.748 423.156 718.803 422.689C713.933 422.484 708.441 422.553 704.729 426.183ZM694.401 429.432C697.441 439.648 705.299 447.167 711.826 455.222C719.252 461.531 726.696 467.945 734.708 473.493C745.865 476.294 757.09 479.059 768.402 481.168C781.526 481.444 794.652 481.272 807.777 481.22C815.963 473.666 824.339 466.32 832.594 458.835C822.215 460.425 811.99 463.605 801.405 463.381C793.426 463.346 785.431 464.401 777.486 463.623C764.5 460.633 751.461 457.833 738.526 454.6C723.38 447.029 710.807 434.48 694.401 429.432Z" fill="#363636" stroke="#363636" stroke-width="0.0938"/>
<path d="M801.612 75.3528C815.41 74.5924 829.416 74.7655 843.008 77.4788C853.559 80.9186 863.161 86.6744 873.074 91.5669C886.803 98.5334 898.374 108.784 910.566 118.014C921.014 125.706 926.488 137.858 934.053 148.039C939.976 157.114 947.454 165.273 952.151 175.074C956.71 191.15 961.563 207.208 965.467 223.456C966.157 244.493 965.26 265.564 965.57 286.601C961.529 285.356 956.78 285.339 953.586 282.21C938.855 267.915 920.342 256.922 900.032 252.998C884.179 249.713 868.083 247.484 851.885 247.052C847.101 247.432 842.231 247.916 837.655 249.368C832.94 251.494 830.747 256.594 827.932 260.587C815.446 256.387 802.77 252.756 789.628 251.391C787.366 243.664 783.636 235.73 775.985 232.083C763.516 226.102 751.48 218.289 737.561 216.215C726.128 214.365 714.678 212.482 703.125 211.704C694.957 211.739 686.857 213.018 678.741 213.64C674.596 213.761 671.263 216.475 667.619 218.065C661.817 221.09 654.978 219.932 648.847 221.764C637.985 227.209 633.166 239.067 627.312 249.007C628.4 239.897 628.038 230.546 630.214 221.626C635.654 210.529 646.085 202.439 650.576 190.806C653.563 178.568 656.067 166.07 661.473 154.61C669.504 140.643 680.141 128.335 691.902 117.394C700.588 110.669 710.761 106.244 720.276 100.869C731.708 95.1297 742.83 88.5264 755.005 84.4123C770.372 80.6594 785.948 77.6509 801.612 75.3528Z" fill="#CDB593" stroke="#CDB593" stroke-width="0.0938"/>
<path d="M677.961 219.722C704.642 215.833 731.514 222.211 756.486 231.373C766.503 234.138 776.295 239.48 782.079 248.383C785.723 255.4 782.373 263.352 780.11 270.267C774.325 286.308 768.937 303.161 757.332 316.109C752.03 322.28 744.035 325.114 736.263 326.618C718.096 329.902 699.583 325.719 682.364 319.962C675.007 317.318 666.856 314.656 662.313 307.828C654.059 296.005 652.936 280.863 653.419 266.879C654.404 255.729 656.839 244.719 660.137 234.053C662.435 226.152 670.276 221.244 677.961 219.722Z" fill="#CDB593" stroke="#CDB593" stroke-width="0.0938"/>
<path d="M641.696 239.359C645.754 238.737 649.812 238.149 653.888 237.561C650.452 254.536 646.704 271.907 649.415 289.263C652.334 300.083 658.447 309.712 666.218 317.698C680.379 326.756 696.975 330.991 713.33 334.102C721.361 334.397 729.408 333.895 737.439 333.428C749.821 329.936 759.751 320.965 767.73 311.181C772.134 304.111 778.471 297.715 779.577 289.125C781.217 279.808 784.102 270.802 786.848 261.779C793.445 262.419 800.093 262.609 806.638 263.75C812.562 265.185 818.209 267.639 824.012 269.558C822.785 277.82 821.197 286.083 821.404 294.484C821.56 303.126 820.575 312.011 823.355 320.378C825.807 327.879 826.36 336.298 831.144 342.849C838.328 353.929 849.899 362.278 862.954 364.785C879.637 370.351 897.39 372.667 914.936 371.422C921.619 367.602 928.027 363.039 933.777 357.922C945.33 341.363 955.174 322.746 957.385 302.367C959.526 302.678 961.685 302.989 963.861 303.3C963.844 308.503 964.086 313.706 963.636 318.909C963.084 324.7 960.511 330.109 960.269 335.935C959.906 344.129 962.151 352.582 959.319 360.533C954.708 375.191 950.028 389.849 945.521 404.56C943.328 412.252 937.439 417.974 933.156 424.508C921.224 441.863 908.012 458.284 895.906 475.517C890.932 473.201 885.942 470.902 880.986 468.603C876.168 472.06 871.367 475.499 866.548 478.957C868.499 462.639 870.399 446.339 872.35 430.039C848.363 415.743 824.462 401.327 800.457 387.084C791.909 383.091 782.566 381.069 773.516 378.614C758.077 377.49 742.604 379.029 727.147 378.562C718.184 377.784 710.257 382.659 702.02 385.338C688.981 389.262 678.81 398.717 667.446 405.804C665.115 412.511 662.818 419.253 660.503 425.977C646.497 415.052 632.492 404.093 618.486 393.168C616.483 372.01 614.791 350.836 612.615 329.712C608.747 359.461 604.17 389.158 601.39 419.027C593.895 416.072 585.57 413.703 579.889 407.705C574.345 399.011 573.05 388.398 568.197 379.339C564.018 370.576 557.282 361.915 558.785 351.613C560.391 337.923 564.345 324.665 567.938 311.407C569.958 305.081 571.409 298.288 575.433 292.877C582.099 288.435 590.284 293.274 597.52 291.736C600.629 291.684 604.808 290.941 607.018 293.862C610.006 298.668 610.058 304.528 610.904 309.972C615.619 294.537 620.954 279.29 625.79 263.888C628.38 254.207 636.273 247.449 641.696 239.359ZM579.611 304.976C577.072 307.862 574.223 310.508 572.098 313.722C569.732 328.675 568.403 343.92 570.492 359.011C572.443 348.329 575.241 337.818 577.573 327.205C578.816 319.668 585.12 314.57 589.126 308.45C585.948 307.292 582.771 306.133 579.611 304.976ZM753.101 361.188C760.596 363.4 768.057 365.786 775.552 368.033C772.149 364.594 768.73 361.171 765.311 357.748C761.219 358.872 757.16 360.03 753.101 361.188ZM797.225 373.271C803.891 375.967 810.885 377.661 818.138 376.918C815.186 374.792 812.198 372.7 809.193 370.643C805.204 371.56 801.215 372.407 797.225 373.271Z" fill="#CDB593" stroke="#CDB593" stroke-width="0.0938"/>
<path d="M843.267 256.991C852.161 254.64 861.624 255.694 870.691 256.663C885.008 259.307 899.428 261.433 913.641 264.632C925.315 266.862 934.641 274.779 943.707 281.934C950.131 286.757 951.271 295.521 951.219 303.006C949.578 313.084 946.712 322.988 943.084 332.547C938.231 341.691 931.393 349.607 925.487 358.095C922.205 363.228 915.937 365.199 910.237 366.011C894.315 367.031 878.72 362.935 863.436 359.08C854.974 357.179 847.168 352.512 841.003 346.514C831.47 334.777 828.931 319.341 826.393 304.89C826.168 294.484 826.669 283.957 829.225 273.81C830.055 266.013 836.842 260.517 843.267 256.991Z" fill="#CDB593" stroke="#CDB593" stroke-width="0.0938"/>
<path d="M579.611 304.976C582.772 306.134 585.949 307.292 589.127 308.451C585.121 314.57 578.817 319.669 577.574 327.206C575.243 337.819 572.445 348.33 570.493 359.012C568.403 343.921 569.733 328.676 572.099 313.723C574.222 310.507 577.072 307.862 579.611 304.976Z" fill="#363636" stroke="#363636" stroke-width="0.0938"/>
<path d="M753.101 361.188C757.159 360.029 761.218 358.872 765.311 357.748C768.73 361.171 772.15 364.594 775.552 368.034C768.057 365.786 760.597 363.401 753.101 361.188Z" fill="#363636" stroke="#363636" stroke-width="0.0938"/>
<path d="M964.102 361.257C971.217 361.343 978.315 361.551 985.395 362.122C987.45 368.587 990.334 375.207 988.866 382.139C988.038 391.611 983.237 399.925 978.729 408.068C971.769 420.427 968.989 434.567 962.685 447.219C959.111 454.427 955.329 461.549 951.633 468.688C943.81 471.021 935.987 473.389 928.077 475.394C940.805 437.591 952.756 399.493 964.102 361.257ZM973.324 375.881C972.27 388.777 971.01 401.671 969.939 414.584C974.498 407.134 978.988 399.649 983.479 392.165C987.14 387.359 983.824 381.24 983.737 375.846C980.249 375.829 976.777 375.846 973.324 375.881Z" fill="#CDB593" stroke="#CDB593" stroke-width="0.0938"/>
<path d="M797.225 373.271C801.214 372.407 805.204 371.56 809.193 370.644C812.198 372.701 815.185 374.792 818.138 376.919C810.885 377.661 803.891 375.967 797.225 373.271Z" fill="#363636" stroke="#363636" stroke-width="0.0938"/>
<path d="M973.324 375.881C976.778 375.846 980.249 375.829 983.738 375.846C983.824 381.239 987.14 387.359 983.479 392.165C978.989 399.649 974.499 407.134 969.939 414.584C971.01 401.671 972.271 388.776 973.324 375.881Z" fill="#363636" stroke="#363636" stroke-width="0.0938"/>
<path d="M732.515 411.282C741.721 411.23 751.304 407.859 760.164 411.558C767.469 413.822 774.55 417.193 782.251 417.884C788.969 418.559 795.705 419.215 802.44 419.924C810.297 427.133 818.414 434.065 826.203 441.376C818.259 438.438 810.521 434.963 802.509 432.232C794.806 430.503 787.035 429.016 779.23 427.876C771.631 427.702 764.067 428.498 756.485 428.498C752.79 425.714 749.318 422.586 745.381 420.149C738.75 419.163 731.997 419.215 725.331 418.61C715.401 417.641 705.66 420.442 695.851 421.462C707.82 417.298 719.598 411.403 732.515 411.282Z" fill="#CDB593" stroke="#CDB593" stroke-width="0.0938"/>
<path d="M704.729 426.183C708.442 422.553 713.934 422.484 718.804 422.691C726.748 423.157 734.761 422.276 742.654 423.624C749.078 424.368 752.705 430.988 759.147 431.835C767.73 433.011 776.52 432.372 785.052 434.29C794.343 435.586 802.476 440.53 811.095 443.884C815.395 445.594 819.626 447.548 823.546 450.038C821.75 452.199 819.903 454.325 818.038 456.416C814.653 454.29 810.767 453.719 806.847 453.805C805.05 452.457 803.289 451.126 801.528 449.777C799.421 450.504 797.349 451.229 795.259 451.939C792.427 449.777 789.629 447.548 786.969 445.18C786.036 445.907 784.154 447.323 783.222 448.033C777.764 446.529 772.307 445.111 766.85 443.642C766.383 442.795 765.451 441.136 764.984 440.289C762.187 440.41 759.389 440.496 756.609 440.583C754.969 439.303 753.345 438.042 751.739 436.78C744.261 437.592 736.8 436.141 729.323 436.538C728.494 434.464 727.664 432.39 726.853 430.333C725.367 431.767 723.9 433.219 722.449 434.689C715.453 435.863 707.267 433.408 704.729 426.183Z" fill="#CDB593" stroke="#CDB593" stroke-width="0.0938"/>
<path d="M694.402 429.432C710.808 434.48 723.381 447.029 738.526 454.6C751.461 457.833 764.5 460.633 777.486 463.623C785.43 464.401 793.427 463.347 801.405 463.381C811.992 463.606 822.215 460.426 832.594 458.835C824.34 466.32 815.963 473.666 807.778 481.22C794.652 481.272 781.528 481.445 768.402 481.168C757.09 479.059 745.865 476.294 734.709 473.493C726.696 467.945 719.252 461.531 711.826 455.222C705.299 447.167 697.442 439.648 694.402 429.432Z" fill="#CDB593" stroke="#CDB593" stroke-width="0.0938"/>
<path d="M607.294 501.427C608.02 503.518 608.727 505.645 609.418 507.772C611.957 516.19 614.513 524.608 616.844 533.095C622.111 545.697 629.399 557.329 635.512 569.516C638.776 576.327 644.872 581.029 650.001 586.353C663.868 599.508 676.147 614.511 691.983 625.419C706.542 635.928 720.634 647.233 736.556 655.651C747.919 655.824 759.542 655.357 770.163 650.862C784.41 644.743 798.053 637.345 811.662 629.947C821.592 624.709 829.19 616.274 836.996 608.392C855.44 589.672 871.518 568.825 888.097 548.48L890.084 546.406C888.961 557.625 886.526 568.704 883.002 579.404C877.304 594.927 870.569 610.052 864.006 625.211C857.529 639.611 851.831 654.562 842.211 667.25C829.483 684.726 816.479 702.306 800.488 716.964C795.842 722.012 788.606 721.061 782.441 721.234C757.003 720.715 731.599 718.675 706.386 715.409C694.574 714.009 682.433 712.47 671.863 706.645C661.364 701.01 649.24 695.6 643.834 684.226C628.896 655.826 615.081 626.82 602.249 597.418C599.814 591.212 596.412 584.989 596.878 578.127C597.655 564.869 599.918 551.767 601.524 538.594C603.408 526.198 605.152 513.787 607.294 501.427Z" fill="#CDB593" stroke="#CDB593" stroke-width="0.0938"/>
<path d="M577.279 540.493C585.551 537.26 594.083 534.737 602.389 531.59C602.182 533.336 601.732 536.845 601.525 538.591C599.919 551.763 597.657 564.865 596.879 578.124C596.413 584.986 599.815 591.209 602.25 597.414C615.082 626.817 628.897 655.823 643.835 684.223C649.241 695.597 661.364 701.007 671.864 706.642C682.434 712.467 694.574 714.006 706.387 715.406C731.6 718.672 757.004 720.712 782.442 721.23C788.608 721.057 795.844 722.008 800.489 716.961C816.481 702.303 829.484 684.723 842.212 667.247C851.831 654.56 857.53 639.608 864.007 625.208C870.569 610.049 877.304 594.924 883.003 579.401C884.783 578.071 886.63 576.826 888.495 575.581C903.987 604.397 919.892 632.987 935.434 661.768C938.595 668.008 945.537 670.514 951.184 673.937C985.5 693.66 1019.75 713.521 1054.04 733.296C1079.91 747.798 1104.45 764.53 1129.61 780.209C1162.79 801.246 1195.93 822.369 1229.14 843.354C1234.11 846.188 1235.96 851.876 1238.21 856.784C1252.82 890.457 1269.1 923.421 1282.49 957.629C1296.35 992.096 1310.53 1026.46 1324.23 1061C1331.41 1083.92 1337.58 1107.15 1344.36 1130.19C1364.02 1200.15 1386.03 1269.41 1407.07 1338.95C1411.3 1352.14 1414.72 1365.59 1419.56 1378.59C1427.05 1396.98 1434.68 1415.32 1442.21 1433.73C1417.31 1446.21 1392.42 1458.69 1367.49 1471.12C1361.93 1461.35 1356.19 1451.67 1349.87 1442.39C1340.87 1447.42 1331.51 1451.72 1322.03 1455.75L1321.86 1457.38C1321.31 1457.27 1320.2 1457.06 1319.65 1456.96C1316.77 1458.38 1313.88 1459.79 1310.96 1461.14C1291.59 1470.48 1271.28 1477.69 1251.64 1486.4C1223.89 1500.49 1196.17 1514.68 1168.47 1528.87C1167.54 1534.49 1165.57 1540.12 1166.54 1545.9C1159.42 1546.12 1152.31 1546.1 1145.19 1546.09C1138.61 1537.87 1129.42 1531.46 1125.04 1521.71C1110.38 1477.18 1096.32 1432.47 1081.43 1388.03C1079.58 1402.56 1078.29 1417.17 1076.62 1431.72C1075.63 1439.12 1079.53 1445.81 1082 1452.5C1098.58 1495.13 1114.99 1537.82 1131.53 1580.47C1134.11 1587.26 1137.92 1593.91 1137.7 1601.4H468.998C474.196 1601.07 479.411 1600.69 484.627 1600.45C485.992 1566.19 488.15 1531.95 488.581 1497.65C489.255 1464.79 489.842 1431.93 490.585 1399.07C491.137 1379.99 490.723 1360.75 486.871 1341.98C486.387 1336.86 481.121 1335.05 477.321 1332.83C480.309 1330.01 483.21 1327.15 486.077 1324.21C492.467 1328.67 499.927 1332.47 507.957 1331.67C512.326 1326.78 518.457 1323.98 523.051 1319.47C521.893 1304.05 509.218 1293.51 499.702 1282.69C492.431 1272.37 491.93 1259.28 489.737 1247.27C488.752 1240.02 483.054 1234.82 479.427 1228.84C481.189 1222.55 482.899 1216.24 484.608 1209.95C490.117 1206.09 495.471 1202.01 501.325 1198.73C507.3 1191 517.818 1183.93 515.642 1172.87C515.245 1162.64 505.263 1155.72 495.764 1155.1C486.18 1153.98 476.544 1156.21 467.011 1155.74C457.253 1148.55 448.463 1140.16 438.879 1132.75C433.663 1129.33 427.636 1127.25 421.678 1125.56C411.039 1124.63 400.851 1128.43 390.679 1130.85C378.055 1133.7 365.725 1138.3 352.703 1139.04C343.429 1139.87 334.155 1140.74 324.899 1141.62C320.202 1148.29 314.796 1154.48 310.565 1161.46C308.078 1168.19 306.887 1175.31 305.039 1182.24C300.1 1184.83 295.178 1187.44 290.239 1190.03C283.089 1205.82 288.564 1223.57 285.179 1240.06C281.363 1256.86 276.285 1273.54 275.318 1290.83C257.012 1299.95 239.087 1310.05 219.745 1316.91C215.238 1318.52 210.506 1319.83 205.688 1319.57C188.85 1318.52 172.133 1321.48 155.485 1323.53C140.375 1325.97 125.039 1327.73 110.497 1332.76C96.1296 1337.64 81.5878 1342.34 68.1005 1349.39C57.7389 1354.42 52.5061 1365.29 45.6151 1373.94C40.0544 1380.9 35.4774 1389.06 27.9826 1394.18C23.6134 1391.53 20.9366 1385.21 15.0991 1386.07C9.40049 1385.26 4.92739 1381.32 0.212402 1378.36C2.94124 1368.28 4.2017 1357.77 8.01808 1348.02C12.0424 1339.64 17.2921 1331.91 21.8342 1323.81C25.8235 1316.55 31.764 1309.69 31.712 1300.96C32.5236 1283.29 33.4732 1265.62 34.2849 1247.96C34.5098 1240.56 36.5819 1233.44 38.9309 1226.51C47.1164 1199.51 56.3215 1172.78 62.9187 1145.32C81.2939 1074.29 99.3922 1003.18 117.284 932.011C122.291 909.073 126.954 886.066 131.738 863.094C132.688 858.323 134.363 853.725 136.522 849.386C147.437 827.416 158.109 805.325 168.852 783.268C170.803 778.324 175.725 775.939 180.112 773.605C202.217 761.92 223.838 749.336 246.013 737.841C272.125 725.966 298.098 713.71 324.382 702.232C387.227 680.262 450.227 658.706 513.105 636.857C516.197 629.77 519.114 622.545 523.484 616.115C539.044 593.038 554.672 570.014 570.06 546.851C571.873 544.14 574.067 541.529 577.279 540.493ZM721.117 843.511C707.837 848.8 716.023 871.617 729.217 869.716C734.122 869.681 739.631 865.377 738.715 860.019C738.404 857.029 737.765 854.073 736.85 851.238C734.761 845.119 727.249 841.212 721.117 843.511ZM699.065 1037.33C693.797 1044.68 699.307 1053.65 704.712 1059.15C709.065 1059.43 714.055 1061.03 717.768 1057.82C723.76 1054.31 721.031 1046.46 719.512 1041.22C716.852 1033.01 704.28 1029.71 699.065 1037.33ZM409.59 1077.37C404.772 1078.61 399.142 1079.15 395.636 1083.04C394.082 1098.08 389.609 1112.63 388.849 1127.77C400.16 1125.46 411.455 1121.97 423.077 1121.88C433.681 1125.32 441.884 1133.6 450.95 1139.82C455.32 1119.46 457.271 1098.01 452.367 1077.56C438.673 1072.3 423.579 1074.65 409.59 1077.37ZM681.432 1255.69C680.967 1262.05 685.18 1267.27 689.135 1271.75C695.144 1273.11 703.469 1272.92 705.731 1265.89C706.232 1258.66 704.333 1249.34 696.665 1246.54C690.154 1243.24 681.553 1248.39 681.432 1255.69ZM664.37 1478.78C662.988 1485.66 667.512 1491.67 671.882 1496.46C677.892 1497.81 686.199 1497.64 688.478 1490.6C688.91 1483.5 687.183 1474.42 679.809 1471.41C673.782 1468.15 665.63 1472.07 664.37 1478.78Z" fill="#363636" stroke="#363636" stroke-width="0.0938"/>
<path d="M721.118 843.511C727.248 841.212 734.761 845.119 736.85 851.238C737.765 854.072 738.404 857.029 738.715 860.019C739.631 865.378 734.121 869.682 729.217 869.716C716.024 871.617 707.837 848.8 721.118 843.511Z" fill="#CDB593" stroke="#CDB593" stroke-width="0.0938"/>
<path d="M699.065 1037.33C704.28 1029.71 716.852 1033.01 719.512 1041.22C721.031 1046.46 723.76 1054.31 717.768 1057.82C714.054 1061.03 709.063 1059.43 704.712 1059.15C699.307 1053.65 693.797 1044.68 699.065 1037.33Z" fill="#CDB593" stroke="#CDB593" stroke-width="0.0938"/>
<path d="M409.59 1077.37C423.578 1074.65 438.673 1072.3 452.367 1077.56C457.272 1098.01 455.32 1119.46 450.951 1139.82C441.885 1133.6 433.681 1125.32 423.078 1121.88C411.456 1121.97 400.16 1125.46 388.849 1127.77C389.609 1112.63 394.082 1098.08 395.636 1083.04C399.143 1079.15 404.772 1078.61 409.59 1077.37Z" fill="#6A6A6A" stroke="#6A6A6A" stroke-width="0.0938"/>
<path d="M390.68 1130.85C400.851 1128.43 411.041 1124.63 421.679 1125.56C427.637 1127.26 433.664 1129.33 438.879 1132.75C448.464 1140.17 457.254 1148.55 467.011 1155.74C476.544 1156.21 486.18 1153.98 495.765 1155.1C505.263 1155.72 515.245 1162.64 515.643 1172.87C517.819 1183.93 507.301 1191.01 501.326 1198.73C495.471 1202.02 490.117 1206.09 484.609 1209.95C482.9 1216.24 481.189 1222.55 479.428 1228.84C483.054 1234.82 488.754 1240.03 489.738 1247.27C491.931 1259.28 492.432 1272.37 499.702 1282.69C509.218 1293.51 521.894 1304.05 523.051 1319.47C518.457 1323.98 512.327 1326.78 507.958 1331.68C499.927 1332.47 492.467 1328.67 486.077 1324.21C483.21 1327.15 480.309 1330.02 477.322 1332.83C468.567 1331.81 459.724 1332.7 450.951 1332.16C443.179 1331.62 435.581 1329.79 427.896 1328.68C419.813 1327.91 412.146 1331.26 404.219 1332.21C396.655 1331.78 389.159 1330.67 381.631 1329.86C380.871 1329.86 379.369 1329.86 378.626 1329.86C371.234 1330.69 363.826 1331.43 356.469 1332.45C353.689 1332.82 350.926 1333.21 348.145 1333.59C346.918 1335.44 345.693 1337.29 344.449 1339.16C340.823 1344.76 336.661 1350.08 333.656 1356.07C334.071 1380.47 338.803 1404.92 336.367 1429.39C326.281 1452.4 315.903 1475.68 300.308 1495.58C293.901 1503.67 286.199 1511.14 276.424 1514.92C262.436 1520.61 249.173 1527.83 235.806 1534.83C220.695 1542.04 205.688 1551.62 188.366 1551.57C168.557 1551.74 149.026 1547.94 129.476 1545.38C121.428 1544.27 113.346 1545.74 105.298 1545.52C97.7685 1545.36 91.2063 1541.09 85.1269 1537.12C71.9505 1528.13 59.3429 1518.17 48.2386 1506.68C43.2647 1501.71 40.381 1495.18 38.3089 1488.58C31.0899 1466.07 24.2518 1443.38 19.7438 1420.16C17.5157 1408.91 13.9412 1397.65 15.0977 1386.07C20.9353 1385.21 23.6121 1391.54 27.9813 1394.18C35.4761 1389.06 40.0531 1380.91 45.6137 1373.94C52.5048 1365.3 57.7366 1354.42 68.0992 1349.39C81.5864 1342.34 96.1282 1337.64 110.496 1332.77C125.037 1327.74 140.372 1325.97 155.484 1323.54C172.132 1321.48 188.849 1318.52 205.687 1319.58C210.505 1319.84 215.237 1318.52 219.744 1316.92C239.085 1310.05 257.012 1299.96 275.317 1290.83C276.285 1273.55 281.361 1256.86 285.178 1240.06C288.562 1223.57 283.088 1205.82 290.238 1190.04C295.176 1187.44 300.098 1184.83 305.037 1182.24C306.886 1175.31 308.077 1168.19 310.564 1161.46C314.795 1154.48 320.201 1148.29 324.898 1141.62C334.154 1140.74 343.428 1139.87 352.702 1139.04C365.725 1138.3 378.056 1133.7 390.68 1130.85Z" fill="#CDB593" stroke="#CDB593" stroke-width="0.0938"/>
<path d="M681.432 1255.69C681.553 1248.39 690.153 1243.24 696.664 1246.54C704.331 1249.34 706.23 1258.66 705.73 1265.89C703.468 1272.92 695.143 1273.11 689.134 1271.75C685.179 1267.27 680.965 1262.05 681.432 1255.69Z" fill="#CDB593" stroke="#CDB593" stroke-width="0.0938"/>
<path d="M404.219 1332.21C412.146 1331.26 419.814 1327.91 427.896 1328.69C420.366 1331.52 412.285 1333.3 404.219 1332.21Z" fill="#363636" stroke="#363636" stroke-width="0.0938"/>
<path d="M427.897 1328.68C435.581 1329.79 443.18 1331.62 450.952 1332.16C459.725 1332.7 468.567 1331.81 477.323 1332.83C481.122 1335.05 486.389 1336.86 486.873 1341.98C490.724 1360.75 491.138 1379.99 490.586 1399.07C489.843 1431.93 489.257 1464.79 488.583 1497.65C488.151 1531.95 485.992 1566.19 484.629 1600.45C479.413 1600.69 474.198 1601.07 468.999 1601.4H331.342C331.981 1544.05 335.797 1486.75 336.368 1429.39C338.803 1404.92 334.071 1380.47 333.657 1356.07C336.662 1350.08 340.824 1344.76 344.45 1339.16C348.405 1336.84 352.394 1334.56 356.47 1332.45C363.827 1331.43 371.236 1330.69 378.627 1329.86C379.628 1332.52 380.613 1332.52 381.631 1329.86C389.161 1330.67 396.656 1331.78 404.22 1332.21C412.285 1333.3 420.367 1331.52 427.897 1328.68Z" fill="#6A6A6A" stroke="#6A6A6A" stroke-width="0.0938"/>
<path d="M378.626 1329.86C379.369 1329.86 380.871 1329.86 381.631 1329.86C380.612 1332.52 379.628 1332.52 378.626 1329.86Z" fill="#2F2F2F" stroke="#2F2F2F" stroke-width="0.0938"/>
<path d="M348.146 1333.59C350.926 1333.21 353.689 1332.82 356.47 1332.45C352.395 1334.56 348.406 1336.84 344.45 1339.16C345.693 1337.29 346.919 1335.44 348.146 1333.59Z" fill="#363636" stroke="#363636" stroke-width="0.0938"/>
<path d="M1322.03 1455.75C1331.51 1451.72 1340.87 1447.42 1349.87 1442.39C1356.19 1451.67 1361.93 1461.35 1367.49 1471.12C1372.98 1481.06 1379.44 1490.48 1383.93 1500.95C1398.07 1533.33 1412.48 1565.58 1426.67 1597.93C1345.83 1598.34 1264.98 1598.39 1184.12 1598.91C1178.14 1581.28 1173.08 1563.32 1166.54 1545.9C1165.57 1540.12 1167.54 1534.49 1168.47 1528.87C1196.17 1514.68 1223.89 1500.49 1251.64 1486.4C1271.28 1477.69 1291.59 1470.48 1310.96 1461.14C1313.88 1459.79 1316.77 1458.38 1319.65 1456.96C1320.2 1457.06 1321.31 1457.27 1321.86 1457.38L1322.03 1455.75Z" fill="#CDB593" stroke="#CDB593" stroke-width="0.0938"/>
<path d="M664.37 1478.78C665.63 1472.07 673.782 1468.15 679.809 1471.41C687.183 1474.42 688.91 1483.5 688.478 1490.6C686.198 1497.64 677.892 1497.81 671.882 1496.46C667.513 1491.67 662.988 1485.66 664.37 1478.78Z" fill="#CDB593" stroke="#CDB593" stroke-width="0.0938"/>
</svg>
