<svg width="1404" height="1235" viewBox="0 0 1404 1235" fill="none" xmlns="http://www.w3.org/2000/svg">
<g filter="url(#filter0_d_6_100)">
<path d="M1193.83 51.0469C1209.57 45.9573 1225.25 38.5861 1236.4 26C1237.57 35.8867 1237.07 46.1161 1233.6 55.518C1228.4 69.8842 1219.18 82.3283 1209.81 94.2207C1216.53 92.7331 1223.41 91.8556 1230 89.7746C1252.38 83.1891 1274.72 76.5116 1297.1 69.9428C1306.08 85.8133 1308.09 104.408 1309.28 122.285C1310.17 142.025 1309.42 161.815 1307.55 181.479C1305.56 202.08 1302.97 222.723 1297.41 242.697C1289.81 271.429 1276.08 298.147 1269.35 327.139C1290.58 344.146 1307.38 366.109 1320.8 389.635C1337.93 419.78 1349.81 452.657 1358.49 486.153C1368.19 524.02 1373.73 562.89 1376.11 601.886C1378.57 642.569 1377.48 683.47 1372.82 723.961C1369.04 756.354 1362.97 788.529 1353.71 819.811C1351.93 825.235 1350.69 830.884 1348.23 836.057C1343.24 818.357 1337.85 800.764 1331.91 783.356C1331.62 782.52 1331.34 781.701 1331.09 780.899C1330.28 778.392 1329.42 775.91 1328.54 773.444C1326.89 768.706 1325.44 763.884 1323.49 759.27C1321.71 753.905 1319.83 748.59 1317.59 743.408C1316.88 741.143 1316.07 738.92 1315.06 736.789C1314.33 734.516 1313.53 732.276 1312.58 730.103C1312.03 728.699 1311.48 727.312 1310.91 725.941C1305.65 712.728 1300.22 699.566 1294.18 686.695C1292.85 682.926 1290.87 679.45 1289.14 675.881C1288.57 674.736 1288.03 673.6 1287.49 672.471C1284.57 665.635 1281.27 658.899 1277.49 652.497C1276.91 651.369 1276.34 650.249 1275.78 649.138C1273.88 645.502 1272.3 641.683 1269.97 638.298C1268.69 635.724 1267.41 633.15 1265.84 630.76C1265.05 629.331 1264.22 627.944 1263.3 626.623C1262.3 624.601 1261.27 622.603 1260 620.756C1259.02 619.026 1258.01 617.33 1256.96 615.658C1256.05 614.154 1255.18 612.65 1254.32 611.145C1254.06 610.886 1253.54 610.368 1253.28 610.101C1252.05 607.201 1250.09 604.727 1248.42 602.103C1245.63 597.899 1242.72 593.771 1240.11 589.467C1239.86 589.191 1239.36 588.631 1239.1 588.347C1237.68 585.84 1235.89 583.583 1234.23 581.243C1231.08 576.655 1227.61 572.309 1224.2 567.93C1222.34 565.331 1220.14 563.007 1218.4 560.341C1216.88 558.753 1215.27 557.232 1214.19 555.31C1211.43 552.669 1209.49 549.318 1206.64 546.769C1204.13 544.471 1202.5 541.404 1199.93 539.172C1191.09 530.765 1183.02 521.505 1173.62 513.733C1165.07 506.161 1156.13 498.965 1146.67 492.547C1146.39 492.304 1145.83 491.828 1145.55 491.586C1142.08 489.496 1138.75 487.181 1135.42 484.9C1132.3 482.944 1129.17 481.005 1125.96 479.209C1124.62 478.323 1123.24 477.504 1121.85 476.726C1120.67 476.192 1119.48 475.665 1118.31 475.147C1118.02 474.863 1117.45 474.294 1117.16 474.002C1111.42 471.445 1106.04 468.093 1100.14 465.912C1097.67 464.7 1095.22 463.488 1092.65 462.527C1091.26 461.959 1089.88 461.399 1088.49 460.873C1052.88 446.648 1014.27 440.389 976 441.174C922.112 442.378 869.119 456.109 819.192 475.882C810.542 479.158 802.068 482.852 793.552 486.429L793.476 486.772C790.928 487.566 788.537 488.753 786.097 489.797L785.921 490.115C781.417 491.653 777.238 493.993 773.026 496.174C772.708 496.149 772.073 496.099 771.756 496.074L771.731 497.277C771.321 497.152 770.494 496.884 770.076 496.759L770.134 497.611C763.683 499.876 757.858 503.587 751.69 506.495V507.297C751.272 507.172 750.445 506.921 750.035 506.796L750.027 508.091C749.626 507.991 748.807 507.774 748.397 507.673L748.339 508.894C747.946 508.81 747.16 508.635 746.767 508.551L746.65 509.337C742.405 511.2 738.393 513.549 734.282 515.688L734.098 516.106C732.56 516.649 731.039 517.209 729.501 517.711C731.273 510.356 733.947 503.236 735.61 495.848C738.276 484.892 741.11 473.734 740.575 462.369C740.332 455.9 737.374 449.147 731.557 445.88C727.044 444.049 722.038 443.23 717.224 444.175C705.499 445.412 694.233 449.08 683.035 452.557C646.839 464.048 610.435 476.517 572.325 479.585C567.846 479.66 563.442 480.604 558.962 480.429C553.388 480.22 547.88 481.306 542.314 481.231C536.163 481.39 529.979 481.173 523.861 481.95C514.125 482.292 504.355 481.824 494.652 482.752C476.525 483.253 458.357 482.593 440.263 483.721C422.729 483.663 405.196 483.855 387.662 484.047C376.806 485.05 365.883 484.281 355.019 484.875C347.597 485.869 340.067 485 332.646 485.944C298.172 487.75 263.28 491.084 230.328 502.066C220.09 505.852 209.961 510.047 200.575 515.671C197.441 517.527 194.475 519.65 191.399 521.588C188.081 523.878 184.897 526.36 181.788 528.926C163.778 543.618 150.415 563.25 140.394 584.059C128.452 609.123 120.847 636.008 114.972 663.069C103.347 718.177 98.4742 774.447 94.8722 830.566C94.2371 829.915 93.744 829.179 93.4013 828.377C84.5593 803.589 75.734 778.801 66.6579 754.105C66.3487 753.27 66.0478 752.451 65.7386 751.64C64.719 748.539 63.6911 745.439 62.379 742.455C58.9107 732.193 54.9493 722.114 51.2638 711.943C37.0313 669.713 28.4316 625.495 26.4927 580.975C25.6486 568.18 26.125 555.319 26.2169 542.498C26.9691 536.983 26.71 531.392 27.3702 525.876C29.9777 491.051 37.2068 456.543 49.0157 423.657C49.9433 421.476 50.7623 419.262 51.5228 417.022C52.1079 415.634 52.6762 414.239 53.2444 412.851C53.796 411.456 54.3476 410.068 54.8908 408.681C55.7684 406.751 56.6208 404.812 57.398 402.848C58.9191 399.547 60.4902 396.279 61.9611 392.969C76.4109 363.176 95.2065 335.404 118.181 311.519C138.94 289.731 163.001 271.153 189.076 256.152C196.815 251.614 204.896 247.703 213.137 244.176C224.494 239.262 236.704 234.891 245.379 225.648C250.594 220.55 254.188 214.165 257.739 207.888C275.24 183.368 297.37 162.333 322.024 145.108C348.909 126.304 378.703 111.946 409.508 100.814C443.857 88.4457 479.517 79.9797 515.471 73.8454C583.666 62.3709 652.932 59.1115 721.98 58.5766C818.122 58.0334 914.131 63.8167 1010.22 65.8475C1050.94 66.3907 1091.76 66.5746 1132.33 62.655C1153.09 60.5073 1173.89 57.3733 1193.83 51.0469Z" fill="white"/>
<path d="M214.633 862.801C259.729 860.728 304.875 859.591 350.021 859.358C372.87 858.923 395.719 859.475 418.559 859.734C458.95 860.478 499.383 861.84 539.565 866.127C557.575 868.024 575.46 871.501 592.584 877.434C610.686 883.493 627.776 892.143 645.703 898.662C677.619 910.613 713.372 912.092 746.108 902.523C763.95 897.4 780.64 889.135 797.856 882.323C813.559 876.064 829.865 871.233 846.571 868.517C865.091 865.584 883.811 864.13 902.506 862.851C946.441 860.043 990.475 859.458 1034.49 859.207C1121.79 859.575 1209.15 862.099 1296.11 870.047C1323.36 872.813 1350.64 875.897 1377.4 881.881C1376.29 918.435 1375.38 955.057 1371.48 991.445C1370.29 1000.61 1369.13 1009.87 1366.2 1018.68C1364.67 1023.08 1362.43 1027.74 1358.08 1029.95C1353.73 1031.94 1348.77 1031.66 1344.28 1033.2C1337.11 1035.42 1331.68 1041.07 1327.4 1047C1320.35 1056.89 1315.37 1068.06 1310.83 1079.26C1305.59 1092.2 1301.75 1105.64 1297.72 1118.99C1293.85 1131.76 1289.24 1144.56 1281.43 1155.51C1275.74 1163.3 1269.18 1170.84 1260.65 1175.59C1257.02 1177.7 1253.2 1179.41 1249.4 1181.17C1224.35 1191.09 1197.61 1195.66 1171.07 1199.53C1133.58 1204.7 1095.76 1207.23 1057.93 1207.75C1047.06 1208.23 1036.16 1208.19 1025.3 1207.8C984.734 1207.2 944.075 1204.46 904.136 1197.09C886.176 1193.65 868.275 1189.28 851.376 1182.18C840.244 1177.37 829.045 1171.34 821.499 1161.56C811.253 1147.44 803.531 1131.61 797.655 1115.23C792.014 1099.71 787.902 1083.66 781.893 1068.27C777.222 1056.29 771.012 1044.76 762.454 1035.1C757.331 1030.11 752.584 1024.65 746.659 1020.57C745.514 1019.76 744.419 1018.92 743.324 1018.07C740.934 1016.2 738.327 1014.65 735.778 1013.03C733.881 1011.73 731.883 1010.6 729.844 1009.58C724.002 1005.88 717.601 1003.18 711.333 1000.3C705.959 1000.18 700.577 1000.27 695.203 1000.21C692.211 999.978 689.62 1001.67 686.954 1002.74C682.558 1004.9 678.045 1006.9 673.909 1009.56C671.903 1010.57 669.956 1011.67 668.05 1012.85C662.267 1016.33 656.835 1020.39 651.695 1024.77C646.238 1030.21 640.362 1035.35 636.025 1041.78C627.935 1052.85 622.494 1065.57 618.115 1078.5C612.583 1094.73 608.137 1111.36 601.401 1127.17C596.161 1139.47 589.784 1151.35 581.836 1162.13C573.186 1172.89 560.4 1179.16 547.855 1184.21C529.528 1191.38 510.172 1195.48 490.817 1198.73C449.298 1205.64 407.152 1207.63 365.123 1208.07C322.442 1207.85 279.703 1205.78 237.373 1200.09C216.989 1197.33 196.673 1193.77 176.807 1188.41C163.202 1184.51 149.329 1180.22 137.612 1172.02C125.026 1161.93 116.058 1147.89 110.567 1132.83C104.567 1116.4 100.672 1099.26 94.3291 1082.95C89.0306 1069.44 83.3059 1055.78 74.1379 1044.38C70.6863 1039.6 65.7137 1036.11 60.3567 1033.77C55.1668 1032.2 49.7178 1031.89 44.553 1030.24C42.3467 1028.25 40.3994 1025.99 38.8283 1023.48C37.583 1020.14 36.2542 1016.82 35.4686 1013.33C32.3931 998.933 30.8554 984.258 29.9528 969.59C29.1003 964.71 29.6436 959.721 28.8162 954.848C28.3064 949.85 28.8078 944.794 28.0055 939.822C27.5626 933.595 27.8551 927.344 27.5292 921.118C26.8857 913.622 27.1197 906.092 26.7854 898.587C26.6182 893.012 26.3006 887.438 26.3591 881.855C46.7761 877.326 67.5022 874.442 88.2701 872.111C130.266 867.456 172.445 864.806 214.633 862.801ZM241.376 889.352C221.093 890.681 200.693 893.129 181.295 899.464C171.275 902.682 161.723 907.328 153.098 913.354L153.207 913.713C150.942 914.984 148.844 916.547 147.031 918.402C144.147 921.327 140.93 923.993 138.64 927.445C136.86 929.45 135.18 931.556 133.717 933.821C123.747 948.547 119.334 966.289 117.571 983.789C115.473 1005.38 117.078 1027.17 120.053 1048.61C124.04 1076.67 132.029 1105 148.861 1128.22C158.188 1141.12 170.306 1151.96 184.087 1159.93C210.12 1174.95 240.29 1180.6 269.875 1183.44C292.063 1185.56 314.377 1186.02 336.658 1186.06C360.459 1185.99 384.261 1186 408.054 1185.2C428.07 1184.79 448.103 1183.76 468.001 1181.51C485.042 1179.43 502.124 1176.42 518.187 1170.18C530.13 1165.56 541.487 1159.09 550.839 1150.27C563.91 1138.42 572.961 1122.84 579.538 1106.63C585.363 1091.98 589.776 1076.77 593.018 1061.35C593.67 1058.85 594.255 1056.36 594.673 1053.82C598.25 1036.22 601.635 1018.52 602.496 1000.55C602.379 983.079 599.479 965.161 590.737 949.775C590.219 948.981 589.709 948.204 589.224 947.435C586.692 942.889 583.483 938.744 579.772 935.108C578.201 932.568 576.17 930.211 573.504 928.799L573.73 928.556C571.975 927.202 570.37 925.631 568.423 924.578L568.824 924.202C567.612 923.5 566.417 922.806 565.205 922.146L565.306 921.72C559.982 918.201 554.558 914.8 548.775 912.067C546.301 910.881 543.819 909.727 541.295 908.674C539.891 908.114 538.495 907.563 537.108 907.019C513.641 898.052 488.602 894.107 463.706 891.625C443.122 889.795 422.471 888.809 401.803 888.8C392.911 888.257 384.002 888.525 375.102 888.391C350.03 888.358 324.949 888.174 299.877 888.065C280.363 888.04 260.84 887.99 241.376 889.352ZM918.343 894.233C900.801 896.982 883.268 900.593 866.678 907.053C865.274 907.588 863.879 908.147 862.492 908.716C859.366 909.978 856.34 911.449 853.332 912.961C846.404 916.212 840.177 920.658 834.068 925.196C833.124 926.04 832.221 926.91 831.319 927.787C828.853 929.617 826.555 931.665 824.432 933.88C824.324 934.231 824.115 934.941 824.006 935.292C821.8 936.546 820.346 938.652 818.975 940.724L818.632 940.774C813.175 948.238 808.746 956.478 805.979 965.311C800.079 983.48 800.196 1003.03 802.87 1021.77C805.378 1037.72 808.336 1053.61 812.189 1069.28C816.192 1085.46 821.139 1101.5 828.394 1116.55C834.921 1129.99 843.529 1142.66 854.97 1152.41C863.962 1160.22 874.518 1166.1 885.624 1170.32C901.971 1176.54 919.321 1179.58 936.629 1181.62C956.068 1183.77 975.624 1184.78 995.172 1185.18C1019.41 1186.01 1043.67 1185.99 1067.91 1186.06C1088.77 1186.03 1109.63 1185.56 1130.42 1183.76C1157.86 1181.29 1185.69 1176.67 1210.69 1164.55C1233.01 1153.89 1251.9 1136.04 1263.42 1114.12C1265.01 1111.31 1266.62 1108.48 1267.55 1105.38L1267.93 1105.35C1278.78 1080.79 1283.44 1054.05 1285.71 1027.45C1286.72 1021.34 1286.01 1015.12 1286.83 1008.99C1287.12 1004.61 1287.12 1000.19 1286.6 995.824C1286.04 979.068 1283.54 961.994 1276.62 946.599C1275.53 943.315 1273.79 940.331 1272 937.406C1267.75 929.968 1262.14 923.391 1255.78 917.7C1254.95 917.19 1254.18 916.647 1253.52 915.987C1250.13 913.011 1246.33 910.554 1242.52 908.147C1242.33 908.139 1241.95 908.114 1241.76 908.106C1238.98 906.066 1235.8 904.688 1232.67 903.317C1217.77 896.898 1201.74 893.597 1185.72 891.508C1163.84 888.8 1141.76 888.09 1119.72 888.065C1095.23 887.998 1070.72 888.282 1046.22 888.349C1003.55 888.558 960.69 888.224 918.343 894.233Z" fill="white"/>
</g>
<defs>
<filter id="filter0_d_6_100" x="0" y="0" width="1403.4" height="1234.1" filterUnits="userSpaceOnUse" color-interpolation-filters="sRGB">
<feFlood flood-opacity="0" result="BackgroundImageFix"/>
<feColorMatrix in="SourceAlpha" type="matrix" values="0 0 0 0 0 0 0 0 0 0 0 0 0 0 0 0 0 0 127 0" result="hardAlpha"/>
<feOffset/>
<feGaussianBlur stdDeviation="13"/>
<feColorMatrix type="matrix" values="0 0 0 0 1 0 0 0 0 1 0 0 0 0 1 0 0 0 1 0"/>
<feBlend mode="normal" in2="BackgroundImageFix" result="effect1_dropShadow_6_100"/>
<feBlend mode="normal" in="SourceGraphic" in2="effect1_dropShadow_6_100" result="shape"/>
</filter>
</defs>
</svg>
