<svg width="1443" height="1601" viewBox="0 0 1443 1601" fill="none" xmlns="http://www.w3.org/2000/svg">
<path d="M797.406 3.33906C809.344 -1.03194 822.25 1.23106 834.655 0.747061C845.367 1.12706 856.545 -0.841942 866.825 3.07906C879.282 7.46706 891.739 11.8731 904.316 15.9681C907.84 17.2811 911.78 18.3181 914.268 21.3761C931.165 42.6611 947.319 64.5511 962.505 87.0981C958.479 94.0261 954.488 100.954 950.446 107.848C962.523 112.478 974.616 117.057 986.693 121.687C990.148 130.274 993.638 138.843 996.956 147.499C991.03 143.525 985.674 138.653 979.282 135.422C972.354 134.247 965.27 135.992 958.342 136.407C967.153 141.849 976.068 147.136 984.966 152.475C993.449 157.226 998.77 165.623 1004.89 172.896C1003.11 184.593 1000.51 196.203 999.34 207.986C999.478 220.374 1007.08 231.621 1006.08 244.164C1005.27 253.424 1004.06 262.65 1003.23 271.928C1002.21 284.972 996.282 296.859 992.55 309.229C987.108 326.731 979.126 343.282 972.388 360.3C969.745 360.542 967.118 360.801 964.492 361.06C953.141 399.277 941.185 437.355 928.452 475.14C924.737 484.4 922.405 494.317 916.859 502.749C907.236 517.797 898.597 533.468 888.456 548.188C871.87 568.523 855.785 589.359 837.333 608.07C829.524 615.948 821.922 624.38 811.988 629.614C798.374 637.009 784.725 644.403 770.471 650.519C759.846 655.011 748.218 655.477 736.85 655.305C720.921 646.891 706.823 635.592 692.258 625.088C676.415 614.186 664.131 599.19 650.258 586.042C645.127 580.721 639.028 576.021 635.763 569.214C629.647 557.034 622.356 545.406 617.087 532.811C614.755 524.328 612.198 515.914 609.658 507.5C610.332 489.618 601.883 472.946 602.056 455.099C601.987 443.005 601.33 430.894 601.624 418.8C604.406 388.945 608.984 359.263 612.854 329.53C615.031 350.642 616.724 371.807 618.728 392.954C632.74 403.873 646.751 414.827 660.763 425.746C663.078 419.025 665.376 412.287 667.708 405.584C679.076 398.5 689.252 389.05 702.297 385.128C710.538 382.45 718.468 377.578 727.435 378.355C742.898 378.821 758.378 377.284 773.824 378.407C782.877 380.86 792.224 382.882 800.776 386.873C824.791 401.109 848.702 415.518 872.7 429.806C870.748 446.098 868.847 462.39 866.895 478.7C871.715 475.245 876.518 471.806 881.339 468.351C886.297 470.649 891.291 472.947 896.266 475.262C908.377 458.037 921.594 441.624 933.532 424.278C937.817 417.747 943.708 412.029 945.902 404.34C950.411 389.637 955.093 374.986 959.706 360.335C962.539 352.388 960.293 343.939 960.656 335.75C960.898 329.928 963.472 324.52 964.025 318.732C964.474 313.532 964.232 308.331 964.25 303.131C962.073 302.82 959.913 302.509 957.771 302.198C955.56 322.568 945.712 341.175 934.153 357.726C928.4 362.84 921.99 367.401 915.304 371.219C897.751 372.463 879.99 370.148 863.3 364.585C850.239 362.08 838.663 353.735 831.476 342.66C826.69 336.112 826.137 327.698 823.684 320.2C820.902 311.838 821.887 302.958 821.732 294.319C821.525 285.922 823.114 277.664 824.341 269.406C818.536 267.488 812.886 265.035 806.96 263.601C800.412 262.461 793.76 262.271 787.161 261.631C784.414 270.65 781.529 279.651 779.887 288.963C778.781 297.55 772.441 303.942 768.035 311.008C760.053 320.787 750.119 329.754 737.731 333.244C729.697 333.71 721.646 334.211 713.612 333.918C697.251 330.808 680.647 326.575 666.48 317.522C658.705 309.54 652.589 299.917 649.67 289.101C646.957 271.755 650.707 254.391 654.145 237.425C650.068 238.012 646.007 238.6 641.947 239.222C636.522 247.308 628.626 254.063 626.035 263.738C621.197 279.132 615.859 294.37 611.142 309.799C610.295 304.357 610.244 298.5 607.255 293.697C605.044 290.777 600.862 291.52 597.753 291.572L597.096 290.933C595.956 288.756 595.282 286.458 595.075 284.022C594.056 266.175 591.602 248.241 594.643 230.429C597.114 215.968 594.574 199.918 602.746 186.977C611.246 171.808 619.401 156.431 627.677 141.141C631.478 133.729 638.095 128.529 643.952 122.845C654.733 112.479 665.531 102.13 676.26 91.7121C674.809 91.6771 671.923 91.6081 670.489 91.5571C675.897 82.4691 678.143 70.5481 687.818 64.7781C706.926 52.3041 725.655 39.2601 744.055 25.7661C748.823 22.1551 753.972 19.0281 759.656 17.0411C772.216 12.4441 784.742 7.72706 797.406 3.33906ZM801.933 75.2981C786.263 77.5961 770.679 80.6021 755.302 84.3511C743.122 88.4631 731.995 95.0631 720.558 100.799C711.038 106.172 700.862 110.595 692.172 117.316C680.406 128.252 669.764 140.554 661.73 154.513C656.322 165.968 653.817 178.459 650.828 190.691C646.336 202.318 635.901 210.404 630.458 221.496C628.281 230.411 628.644 239.758 627.555 248.863C633.412 238.929 638.232 227.077 649.099 221.634C655.232 219.803 662.074 220.96 667.879 217.937C671.525 216.348 674.859 213.635 679.005 213.514C687.125 212.892 695.228 211.614 703.4 211.579C714.958 212.356 726.413 214.24 737.85 216.088C751.775 218.161 763.817 225.97 776.291 231.948C783.945 235.593 787.677 243.524 789.94 251.246C803.088 252.611 815.769 256.239 828.26 260.437C831.076 256.446 833.27 251.349 837.987 249.224C842.565 247.773 847.438 247.289 852.223 246.909C868.429 247.341 884.531 249.57 900.391 252.852C920.709 256.774 939.23 267.762 953.967 282.05C957.163 285.177 961.915 285.194 965.957 286.438C965.646 265.412 966.544 244.351 965.853 223.325C961.948 207.085 957.094 191.034 952.532 174.967C947.833 165.171 940.352 157.016 934.426 147.946C926.859 137.77 921.382 125.624 910.929 117.936C898.731 108.71 887.156 98.4651 873.421 91.5021C863.504 86.6131 853.898 80.8591 843.342 77.4211C829.749 74.7101 815.737 74.5371 801.933 75.2981ZM678.229 219.595C670.541 221.115 662.697 226.022 660.399 233.918C657.099 244.578 654.663 255.583 653.678 266.727C653.194 280.704 654.317 295.839 662.576 307.656C667.12 314.48 675.275 317.141 682.635 319.784C699.86 325.537 718.381 329.718 736.557 326.436C744.332 324.933 752.331 322.099 757.635 315.932C769.245 302.992 774.636 286.146 780.423 270.113C782.686 263.202 786.038 255.255 782.393 248.24C776.605 239.342 766.809 234.004 756.789 231.239C731.805 222.083 704.922 215.708 678.229 219.595ZM843.605 256.845C837.178 260.37 830.388 265.864 829.559 273.656C827.002 283.798 826.501 294.319 826.726 304.72C829.266 319.164 831.805 334.592 841.342 346.323C847.51 352.318 855.319 356.983 863.785 358.883C879.075 362.736 894.676 366.83 910.606 365.811C916.307 364.999 922.579 363.029 925.862 357.898C931.771 349.415 938.612 341.502 943.467 332.363C947.095 322.809 949.963 312.909 951.605 302.837C951.657 295.356 950.517 286.597 944.09 281.776C935.02 274.623 925.69 266.71 914.011 264.482C899.792 261.286 885.366 259.161 871.043 256.517C861.97 255.549 852.503 254.495 843.605 256.845ZM732.807 411.059C719.884 411.18 708.101 417.071 696.128 421.235C705.941 420.216 715.686 417.417 725.62 418.384C732.289 418.989 739.044 418.937 745.679 419.922C749.618 422.358 753.091 425.485 756.788 428.267C764.373 428.267 771.94 427.472 779.542 427.645C787.351 428.785 795.126 430.271 802.831 431.999C810.848 434.729 818.588 438.201 826.535 441.139C818.743 433.831 810.623 426.903 802.762 419.698C796.024 418.99 789.286 418.333 782.565 417.659C774.859 416.968 767.776 413.599 760.468 411.336C751.605 407.638 742.016 411.007 732.807 411.059ZM705.009 425.952C707.549 433.174 715.738 435.627 722.735 434.452C724.186 432.983 725.655 431.532 727.141 430.098C727.953 432.154 728.782 434.227 729.612 436.3C737.093 435.903 744.557 437.354 752.038 436.542C753.645 437.803 755.269 439.064 756.91 440.343C759.692 440.257 762.49 440.17 765.289 440.049C765.755 440.896 766.688 442.554 767.155 443.401C772.614 444.87 778.074 446.286 783.534 447.789C784.467 447.081 786.35 445.664 787.283 444.938C789.944 447.305 792.743 449.534 795.576 451.693C797.667 450.985 799.74 450.259 801.848 449.533C803.61 450.881 805.373 452.211 807.169 453.559C811.091 453.473 814.978 454.043 818.365 456.168C820.231 454.077 822.08 451.952 823.876 449.793C819.954 447.305 815.721 445.353 811.419 443.642C802.798 440.29 794.66 435.349 785.365 434.053C776.83 432.135 768.036 432.774 759.449 431.6C753.005 430.753 749.377 424.136 742.949 423.393C735.053 422.045 727.037 422.927 719.089 422.46C714.217 422.255 708.723 422.324 705.009 425.952ZM694.677 429.2C697.718 439.411 705.579 446.926 712.109 454.977C719.538 461.283 726.985 467.693 735.001 473.239C746.162 476.038 757.392 478.802 768.709 480.91C781.839 481.186 794.97 481.014 808.101 480.962C816.29 473.412 824.67 466.069 832.928 458.588C822.545 460.177 812.316 463.356 801.726 463.132C793.744 463.097 785.745 464.151 777.797 463.374C764.805 460.385 751.761 457.586 738.82 454.355C723.668 446.788 711.09 434.245 694.677 429.2Z" fill="#363636" stroke="#363636" stroke-width="0.0938"/>
<path d="M801.933 75.2981C815.737 74.5381 829.749 74.7111 843.346 77.4231C853.902 80.8611 863.508 86.6141 873.425 91.5041C887.16 98.4671 898.736 108.712 910.933 117.938C921.386 125.626 926.862 137.772 934.43 147.948C940.356 157.018 947.837 165.173 952.536 174.969C957.097 191.037 961.952 207.087 965.857 223.327C966.548 244.353 965.65 265.414 965.961 286.44C961.918 285.196 957.167 285.179 953.971 282.052C939.234 267.764 920.713 256.776 900.395 252.854C884.535 249.571 868.432 247.343 852.227 246.911C847.441 247.291 842.569 247.775 837.991 249.226C833.274 251.351 831.08 256.448 828.264 260.439C815.773 256.241 803.091 252.612 789.944 251.248C787.681 243.525 783.949 235.595 776.295 231.95C763.821 225.972 751.779 218.163 737.854 216.09C726.417 214.241 714.962 212.358 703.404 211.581C695.232 211.616 687.129 212.894 679.009 213.516C674.863 213.637 671.528 216.349 667.883 217.939C662.078 220.962 655.236 219.805 649.103 221.636C638.236 227.078 633.415 238.93 627.559 248.865C628.647 239.76 628.285 230.413 630.462 221.498C635.904 210.406 646.34 202.321 650.832 190.693C653.821 178.461 656.326 165.97 661.734 154.515C669.768 140.555 680.41 128.254 692.176 117.318C700.866 110.597 711.043 106.174 720.562 100.801C731.999 95.0651 743.126 88.4651 755.306 84.3531C770.679 80.6021 786.262 77.5951 801.933 75.2981Z" fill="#CDB593" stroke="#CDB593" stroke-width="0.0938"/>
<path d="M678.229 219.595C704.922 215.708 731.805 222.083 756.788 231.24C766.809 234.004 776.605 239.343 782.392 248.241C786.037 255.255 782.686 263.203 780.422 270.114C774.634 286.147 769.244 302.992 757.634 315.933C752.33 322.101 744.331 324.934 736.556 326.437C718.381 329.72 699.86 325.539 682.634 319.785C675.274 317.142 667.119 314.481 662.575 307.657C654.317 295.84 653.194 280.705 653.677 266.728C654.662 255.584 657.098 244.579 660.398 233.919C662.697 226.022 670.541 221.116 678.229 219.595Z" fill="#CDB593" stroke="#CDB593" stroke-width="0.0938"/>
<path d="M641.948 239.222C646.008 238.6 650.068 238.013 654.146 237.425C650.708 254.391 646.959 271.754 649.671 289.101C652.591 299.916 658.707 309.54 666.481 317.522C680.648 326.575 697.251 330.808 713.613 333.918C721.647 334.212 729.698 333.711 737.732 333.244C750.12 329.754 760.054 320.787 768.036 311.008C772.442 303.942 778.782 297.549 779.888 288.963C781.529 279.651 784.415 270.649 787.162 261.631C793.762 262.27 800.413 262.46 806.961 263.601C812.887 265.035 818.537 267.488 824.342 269.406C823.115 277.664 821.526 285.923 821.733 294.319C821.889 302.957 820.904 311.838 823.685 320.2C826.138 327.698 826.691 336.112 831.477 342.66C838.664 353.735 850.24 362.079 863.301 364.585C879.991 370.148 897.751 372.463 915.305 371.219C921.991 367.401 928.401 362.84 934.154 357.726C945.712 341.175 955.56 322.567 957.772 302.198C959.914 302.509 962.074 302.82 964.251 303.131C964.234 308.331 964.476 313.532 964.026 318.732C963.473 324.52 960.899 329.927 960.657 335.75C960.294 343.939 962.54 352.388 959.707 360.335C955.094 374.986 950.412 389.637 945.903 404.34C943.709 412.028 937.817 417.747 933.533 424.278C921.595 441.624 908.378 458.037 896.267 475.262C891.291 472.947 886.298 470.649 881.34 468.351C876.52 471.806 871.717 475.244 866.896 478.7C868.848 462.39 870.749 446.098 872.701 429.806C848.703 415.518 824.792 401.109 800.777 386.873C792.225 382.882 782.878 380.861 773.825 378.407C758.379 377.284 742.899 378.822 727.436 378.355C718.469 377.578 710.539 382.45 702.298 385.128C689.254 389.05 679.078 398.5 667.709 405.584C665.377 412.287 663.079 419.026 660.764 425.746C646.752 414.827 632.741 403.873 618.729 392.954C616.725 371.807 615.032 350.643 612.855 329.53C608.985 359.264 604.407 388.946 601.625 418.8C594.127 415.846 585.799 413.479 580.115 407.484C574.569 398.794 573.273 388.186 568.418 379.132C564.237 370.373 557.499 361.717 559.002 351.42C560.609 337.737 564.565 324.485 568.159 311.234C570.18 304.911 571.632 298.121 575.657 292.713C582.326 288.273 590.515 293.11 597.754 291.573C600.864 291.521 605.045 290.778 607.256 293.698C610.245 298.501 610.297 304.358 611.143 309.8C615.86 294.372 621.198 279.133 626.036 263.739C628.627 254.063 636.523 247.308 641.948 239.222ZM579.837 304.806C577.297 307.691 574.447 310.335 572.321 313.548C569.954 328.493 568.624 343.731 570.714 358.814C572.666 348.137 575.465 337.632 577.798 327.024C579.042 319.491 585.348 314.395 589.356 308.278C586.177 307.121 582.998 305.963 579.837 304.806ZM753.401 360.99C760.899 363.201 768.363 365.586 775.861 367.832C772.457 364.394 769.037 360.973 765.616 357.552C761.522 358.675 757.462 359.833 753.401 360.99ZM797.544 373.067C804.213 375.762 811.21 377.455 818.466 376.712C815.512 374.587 812.523 372.496 809.517 370.44C805.526 371.357 801.535 372.203 797.544 373.067Z" fill="#CDB593" stroke="#CDB593" stroke-width="0.0938"/>
<path d="M843.605 256.845C852.503 254.495 861.97 255.549 871.041 256.517C885.364 259.16 899.79 261.285 914.009 264.482C925.688 266.711 935.018 274.624 944.088 281.776C950.515 286.596 951.655 295.356 951.603 302.837C949.962 312.91 947.094 322.809 943.465 332.363C938.61 341.503 931.769 349.415 925.86 357.898C922.577 363.029 916.306 364.999 910.604 365.811C894.675 366.83 879.073 362.736 863.783 358.883C855.317 356.983 847.508 352.318 841.34 346.323C831.803 334.592 829.263 319.164 826.724 304.72C826.499 294.319 827 283.798 829.557 273.656C830.388 265.863 837.178 260.369 843.605 256.845Z" fill="#CDB593" stroke="#CDB593" stroke-width="0.0938"/>
<path d="M579.837 304.806C582.999 305.964 586.178 307.121 589.357 308.279C585.349 314.395 579.043 319.492 577.799 327.025C575.467 337.633 572.668 348.138 570.715 358.815C568.624 343.732 569.955 328.494 572.322 313.549C574.446 310.334 577.297 307.691 579.837 304.806Z" fill="#363636" stroke="#363636" stroke-width="0.0938"/>
<path d="M753.401 360.99C757.461 359.832 761.521 358.675 765.616 357.552C769.037 360.973 772.458 364.394 775.861 367.832C768.363 365.586 760.9 363.202 753.401 360.99Z" fill="#363636" stroke="#363636" stroke-width="0.0938"/>
<path d="M964.492 361.059C971.61 361.145 978.711 361.353 985.794 361.923C987.85 368.385 990.735 375.002 989.267 381.93C988.438 391.398 983.635 399.708 979.125 407.846C972.162 420.199 969.381 434.332 963.075 446.978C959.499 454.182 955.715 461.301 952.018 468.436C944.192 470.768 936.365 473.135 928.452 475.139C941.185 437.355 953.141 399.276 964.492 361.059ZM973.718 375.676C972.664 388.565 971.403 401.453 970.332 414.359C974.893 406.913 979.385 399.432 983.877 391.951C987.54 387.148 984.223 381.032 984.136 375.641C980.646 375.624 977.173 375.641 973.718 375.676Z" fill="#CDB593" stroke="#CDB593" stroke-width="0.0938"/>
<path d="M797.544 373.067C801.535 372.203 805.526 371.357 809.517 370.441C812.523 372.497 815.512 374.587 818.466 376.713C811.21 377.455 804.213 375.762 797.544 373.067Z" fill="#363636" stroke="#363636" stroke-width="0.0938"/>
<path d="M973.718 375.676C977.173 375.641 980.646 375.624 984.136 375.641C984.222 381.031 987.54 387.148 983.877 391.951C979.385 399.432 974.893 406.913 970.332 414.359C971.403 401.453 972.664 388.564 973.718 375.676Z" fill="#363636" stroke="#363636" stroke-width="0.0938"/>
<path d="M732.807 411.059C742.016 411.007 751.604 407.638 760.467 411.335C767.775 413.598 774.859 416.967 782.564 417.658C789.285 418.332 796.023 418.988 802.761 419.697C810.622 426.902 818.742 433.83 826.534 441.138C818.587 438.201 810.846 434.728 802.83 431.998C795.124 430.27 787.35 428.784 779.541 427.644C771.939 427.471 764.372 428.266 756.787 428.266C753.09 425.484 749.617 422.357 745.678 419.921C739.044 418.936 732.288 418.988 725.619 418.383C715.685 417.415 705.94 420.214 696.127 421.234C708.101 417.072 719.884 411.18 732.807 411.059Z" fill="#CDB593" stroke="#CDB593" stroke-width="0.0938"/>
<path d="M705.009 425.952C708.724 422.324 714.218 422.255 719.09 422.462C727.037 422.928 735.054 422.047 742.95 423.395C749.377 424.138 753.005 430.755 759.45 431.602C768.037 432.777 776.831 432.138 785.366 434.055C794.661 435.351 802.798 440.292 811.42 443.644C815.722 445.354 819.955 447.307 823.877 449.795C822.08 451.955 820.232 454.08 818.366 456.17C814.98 454.045 811.092 453.475 807.17 453.561C805.373 452.213 803.611 450.883 801.849 449.535C799.741 450.261 797.668 450.986 795.577 451.695C792.744 449.535 789.945 447.307 787.284 444.94C786.351 445.666 784.468 447.082 783.535 447.791C778.075 446.288 772.616 444.871 767.156 443.403C766.689 442.556 765.757 440.898 765.29 440.051C762.491 440.172 759.692 440.258 756.911 440.345C755.27 439.066 753.646 437.805 752.039 436.544C744.558 437.356 737.094 435.905 729.613 436.302C728.784 434.229 727.954 432.156 727.142 430.1C725.656 431.534 724.188 432.985 722.736 434.454C715.738 435.627 707.548 433.174 705.009 425.952Z" fill="#CDB593" stroke="#CDB593" stroke-width="0.0938"/>
<path d="M694.677 429.2C711.09 434.245 723.668 446.788 738.82 454.355C751.76 457.586 764.805 460.385 777.797 463.374C785.744 464.151 793.744 463.098 801.726 463.132C812.317 463.357 822.545 460.178 832.928 458.588C824.67 466.069 816.29 473.412 808.101 480.962C794.97 481.014 781.84 481.187 768.709 480.91C757.392 478.802 746.162 476.038 735.001 473.239C726.985 467.693 719.538 461.283 712.109 454.977C705.579 446.926 697.718 439.411 694.677 429.2Z" fill="#CDB593" stroke="#CDB593" stroke-width="0.0938"/>
<path d="M607.532 501.159C608.258 503.249 608.966 505.375 609.657 507.5C612.197 515.914 614.754 524.328 617.086 532.811C622.355 545.406 629.646 557.033 635.762 569.214C639.027 576.021 645.126 580.721 650.257 586.042C664.13 599.19 676.414 614.186 692.257 625.088C706.822 635.592 720.92 646.892 736.849 655.305C748.217 655.478 759.845 655.011 770.47 650.519C784.724 644.403 798.372 637.008 811.987 629.614C821.921 624.379 829.523 615.948 837.332 608.07C855.784 589.359 871.869 568.523 888.455 548.188L890.442 546.115C889.319 557.328 886.883 568.402 883.358 579.097C877.657 594.612 870.919 609.729 864.353 624.881C857.874 639.273 852.173 654.217 842.549 666.899C829.816 684.366 816.806 701.937 800.808 716.588C796.16 721.633 788.921 720.683 782.754 720.855C757.305 720.337 731.89 718.298 706.666 715.033C694.849 713.634 682.703 712.096 672.129 706.274C661.625 700.642 649.496 695.234 644.088 683.866C629.143 655.48 615.322 626.489 602.485 597.101C600.049 590.899 596.645 584.679 597.112 577.82C597.889 564.569 600.153 551.473 601.76 538.307C603.644 525.917 605.389 513.512 607.532 501.159Z" fill="#CDB593" stroke="#CDB593" stroke-width="0.0938"/>
<path d="M577.504 540.205C585.78 536.974 594.315 534.452 602.625 531.307C602.418 533.052 601.968 536.559 601.761 538.304C600.154 551.469 597.891 564.565 597.113 577.817C596.647 584.676 600.05 590.896 602.486 597.098C615.323 626.486 629.144 655.477 644.089 683.863C649.497 695.231 661.625 700.639 672.13 706.271C682.704 712.093 694.849 713.631 706.667 715.03C731.891 718.295 757.306 720.334 782.755 720.852C788.923 720.679 796.162 721.629 800.809 716.585C816.808 701.934 829.817 684.363 842.55 666.896C852.173 654.215 857.875 639.27 864.354 624.878C870.919 609.726 877.657 594.609 883.359 579.094C885.139 577.764 886.987 576.52 888.853 575.276C904.351 604.077 920.263 632.653 935.812 661.419C938.974 667.656 945.919 670.161 951.569 673.582C985.899 693.295 1020.16 713.146 1054.47 732.911C1080.35 747.406 1104.9 764.13 1130.07 779.801C1163.26 800.827 1196.42 821.94 1229.64 842.914C1234.62 845.747 1236.47 851.432 1238.71 856.338C1253.33 889.994 1269.62 922.941 1283.01 957.132C1296.88 991.582 1311.07 1025.93 1324.77 1060.45C1331.96 1083.36 1338.12 1106.58 1344.91 1129.61C1364.58 1199.53 1386.6 1268.76 1407.65 1338.26C1411.88 1351.45 1415.3 1364.89 1420.14 1377.88C1427.64 1396.26 1435.27 1414.59 1442.81 1432.99C1417.89 1445.47 1393 1457.94 1368.05 1470.36C1362.48 1460.6 1356.75 1450.93 1350.43 1441.65C1341.42 1446.68 1332.06 1450.98 1322.57 1455L1322.4 1456.63C1321.85 1456.52 1320.74 1456.32 1320.19 1456.21C1317.31 1457.63 1314.42 1459.05 1311.5 1460.39C1292.12 1469.72 1271.8 1476.93 1252.15 1485.64C1224.39 1499.72 1196.66 1513.9 1168.95 1528.09C1168.01 1533.7 1166.05 1539.33 1167.01 1545.1C1159.89 1545.33 1152.78 1545.31 1145.66 1545.29C1139.08 1537.09 1129.88 1530.68 1125.5 1520.93C1110.83 1476.43 1096.76 1431.73 1081.87 1387.31C1080.02 1401.84 1078.73 1416.44 1077.05 1430.99C1076.07 1438.38 1079.97 1445.07 1082.44 1451.76C1099.03 1494.36 1115.44 1537.04 1131.99 1579.66C1134.57 1586.45 1138.39 1593.1 1138.16 1600.58H469.177C474.377 1600.25 479.595 1599.87 484.813 1599.63C486.178 1565.39 488.337 1531.16 488.769 1496.88C489.443 1464.04 490.03 1431.2 490.773 1398.35C491.326 1379.28 490.911 1360.05 487.058 1341.29C486.574 1336.17 481.305 1334.36 477.504 1332.15C480.493 1329.33 483.395 1326.46 486.263 1323.53C492.656 1327.98 500.119 1331.78 508.153 1330.99C512.524 1326.1 518.657 1323.3 523.253 1318.79C522.095 1303.38 509.414 1292.84 499.894 1282.03C492.62 1271.71 492.119 1258.63 489.925 1246.63C488.94 1239.39 483.239 1234.19 479.611 1228.21C481.373 1221.92 483.084 1215.61 484.794 1209.32C490.305 1205.47 495.661 1201.39 501.518 1198.11C507.496 1190.39 518.018 1183.32 515.841 1172.27C515.444 1162.04 505.458 1155.13 495.955 1154.5C486.366 1153.38 476.726 1155.61 467.189 1155.14C457.427 1147.96 448.633 1139.58 439.045 1132.17C433.827 1128.74 427.798 1126.67 421.837 1124.98C411.194 1124.05 401.001 1127.85 390.825 1130.27C378.195 1133.12 365.86 1137.71 352.833 1138.45C343.555 1139.28 334.277 1140.15 325.017 1141.03C320.318 1147.7 314.91 1153.88 310.677 1160.86C308.189 1167.58 306.997 1174.7 305.148 1181.63C300.207 1184.22 295.283 1186.83 290.342 1189.42C283.189 1205.2 288.666 1222.94 285.28 1239.42C281.462 1256.21 276.382 1272.89 275.415 1290.16C257.101 1299.29 239.168 1309.38 219.818 1316.24C215.309 1317.84 210.575 1319.16 205.755 1318.9C188.91 1317.84 172.186 1320.8 155.531 1322.85C140.414 1325.29 125.072 1327.05 110.524 1332.08C96.1499 1336.95 81.6019 1341.65 68.1089 1348.7C57.7429 1353.73 52.5079 1364.59 45.6139 1373.23C40.0509 1380.19 35.4719 1388.35 27.9739 1393.46C23.6029 1390.82 20.9249 1384.5 15.0849 1385.36C9.38389 1384.55 4.90889 1380.61 0.191895 1377.65C2.92189 1367.58 4.18289 1357.08 8.00089 1347.33C12.0269 1338.95 17.2789 1331.23 21.8229 1323.13C25.8139 1315.87 31.7569 1309.01 31.7049 1300.29C32.5169 1282.63 33.4669 1264.97 34.2789 1247.32C34.5039 1239.92 36.5769 1232.8 38.9269 1225.88C47.1159 1198.89 56.3249 1172.18 62.9249 1144.73C81.3079 1073.73 99.4139 1002.66 117.313 931.527C122.323 908.6 126.988 885.605 131.774 862.644C132.724 857.876 134.4 853.28 136.56 848.943C147.479 826.984 158.156 804.904 168.903 782.858C170.855 777.917 175.779 775.533 180.168 773.2C202.283 761.521 223.913 748.943 246.097 737.454C272.22 725.585 298.204 713.335 324.5 701.863C387.371 679.904 450.398 658.359 513.303 636.521C516.396 629.437 519.315 622.216 523.686 615.789C539.253 592.724 554.888 569.711 570.282 546.56C572.096 543.85 574.291 541.241 577.504 540.205ZM721.404 843.071C708.118 848.358 716.307 871.163 729.507 869.263C734.414 869.228 739.925 864.926 739.009 859.571C738.698 856.582 738.059 853.628 737.143 850.794C735.053 844.678 727.538 840.773 721.404 843.071ZM699.342 1036.8C694.072 1044.14 699.584 1053.11 704.992 1058.6C709.346 1058.88 714.339 1060.49 718.053 1057.27C724.048 1053.77 721.318 1045.92 719.798 1040.69C717.137 1032.48 704.559 1029.18 699.342 1036.8ZM409.744 1076.81C404.924 1078.06 399.291 1078.59 395.784 1082.48C394.229 1097.51 389.754 1112.06 388.994 1127.19C400.31 1124.88 411.61 1121.39 423.237 1121.3C433.845 1124.74 442.052 1133.02 451.122 1139.23C455.493 1118.88 457.445 1097.44 452.539 1077C438.839 1071.75 423.739 1074.1 409.744 1076.81ZM681.702 1255.04C681.236 1261.4 685.451 1266.62 689.408 1271.09C695.42 1272.46 703.748 1272.27 706.011 1265.23C706.512 1258.01 704.612 1248.7 696.941 1245.9C690.427 1242.6 681.823 1247.75 681.702 1255.04ZM664.632 1478.02C663.25 1484.9 667.776 1490.91 672.148 1495.69C678.16 1497.04 686.471 1496.87 688.751 1489.84C689.183 1482.74 687.455 1473.67 680.078 1470.66C674.048 1467.39 665.893 1471.32 664.632 1478.02Z" fill="#363636" stroke="#363636" stroke-width="0.0938"/>
<path d="M721.404 843.071C727.537 840.773 735.053 844.678 737.143 850.794C738.059 853.627 738.698 856.582 739.009 859.571C739.925 864.927 734.413 869.229 729.507 869.263C716.308 871.163 708.118 848.358 721.404 843.071Z" fill="#CDB593" stroke="#CDB593" stroke-width="0.0938"/>
<path d="M699.342 1036.8C704.56 1029.18 717.137 1032.48 719.798 1040.69C721.318 1045.92 724.048 1053.76 718.053 1057.27C714.338 1060.49 709.345 1058.88 704.992 1058.6C699.584 1053.11 694.072 1044.14 699.342 1036.8Z" fill="#CDB593" stroke="#CDB593" stroke-width="0.0938"/>
<path d="M409.744 1076.81C423.738 1074.1 438.839 1071.75 452.539 1077C457.446 1097.44 455.493 1118.88 451.122 1139.23C442.052 1133.01 433.845 1124.74 423.237 1121.3C411.61 1121.39 400.31 1124.88 388.994 1127.19C389.754 1112.06 394.229 1097.51 395.784 1082.48C399.292 1078.59 404.924 1078.06 409.744 1076.81Z" fill="#646464" stroke="#646464" stroke-width="0.0938"/>
<path d="M390.826 1130.27C401.002 1127.85 411.196 1124.05 421.838 1124.98C427.799 1126.67 433.828 1128.75 439.046 1132.17C448.635 1139.58 457.429 1147.96 467.19 1155.15C476.727 1155.61 486.367 1153.38 495.956 1154.51C505.458 1155.13 515.444 1162.04 515.842 1172.27C518.019 1183.32 507.497 1190.39 501.519 1198.11C495.662 1201.4 490.306 1205.47 484.795 1209.33C483.085 1215.62 481.374 1221.92 479.612 1228.21C483.24 1234.19 488.942 1239.39 489.926 1246.63C492.12 1258.64 492.621 1271.71 499.895 1282.03C509.415 1292.84 522.096 1303.38 523.254 1318.79C518.658 1323.3 512.525 1326.1 508.154 1330.99C500.12 1331.79 492.657 1327.99 486.264 1323.53C483.396 1326.47 480.493 1329.33 477.505 1332.15C468.746 1331.13 459.9 1332.01 451.123 1331.48C443.348 1330.94 435.746 1329.11 428.058 1328C419.972 1327.23 412.301 1330.58 404.371 1331.53C396.804 1331.1 389.305 1329.99 381.773 1329.18C381.013 1329.18 379.51 1329.18 378.767 1329.18C371.372 1330.01 363.961 1330.75 356.601 1331.77C353.819 1332.13 351.055 1332.53 348.273 1332.91C347.046 1334.76 345.82 1336.61 344.576 1338.47C340.948 1344.07 336.784 1349.39 333.778 1355.37C334.193 1379.76 338.927 1404.19 336.49 1428.66C326.4 1451.65 316.017 1474.93 300.416 1494.81C294.006 1502.9 286.301 1510.36 276.522 1514.15C262.528 1519.83 249.259 1527.05 235.886 1534.05C220.769 1541.25 205.755 1550.82 188.426 1550.77C168.609 1550.95 149.069 1547.14 129.511 1544.59C121.46 1543.48 113.374 1544.95 105.323 1544.73C97.7899 1544.57 91.2249 1540.3 85.1429 1536.33C71.9609 1527.34 59.3479 1517.39 48.2389 1505.9C43.2629 1500.95 40.3779 1494.41 38.3049 1487.81C31.0829 1465.32 24.2419 1442.64 19.7319 1419.43C17.5029 1408.19 13.9269 1396.94 15.0839 1385.36C20.9239 1384.5 23.6019 1390.82 27.9729 1393.47C35.4709 1388.35 40.0499 1380.2 45.6129 1373.23C52.5069 1364.6 57.7409 1353.73 68.1079 1348.7C81.6009 1341.65 96.1489 1336.95 110.523 1332.08C125.07 1327.05 140.412 1325.29 155.53 1322.86C172.185 1320.8 188.909 1317.85 205.754 1318.9C210.574 1319.16 215.308 1317.85 219.817 1316.24C239.167 1309.38 257.101 1299.29 275.414 1290.17C276.382 1272.89 281.461 1256.22 285.279 1239.42C288.665 1222.94 283.188 1205.2 290.341 1189.42C295.282 1186.83 300.206 1184.22 305.147 1181.63C306.996 1174.7 308.188 1167.59 310.676 1160.87C314.909 1153.89 320.317 1147.7 325.016 1141.03C334.276 1140.15 343.554 1139.29 352.832 1138.46C365.861 1137.71 378.197 1133.12 390.826 1130.27Z" fill="#CDB593" stroke="#CDB593" stroke-width="0.0938"/>
<path d="M681.702 1255.04C681.823 1247.75 690.427 1242.6 696.94 1245.9C704.611 1248.7 706.511 1258.01 706.01 1265.23C703.747 1272.27 695.419 1272.46 689.407 1271.09C685.451 1266.62 681.235 1261.4 681.702 1255.04Z" fill="#CDB593" stroke="#CDB593" stroke-width="0.0938"/>
<path d="M404.371 1331.53C412.301 1330.58 419.972 1327.23 428.058 1328C420.525 1330.84 412.44 1332.62 404.371 1331.53Z" fill="#363636" stroke="#363636" stroke-width="0.0938"/>
<path d="M428.058 1328C435.746 1329.11 443.348 1330.94 451.123 1331.47C459.9 1332.01 468.746 1331.13 477.505 1332.15C481.306 1334.36 486.575 1336.17 487.059 1341.29C490.912 1360.05 491.326 1379.28 490.774 1398.35C490.031 1431.2 489.444 1464.04 488.77 1496.89C488.338 1531.16 486.178 1565.39 484.814 1599.63C479.596 1599.87 474.379 1600.25 469.178 1600.58H331.462C332.101 1543.26 335.919 1485.98 336.49 1428.66C338.926 1404.19 334.192 1379.76 333.778 1355.37C336.784 1349.39 340.948 1344.07 344.576 1338.47C348.532 1336.16 352.523 1333.88 356.601 1331.77C363.961 1330.75 371.373 1330.01 378.767 1329.18C379.769 1331.84 380.754 1331.84 381.773 1329.18C389.306 1329.99 396.804 1331.09 404.371 1331.53C412.44 1332.61 420.525 1330.84 428.058 1328Z" fill="#646464" stroke="#646464" stroke-width="0.0938"/>
<path d="M378.767 1329.18C379.51 1329.18 381.013 1329.18 381.773 1329.18C380.754 1331.84 379.769 1331.84 378.767 1329.18Z" fill="#2F2F2F" stroke="#2F2F2F" stroke-width="0.0938"/>
<path d="M348.273 1332.91C351.055 1332.53 353.819 1332.13 356.601 1331.77C352.524 1333.88 348.533 1336.16 344.576 1338.47C345.819 1336.61 347.046 1334.76 348.273 1332.91Z" fill="#363636" stroke="#363636" stroke-width="0.0938"/>
<path d="M1322.58 1455.01C1332.06 1450.98 1341.42 1446.68 1350.43 1441.65C1356.75 1450.93 1362.49 1460.6 1368.05 1470.36C1373.54 1480.3 1380 1489.71 1384.5 1500.18C1398.65 1532.54 1413.06 1564.78 1427.26 1597.11C1346.38 1597.52 1265.49 1597.58 1184.6 1598.09C1178.62 1580.47 1173.56 1562.52 1167.01 1545.1C1166.05 1539.33 1168.02 1533.7 1168.95 1528.09C1196.66 1513.9 1224.39 1499.72 1252.15 1485.64C1271.8 1476.93 1292.12 1469.72 1311.5 1460.39C1314.42 1459.05 1317.31 1457.63 1320.19 1456.21C1320.74 1456.32 1321.85 1456.52 1322.4 1456.63L1322.58 1455.01Z" fill="#CDB593" stroke="#CDB593" stroke-width="0.0938"/>
<path d="M664.632 1478.02C665.893 1471.32 674.048 1467.39 680.078 1470.66C687.455 1473.67 689.183 1482.74 688.751 1489.84C686.47 1496.87 678.16 1497.04 672.148 1495.69C667.777 1490.91 663.25 1484.9 664.632 1478.02Z" fill="#CDB593" stroke="#CDB593" stroke-width="0.0938"/>
</svg>
