<?xml version="1.0" encoding="UTF-8" standalone="no"?>


<svg
   xmlns:dc="http://purl.org/dc/elements/1.1/"
   xmlns:cc="http://creativecommons.org/ns#"
   xmlns:rdf="http://www.w3.org/1999/02/22-rdf-syntax-ns#"
   xmlns:svg="http://www.w3.org/2000/svg"
   xmlns="http://www.w3.org/2000/svg"
   xmlns:sodipodi="http://sodipodi.sourceforge.net/DTD/sodipodi-0.dtd"
   xmlns:inkscape="http://www.inkscape.org/namespaces/inkscape"
   version="1.1"
   id="Layer_1"
   x="0px"
   y="0px"
   viewBox="0 0 1920 1920"
   enable-background="new 0 0 1920 1920"
   xml:space="preserve"
   inkscape:version="0.91 r13725"
   sodipodi:docname="Hipster Boy Silhouette Icon With Drop Shadow.svg"><metadata
     id="metadata13"><rdf:RDF><cc:Work
         rdf:about=""><dc:format>image/svg+xml</dc:format><dc:type
           rdf:resource="http://purl.org/dc/dcmitype/StillImage" /><dc:title></dc:title></cc:Work></rdf:RDF></metadata><defs
     id="defs11"><filter
       style="color-interpolation-filters:sRGB;"
       inkscape:label="Drop Shadow"
       id="filter4405"><feFlood
         flood-opacity="0.662745"
         flood-color="rgb(0,0,0)"
         result="flood"
         id="feFlood4407" /><feComposite
         in="flood"
         in2="SourceGraphic"
         operator="in"
         result="composite1"
         id="feComposite4409" /><feGaussianBlur
         in="composite1"
         stdDeviation="13"
         result="blur"
         id="feGaussianBlur4411" /><feOffset
         dx="-23.7"
         dy="30.7"
         result="offset"
         id="feOffset4413" /><feComposite
         in="SourceGraphic"
         in2="offset"
         operator="over"
         result="composite2"
         id="feComposite4415" /></filter></defs><sodipodi:namedview
     pagecolor="#ffffff"
     bordercolor="#666666"
     borderopacity="1"
     objecttolerance="10"
     gridtolerance="10"
     guidetolerance="10"
     inkscape:pageopacity="0"
     inkscape:pageshadow="2"
     inkscape:window-width="640"
     inkscape:window-height="480"
     id="namedview9"
     showgrid="false"
     inkscape:zoom="0.40803748"
     inkscape:cx="406.46719"
     inkscape:cy="914.11287"
     inkscape:current-layer="Layer_1" /><g
     id="g3"
     style="filter:url(#filter4405)"><path
       d="M1548.65,282.87c18.83-6.09,37.59-14.91,50.9299-29.97c1.4,11.83,0.8,24.07-3.35,35.32   c-6.22,17.19-17.25,32.08-28.46,46.31c8.04-1.78,16.27-2.83,24.15-5.32c26.7799-7.88,53.5199-15.87,80.2999-23.73   c10.74,18.99,13.14,41.24,14.5701,62.63c1.0599,23.62,0.1699,47.3-2.0701,70.83c-2.38,24.65-5.48,49.35-12.13,73.25   c-9.1,34.38-25.5299,66.35-33.58,101.04c25.4,20.35,45.5,46.63,61.5599,74.78c20.5,36.07,34.7201,75.41,45.1001,115.49   c11.61,45.31,18.24,91.82,21.08,138.48c2.95,48.68,1.64,97.62-3.9301,146.0701c-4.5199,38.76-11.7899,77.26-22.87,114.6899   c-2.13,6.49-3.61,13.25-6.5599,19.4401c-5.97-21.1801-12.42-42.2301-19.52-63.0601c-0.35-1-0.6801-1.98-0.98-2.9399   c-0.98-3-2-5.9701-3.0601-8.92c-1.97-5.67-3.7-11.4401-6.0399-16.96c-2.13-6.42-4.38-12.78-7.0601-18.9801   c-0.85-2.71-1.8199-5.37-3.02-7.9199c-0.88-2.72-1.84-5.4-2.97-8c-0.66-1.6801-1.3199-3.34-2-4.98   c-6.3-15.8101-12.79-31.5601-20.02-46.9601c-1.59-4.51-3.96-8.6699-6.03-12.9399c-0.6799-1.37-1.33-2.73-1.97-4.0801   c-3.5-8.1799-7.45-16.2399-11.97-23.9c-0.7-1.35-1.38-2.69-2.05-4.02c-2.2699-4.35-4.1599-8.92-6.95-12.97   c-1.53-3.08-3.0601-6.16-4.9399-9.02c-0.9401-1.71-1.9401-3.3701-3.04-4.95c-1.1901-2.42-2.4301-4.81-3.9501-7.02   c-1.1699-2.07-2.38-4.1-3.63-6.1c-1.09-1.8-2.1299-3.6-3.1599-5.4c-0.3101-0.31-0.9401-0.93-1.25-1.25   c-1.47-3.47-3.8101-6.43-5.8201-9.57c-3.33-5.03-6.8099-9.97-9.9399-15.12c-0.3-0.33-0.9-1-1.21-1.34   c-1.7001-3-3.8401-5.7-5.8201-8.5c-3.77-5.4901-7.92-10.69-12.01-15.9301c-2.22-3.11-4.85-5.89-6.9399-9.08   c-1.8101-1.9-3.74-3.72-5.03-6.02c-3.3-3.16-5.63-7.17-9.04-10.22c-3-2.75-4.95-6.42-8.03-9.09   c-10.5699-10.06-20.23-21.14-31.48-30.44c-10.23-9.06-20.9199-17.67-32.24-25.35c-0.34-0.29-1.01-0.86-1.34-1.15   c-4.16-2.5-8.14-5.27-12.13-8c-3.73-2.34-7.47-4.66-11.3101-6.81c-1.61-1.06-3.2599-2.04-4.9199-2.97   c-1.42-0.64-2.84-1.27-4.24-1.89c-0.3401-0.34-1.03-1.02-1.37-1.37c-6.87-3.06-13.3101-7.07-20.37-9.68   c-2.9501-1.45-5.89-2.9-8.9601-4.05c-1.6599-0.68-3.3199-1.35-4.98-1.98c-42.61-17.02-88.8099-24.51-134.6-23.57   c-64.48,1.44-127.89,17.87-187.63,41.53c-10.35,3.92-20.49,8.34-30.6801,12.62l-0.09,0.41c-3.0499,0.95-5.91,2.37-8.83,3.62   l-0.21,0.38c-5.39,1.84-10.39,4.64-15.4301,7.25c-0.38-0.03-1.14-0.09-1.52-0.12l-0.03,1.44c-0.49-0.15-1.48-0.47-1.98-0.62   l0.0701,1.02c-7.7201,2.71-14.6901,7.15-22.0701,10.63v0.96c-0.5-0.15-1.49-0.45-1.98-0.6l-0.01,1.55   c-0.48-0.12-1.46-0.38-1.95-0.5l-0.0699,1.46c-0.47-0.1-1.41-0.31-1.88-0.41l-0.14,0.94c-5.08,2.23-9.88,5.04-14.8,7.6l-0.22,0.5   c-1.84,0.65-3.66,1.3199-5.5,1.92c2.12-8.8,5.32-17.32,7.31-26.16c3.19-13.11,6.58-26.46,5.94-40.06   c-0.29-7.74-3.83-15.82-10.79-19.73c-5.4-2.19-11.39-3.17-17.15-2.04c-14.03,1.48-27.51,5.87-40.91,10.03   c-43.31,13.75-86.87,28.67-132.47,32.34c-5.36,0.09-10.63,1.22-15.99,1.01c-6.67-0.25-13.26,1.05-19.92,0.96   c-7.36,0.19-14.76-0.07-22.08,0.86c-11.65,0.41-23.34-0.15-34.95,0.96c-21.69,0.6-43.43-0.19-65.08,1.16   c-20.98-0.07-41.96,0.16-62.94,0.39c-12.99,1.2-26.06,0.28-39.06,0.99c-8.88,1.19-17.89,0.15-26.77,1.28   c-41.25,2.16-83,6.15-122.43,19.29c-12.25,4.53-24.37,9.55-35.6,16.28c-3.75,2.22-7.3,4.76-10.98,7.08   c-3.97,2.74-7.78,5.71-11.5,8.78c-21.55,17.58-37.54,41.07-49.53,65.97c-14.29,29.99-23.39,62.16-30.42,94.54   c-13.91,65.94-19.74,133.27-24.05,200.42c-0.76-0.78-1.35-1.66-1.76-2.62c-10.58-29.66-21.14-59.3199-32-88.87   c-0.37-1-0.73-1.98-1.1-2.95c-1.22-3.7101-2.45-7.42-4.02-10.99c-4.15-12.28-8.89-24.3401-13.3-36.51   c-17.03-50.53-27.32-103.4401-29.64-156.71c-1.01-15.31-0.44-30.7-0.33-46.04c0.9-6.6,0.59-13.29,1.38-19.89   c3.12-41.67,11.77-82.96,25.9-122.3101c1.11-2.61,2.09-5.2599,3-7.9399c0.7-1.66,1.38-3.33,2.06-4.9901   c0.66-1.67,1.32-3.33,1.97-4.99c1.05-2.31,2.07-4.63,3-6.98c1.82-3.95,3.7-7.86,5.46-11.82c17.29-35.65,39.78-68.88,67.27-97.46   c24.84-26.07,53.63-48.3,84.83-66.25c9.26-5.43,18.93-10.11,28.79-14.33c13.59-5.88,28.2-11.11,38.58-22.17   c6.24-6.1,10.54-13.74,14.79-21.25c20.94-29.34,47.42-54.51,76.92-75.12c32.17-22.5,67.82-39.68,104.68-53   c41.1-14.8,83.77-24.93,126.79-32.27c81.6-13.73,164.48-17.63,247.1-18.27c115.04-0.65,229.92,6.27,344.9,8.7   c48.7201,0.65,97.5601,0.87,146.1101-3.82C1499.9,294.19,1524.79,290.44,1548.65,282.87z"
       id="path5" /><path
       d="M376.98,1254.1801c53.96-2.4801,107.98-3.8401,162-4.12c27.34-0.52,54.68,0.1399,82.01,0.45   c48.33,0.89,96.71,2.52,144.79,7.65c21.55,2.27,42.95,6.4299,63.4399,13.5299c21.66,7.25,42.11,17.6001,63.5601,25.4   c38.1899,14.3,80.97,16.0701,120.14,4.62c21.35-6.13,41.32-16.02,61.92-24.1699c18.79-7.49,38.3-13.27,58.29-16.52   c22.16-3.51,44.5599-5.25,66.9301-6.78c52.5699-3.36,105.2599-4.0599,157.9299-4.36c104.45,0.4399,208.99,3.46,313.04,12.97   c32.6,3.3101,65.25,7,97.27,14.16c-1.3301,43.74-2.42,87.5599-7.0901,131.1c-1.4199,10.97-2.8099,22.05-6.3099,32.59   c-1.84,5.26-4.52,10.8401-9.72,13.4801c-5.2101,2.3899-11.14,2.0499-16.51,3.8899c-8.5801,2.66-15.0801,9.42-20.2001,16.52   c-8.4299,11.8301-14.39,25.1901-19.83,38.6c-6.27,15.4801-10.86,31.5601-15.6801,47.53c-4.64,15.28-10.1499,30.6-19.5,43.7001   c-6.7999,9.33-14.6499,18.35-24.86,24.0299c-4.34,2.52-8.9199,4.5701-13.46,6.6801c-29.98,11.87-61.97,17.34-93.73,21.97   c-44.86,6.1801-90.11,9.2101-135.38,9.8301c-13,0.5699-26.04,0.5299-39.04,0.0599c-48.54-0.72-97.1899-3.99-144.98-12.8099   c-21.49-4.12-42.91-9.3501-63.13-17.8401c-13.3199-5.76-26.72-12.98-35.75-24.6799c-12.26-16.89-21.5-35.8301-28.53-55.4301   c-6.75-18.58-11.6699-37.78-18.86-56.2c-5.59-14.3301-13.02-28.13-23.26-39.6901c-6.13-5.96-11.81-12.5-18.9-17.38   c-1.37-0.97-2.68-1.97-3.99-2.99c-2.86-2.24-5.98-4.09-9.03-6.03c-2.27-1.5599-4.66-2.9099-7.1-4.1299   c-6.9901-4.4301-14.65-7.66-22.15-11.1001c-6.43-0.1499-12.87-0.0399-19.3-0.11c-3.58-0.28-6.68,1.75-9.87,3.02   c-5.26,2.59-10.66,4.98-15.61,8.16c-2.4,1.21-4.73,2.53-7.01,3.9399c-6.92,4.17-13.42,9.03-19.57,14.27   c-6.53,6.51-13.56,12.65-18.75,20.35c-9.68,13.24-16.19,28.4701-21.43,43.9401c-6.62,19.4199-11.94,39.3199-20,58.23   c-6.27,14.72-13.9,28.9399-23.41,41.84c-10.35,12.87-25.65,20.37-40.66,26.42c-21.93,8.5699-45.09,13.48-68.25,17.37   c-49.68,8.27-100.11,10.65-150.4,11.17c-51.07-0.26-102.21-2.7301-152.86-9.55c-24.39-3.3-48.7-7.5601-72.47-13.97   c-16.28-4.67-32.88-9.8-46.9-19.61c-15.06-12.0701-25.79-28.88-32.36-46.9c-7.18-19.66-11.84-40.16-19.43-59.6801   c-6.34-16.1699-13.19-32.51-24.16-46.15c-4.13-5.72-10.08-9.8999-16.49-12.6899c-6.21-1.88-12.73-2.26-18.91-4.23   c-2.64-2.38-4.97-5.0801-6.85-8.0901c-1.49-4-3.08-7.97-4.02-12.1399c-3.68-17.2301-5.52-34.79-6.6-52.3401   c-1.02-5.84-0.37-11.8099-1.36-17.64c-0.61-5.98-0.01-12.0299-0.97-17.98c-0.53-7.45-0.18-14.9299-0.57-22.38   c-0.77-8.97-0.49-17.98-0.89-26.96c-0.2-6.67-0.58-13.34-0.51-20.02c24.43-5.4199,49.23-8.87,74.08-11.66   C276.03,1259.75,326.5,1256.58,376.98,1254.1801 M408.98,1285.95c-24.27,1.5901-48.68,4.52-71.89,12.1001   c-11.99,3.85-23.42,9.4099-33.74,16.62l0.13,0.4299c-2.71,1.52-5.22,3.39-7.39,5.61c-3.45,3.5-7.3,6.6901-10.04,10.8201   c-2.13,2.4-4.14,4.9199-5.89,7.63c-11.93,17.62-17.21,38.85-19.32,59.7899c-2.51,25.8401-0.59,51.91,2.97,77.5601   c4.77,33.58,14.33,67.48,34.47,95.26c11.16,15.4399,25.66,28.4,42.15,37.9399c31.15,17.9701,67.25,24.74,102.65,28.13   c26.55,2.54,53.25,3.0901,79.91,3.14c28.48-0.09,56.96-0.0699,85.43-1.03c23.95-0.49,47.92-1.72,71.73-4.4199   c20.39-2.49,40.83-6.0901,60.05-13.55c14.29-5.53,27.88-13.27,39.07-23.83c15.64-14.17,26.47-32.8201,34.34-52.2101   c6.97-17.5299,12.25-35.73,16.13-54.1799c0.78-2.99,1.48-5.98,1.98-9.01c4.28-21.0601,8.33-42.24,9.36-63.74   c-0.14-20.91-3.61-42.35-14.07-60.76c-0.62-0.95-1.23-1.88-1.81-2.8c-3.03-5.4399-6.87-10.3999-11.31-14.75   c-1.88-3.0399-4.31-5.86-7.5-7.5499l0.27-0.29c-2.1-1.62-4.02-3.5-6.35-4.76l0.48-0.45c-1.45-0.84-2.88-1.67-4.33-2.4601   l0.12-0.5099c-6.37-4.2101-12.86-8.28-19.78-11.55c-2.96-1.42-5.93-2.8-8.95-4.0601c-1.68-0.6699-3.35-1.33-5.0099-1.98   c-28.08-10.73-58.04-15.45-87.83-18.4199c-24.63-2.1901-49.34-3.37-74.07-3.38c-10.64-0.65-21.3-0.3301-31.95-0.49   c-30-0.04-60.01-0.26-90.01-0.39C455.63,1284.38,432.27,1284.3199,408.98,1285.95 M1219.01,1291.79   c-20.99,3.2899-41.97,7.61-61.8201,15.34c-1.6799,0.64-3.35,1.3099-5.0099,1.99c-3.7401,1.51-7.3601,3.27-10.9601,5.08   c-8.2899,3.89-15.74,9.2101-23.0499,14.64c-1.13,1.01-2.2101,2.05-3.29,3.1c-2.95,2.1901-5.7,4.64-8.24,7.29   c-0.13,0.42-0.38,1.27-0.51,1.6901c-2.64,1.5-4.38,4.0199-6.02,6.5l-0.41,0.0599c-6.5299,8.9301-11.83,18.79-15.1399,29.36   c-7.0601,21.74-6.92,45.13-3.7201,67.5601c3,19.08,6.54,38.09,11.15,56.85c4.79,19.36,10.71,38.55,19.39,56.55   c7.8099,16.09,18.11,31.25,31.8,42.9199c10.7599,9.3401,23.3899,16.38,36.6799,21.42c19.5601,7.45,40.3201,11.09,61.03,13.53   c23.26,2.5699,46.66,3.7799,70.0499,4.25c29,1,58.03,0.97,87.04,1.0599c24.9501-0.04,49.92-0.6,74.79-2.75   c32.84-2.96,66.14-8.49,96.0499-22.99c26.7101-12.75,49.3101-34.11,63.1001-60.34c1.8999-3.36,3.8199-6.75,4.9399-10.4601   l0.4501-0.0299c12.98-29.39,18.5599-61.39,21.2799-93.2201c1.2001-7.3099,0.35-14.75,1.3301-22.08c0.35-5.25,0.35-10.54-0.27-15.76   c-0.67-20.0499-3.66-40.48-11.9401-58.9c-1.2999-3.9299-3.39-7.5-5.5299-11c-5.0801-8.8999-11.8-16.7699-19.41-23.58   c-0.99-0.61-1.91-1.26-2.7001-2.05c-4.0599-3.5599-8.61-6.5-13.1599-9.38c-0.23-0.0099-0.6801-0.0399-0.91-0.0499   c-3.33-2.4401-7.14-4.09-10.88-5.73c-17.83-7.6801-37.01-11.63-56.1801-14.13c-26.1799-3.24-52.6-4.0901-78.97-4.12   c-29.3099-0.0801-58.63,0.26-87.95,0.34C1320.96,1285,1269.6801,1284.6,1219.01,1291.79z"
       id="path7" /></g></svg>