<svg width="1123" height="1584" viewBox="0 0 1123 1584" fill="none" xmlns="http://www.w3.org/2000/svg">
<path d="M1122.64 562.979L1030.91 930.333L946.379 976.914C946.379 976.914 957.179 999.322 946.379 1006.22C935.604 1013.14 915.796 1016.58 915.796 1016.58C915.796 1016.58 915.795 1033.83 906.787 1039.01C897.804 1044.18 878.02 1052.78 878.02 1052.78C878.02 1052.78 860.028 1071.75 843.828 1071.75C827.653 1071.75 786.269 1128.66 780.894 1126.94C775.494 1125.2 752.102 1106.25 744.91 1102.79C737.743 1099.36 725.151 1071.75 721.543 1066.57C717.935 1061.39 672.968 1045.88 672.968 1045.88C672.968 1045.88 680.16 1109.69 681.951 1132.12C683.768 1154.55 690.96 1240.8 694.543 1261.49C698.127 1282.18 708.902 1351.16 707.135 1364.98C705.343 1378.75 703.551 1413.26 703.551 1413.26C703.551 1413.26 699.968 1427.05 694.568 1427.05C689.168 1427.05 674.784 1578.82 674.784 1578.82L151.403 1584V1444.28L131.619 1433.95L72.2685 1435.66C72.2685 1435.66 68.6851 1264.92 65.1015 1237.34C61.4933 1209.75 54.3015 1170.06 52.5097 1159.73C50.6933 1149.38 32.7015 951.046 29.1178 944.126C25.5342 937.206 0.325993 930.333 0.325993 878.597C0.325993 826.861 2.11781 702.675 0.325993 692.319C-1.46582 681.986 3.90957 499.12 21.9013 487.046C39.8931 474.994 101.06 406.005 111.836 402.569C122.611 399.085 232.354 335.298 252.113 335.298C271.896 335.298 306.063 281.82 306.063 281.82L334.855 290.458C334.855 290.458 369.022 254.21 370.814 173.17C372.606 92.1291 397.789 -23.4412 554.266 4.16863C710.743 31.7784 671.176 61.083 660.376 166.297C660.376 166.297 653.209 204.24 642.409 230.108L638.825 257.718L626.234 268.051L624.417 276.665L611.825 288.74C611.825 288.74 604.633 316.303 595.625 323.223C586.617 330.143 595.625 356.011 575.842 362.908C575.842 362.908 571.792 377.548 559.642 380.137L555.592 393.06L676.993 471.982C676.993 471.982 709.369 512.09 728.244 603.911C747.12 695.755 759.27 790.189 759.27 790.189L764.67 838.041L775.445 844.514L814.571 656.942L1107.3 550.88C1107.35 550.88 1125.78 546.596 1122.64 562.979V562.979Z" fill="#003871"/>
</svg>
