<svg width="360" height="408" viewBox="0 0 360 408" fill="none" xmlns="http://www.w3.org/2000/svg">
<path d="M106.829 333C108.805 333.3 110.759 333.797 112.757 333.943C115.013 334.088 117.287 333.849 119.539 334.126C120.516 334.726 121.87 335.219 121.994 336.607C122.985 341.701 152.051 356 133 356C132.809 364.916 136.673 370.584 136.5 379.5C136.389 388.806 146.851 397.704 146.5 407C145.159 407.066 118.735 406.911 117.398 407H82C82.1642 391.437 83.1456 375.889 83.2924 360.326C83.9185 353.685 82.7017 347.052 82.5953 340.43C83.368 338.807 84.4383 337.362 85.3708 335.842C86.3876 335.214 87.4135 334.595 88.4617 334.023C90.3535 333.746 92.2586 333.544 94.1592 333.319C94.4167 334.041 94.6699 334.041 94.9318 333.319C96.8681 333.539 98.7954 333.84 100.74 333.957C102.814 334.252 104.893 333.769 106.829 333Z" fill="black" stroke="#6A6A6A" stroke-width="0.0938"/>
<path d="M146.5 160.5C149.7 152.9 147.833 141 146.5 136H150.5L158.5 147.5L172.5 158C178 160.667 190 158 196 158C203.5 158 211.5 134 216.5 144V147.5V152.5L224.5 167L221.5 186C212.5 202 214.5 198.333 212.5 202C210.167 203.333 205.3 208 200.5 212C195.7 216 190.5 224 189 228C189 226.667 188.3 222.4 185.5 216C182 208 167 208 162.5 196C158 184 142.5 170 146.5 160.5Z" fill="#CDB593"/>
<path d="M216.5 152.5L224.5 167L221.5 186C212.5 202 214.5 198.333 212.5 202C210.167 203.333 205.3 208 200.5 212C195.7 216 190.5 224 189 228C189 226.667 188.3 222.4 185.5 216C182 208 167 208 162.5 196C158 184 142.5 170 146.5 160.5C149.7 152.9 147.833 141 146.5 136H150.5L158.5 147.5L172.5 158C178 160.667 190 158 196 158C203.5 158 211.5 134 216.5 144V152.5ZM216.5 152.5V147.5" stroke="#4F4F4F" stroke-width="0.5"/>
<path d="M153.5 110L138 86V79L137 77.5V73.5C137.167 72.3333 137.6 69.4 138 67C138.5 64 139.5 64 139.5 62V57C140.333 55 142 50.4 142 48C142 45 143 39 144 36.5C145 34 149.5 32.5 152 30.5C154.5 28.5 159.5 28.5 163 27C166.5 25.5 169.5 26 173 26C176.5 26 182 25.5 190 26C198 26.5 199.5 28 200.5 28.5C201.5 29 208 30 210 31C211.6 31.8 216.667 34 219 35C222 36 228.3 38.2 229.5 39C230.7 39.8 231 45.3333 231 48V60.5C231 62.5 232.333 65.6667 233 67C233.667 68.3333 235 71.5 235 73.5V77.5H231L235 79L231 86L227.5 103L224.5 107H221H216L190 98.5L161.5 109L153.5 110Z" fill="#CDB593" stroke="#4F4F4F" stroke-width="0.5"/>
<path d="M140 87.5V83V82L141.5 81H143L144 82L143 84.5V87.5L144.5 92.5L148 98L151 100.5L156 102L161 102.5H164.5L172 100.5L175.5 99L178 96L179.5 93C180.167 92.3333 181.5 90.8 181.5 90C181.5 89.2 181.833 89 182 89V86V83V80L183.5 79.5H186H189L191 80L192 83L192.5 86L193 90L195.5 96L199.5 99.5L202.5 101.5L207.5 102.5L213.5 103L219.5 102L223.5 101.5L226 99L228.5 96L229.5 93L230.5 90L231.5 87V89V93V94.5L230.5 97.5V100.5V103V107V111.5L228.5 115L226 116.5C224.833 116.833 222.3 117.9 221.5 119.5C220.7 121.1 220.167 120.167 220 119.5L217 124V128L215 132.5H212.5L211.5 128L212.5 125.5V122V116.5L211.5 111.5L207 109.5H204L202.5 108L201 107H199L195.5 106L189.5 105H186H181.5L178 106L174 105H171L168.5 106L166.5 107L164.5 108L162 109.5H160L159.5 111.5L158.5 113V115V117.5V119.5V122V124V125.5V127.5V128V129.5L157.5 129V127.5V125.5C157.167 125.167 156.4 124 156 122C155.6 120 153.833 118.167 153 117.5L151 116L150 115L146.5 113V111.5L145 110L143 108L141.5 106V103L140 99V95V91.5V87.5Z" fill="#CDB593" stroke="#4F4F4F" stroke-width="0.5"/>
<path d="M145 109.5L139 92L140.5 114.5C140 121.5 142.5 124.5 145 131C147 136.2 149.833 141.833 151 144L159 153.5C161.333 154.5 168.2 158.1 177 164.5C188 172.5 196.5 164 199 163.5C201.5 163 212 153.5 213 152C214 150.5 222 143 224.5 137.5C226.5 133.1 228.333 125.667 229 122.5L230.5 116.5V107.5L229 111.5L227 113H224.5L222 114.5L220 116.5L217.5 119.5L216 121.5L215 125.5C215 130.165 212 133 213 131V128V124.5L213.5 122.5L213 119.5C213.167 118.5 213.4 115.8 213 113C212.6 110.2 209.5 109.5 208 109.5H205L201.5 107.5H199L196.5 105.5H192H187.5H180C179 105.5 173 105 169.5 105.5C166.7 105.9 166 107 166 107.5C164.833 108.167 162.2 109.5 161 109.5C159.8 109.5 159.167 111.833 159 113V116.5V122V125.5C158 125 159.631 127.737 158.5 130C158 131 156.5 128.167 157.5 128C157.667 126.5 155.9 124.3 155.5 121.5C155.1 118.7 152.333 117 151 116.5L145 109.5Z" fill="black"/>
<path d="M215 125.5C215 130.165 212 133 213 131V128V124.5L213.5 122.5L213 119.5C213.167 118.5 213.4 115.8 213 113C212.6 110.2 209.5 109.5 208 109.5H205L201.5 107.5H199L196.5 105.5H192H187.5C185.333 105.5 180.8 105.5 180 105.5C179 105.5 173 105 169.5 105.5C166.7 105.9 166 107 166 107.5C164.833 108.167 162.2 109.5 161 109.5C159.8 109.5 159.167 111.833 159 113V116.5V122V125.5C158 125 159.631 127.737 158.5 130C158 131 156.5 128.167 157.5 128C157.667 126.5 155.9 124.3 155.5 121.5C155.1 118.7 152.333 117 151 116.5L145 109.5L139 92L140.5 114.5C140 121.5 142.5 124.5 145 131C147 136.2 149.833 141.833 151 144L159 153.5C161.333 154.5 168.2 158.1 177 164.5C188 172.5 196.5 164 199 163.5C201.5 163 212 153.5 213 152C214 150.5 222 143 224.5 137.5C226.5 133.1 228.333 125.667 229 122.5L230.5 116.5V107.5L229 111.5L227 113H224.5L222 114.5L220 116.5L217.5 119.5L216 121.5L215 125.5ZM215 125.5C215 121 215.167 126.333 215 125.5Z" stroke="black" stroke-width="0.5"/>
<path d="M244 82.5L240 81L234 86.5L233 90.5L231 96.5V106.5V118.5H234L236 115.5L240 112L244 106.5L246 101V96.5V93V89.5V86.5L244 82.5Z" fill="#CDB593" stroke="#4F4F4F" stroke-width="0.5"/>
<path d="M233.112 84.4584C232.973 83.0936 232.644 81.7655 232.386 80.4237C231.773 80.4604 231.165 80.4962 230.562 80.531C230.984 85.902 229.223 91.2283 226.888 96.1164C225.569 97.7439 224.041 99.264 222.401 100.607C217.65 101.87 212.662 102.227 207.805 101.688C204.097 101.744 200.501 100.213 197.971 97.7436C196.328 96.3122 195.752 94.1723 194.701 92.3707C193.516 90.364 193.338 88.0214 192.859 85.8022C192.378 83.6482 192.397 81.4336 192.317 79.2385C190.628 79.0556 188.955 78.7264 187.258 78.6747C185.404 78.7323 183.571 79.0404 181.729 79.2296C181.431 81.7026 181.094 84.1783 181.114 86.6675C181.244 88.941 179.828 90.9295 178.976 92.9879C177.281 95.9379 175.009 98.7833 171.788 100.348C169.609 100.9 167.426 101.461 165.208 101.817C160.565 101.893 155.798 101.693 151.456 100.119C148.921 98.4784 146.758 96.3255 145.411 93.6934C143.792 89.3664 143.944 84.6879 144.03 80.1288C142.942 80.499 141.858 80.8686 140.776 81.2469M136.731 77.2931C136.584 79.7087 137.155 82.0993 137.316 84.5054C138.421 81.6295 139.144 78.3148 141.849 76.328C143.439 75.5267 145.374 75.4577 146.813 74.3666C147.732 73.7612 148.51 72.8827 149.641 72.6289C151.836 72.0326 153.994 71.2681 156.233 70.8204C159.442 70.4003 162.678 70.2712 165.908 70.1337C169.831 69.9207 173.527 71.2878 177.25 72.1595C179.533 72.6885 180.956 74.5331 181.967 76.4027C185.641 76.0489 189.302 76.3036 192.939 76.7155C193.51 75.5353 193.854 74.1033 195.04 73.3021C196.223 72.6822 197.534 72.2958 198.827 71.941C203.293 71.1824 207.822 70.8928 212.336 70.8876C218.106 70.8082 223.74 72.6472 228.502 75.5401C229.536 76.1748 230.84 75.9241 232.012 76.0279M149.735 74.2385C147.703 75.0432 145.8 76.7295 145.568 78.8888C145.201 81.8146 145.089 84.7829 145.381 87.7092C145.954 91.3391 147.026 95.1813 149.887 97.7849C151.478 99.3005 153.848 99.5488 156 99.8352C161.014 100.394 166.304 100.478 171.123 98.6558C173.179 97.8508 175.229 96.6907 176.373 94.8159C178.903 90.8561 179.531 86.2231 180.309 81.7784C180.581 79.8749 181.099 77.6459 179.745 76.0328C177.709 74.0492 174.753 73.1987 171.866 73.0236C164.552 72.004 156.859 71.8034 149.735 74.2385ZM196.966 74.9656C195.381 76.2195 193.796 78.0006 193.962 80.0542C193.773 82.8065 194.167 85.5462 194.753 88.216C196.179 91.8039 197.654 95.6457 200.861 98.1585C202.855 99.3731 205.232 100.157 207.65 100.192C212.037 100.365 216.522 100.583 220.839 99.4651C222.362 98.9497 223.982 98.1051 224.623 96.6059C225.816 94.1014 227.292 91.6938 228.162 89.0767C228.675 86.4185 228.962 83.7119 228.904 81.0267C228.54 79.095 227.786 76.8977 225.78 75.9997C222.932 74.6422 219.974 73.1027 216.658 73.1552C212.598 73.0944 208.535 73.3209 204.473 73.4081C201.936 73.6455 199.287 73.882 196.966 74.9656Z" stroke="#393939" stroke-width="1.8"/>
<path d="M134.5 71.5V77H136L137.5 78.5V80V82L138 84L137.5 87V88.5L138 91V94L139.5 93L140 91.5V88L139.5 86V83V80.5L139 78.5V75.5L140 73.5L140.5 71.5V69L141.5 65.5L143 61.5L144.5 59.5C145.167 59 146.6 57.9 147 57.5C147.5 57 148 56 147.5 55L147 54V53L146.5 52V51.5L147 50L147.5 49V47C147.5 46.6 147.833 44.8333 148 44V42V41C148.333 40.5 149.3 39.3 150.5 38.5C151 38 151.5 37.5 152 36.5C152.4 35.7 152.833 36.1667 153 36.5C153.5 36.1667 154.5 35.3 154.5 34.5C154.5 33.7 155.5 33.8333 156 34H159H160.5C161.167 34.1667 162.8 34.5 164 34.5H165.5H166.5H169.5H170.5L172 34L173.5 33.5L174.5 33L175.5 32.5L177 32H178L179.5 32.5L182 33L183 34L183.5 34.5L184.5 35.5L185.5 36L186.5 36.5H188L190 35.5L191.5 34.5C190.667 34.5 189.6 34.3 192 33.5C198 33.5 199 30 200.5 35.5C202.1 38.7 204.167 40.1667 205 40.5C205.667 39.1667 207.5 36.9 209.5 38.5C211.5 40.1 214 40.5 215 40.5H218H221.5L223 42L224.5 43L226 45.5L227 47V49V52V54V56V57.5V59.5V61.5C227.167 62.1667 227.6 63.7 228 64.5C228.5 65.5 228.5 66 228.5 67C228.5 67.8 229.167 68 229.5 68L230.5 69L232 71V72V74.5V76L233 77.5H235.5L237 78.5H238V80L237 81L235.5 80L232 79.5L231.5 81V84V88V91V93H232.5L233 91V89.5V88L234.5 86L235.5 84L238 82L239 80L240 77.5V74L241 69.5L242.5 65C242.667 63 243.2 58.4 244 56C245 53 244 52.5 245 50.5C245.8 48.9 245.333 46.5 245 45.5L244 40.5V35.5C244 33.9 242 32.1667 241 31.5C240.333 30 238.9 26.4 238.5 24C238 21 235.5 21 234.5 19C233.7 17.4 231.833 16.3333 231 16C229.833 16 227.4 15.7 227 14.5C226.6 13.3 224.5 11.6667 223.5 11L220.5 9L218 8L215 6.5L212 5H209.5L206.5 3.5L203.5 2.5L200.5 1.5H198L195 1H192L183 1.5H180L174 2.5L170 3.5L165.5 5L162 6.5L159 8L156 9.5L154.5 11L153 12L150.5 13L148 14.5L148.5 16L146.5 18L144.5 20.5L142 23.5L139.5 27.5L137.5 30.5L136 34L135 39L134 41V45.5V49V53V57V60.5L134.5 64.5V68V71.5Z" fill="#1D1C1C" stroke="#4F4F4F" stroke-width="0.5"/>
<path d="M131.948 77.7858L135.934 78.114L137.722 80.7698C137.931 82.2921 138.575 86.2582 139.475 89.9446C140.601 94.5525 139.246 102.912 140.12 104.489C140.819 105.751 140.323 108.075 140.12 112.574L138.543 113.447L137.628 112.369L135.137 112.163L133.144 111.999L130.775 110.299L129.444 108.183L127.24 104.489L125.991 101.377L124.408 96.2292L124.655 93.2394L125.024 88.7545L125.434 83.7714L127.756 79.949L131.948 77.7858Z" fill="#CDB593" stroke="#CDB593" stroke-width="0.5"/>
<path d="M173.66 113.525C176.344 113.175 180.74 112.494 183.541 113.047C185.804 113.317 188.066 113.857 190.354 113.739C192.354 113.653 194.359 113.562 196.366 113.484C199.076 114.906 201.847 116.253 204.543 117.703C202.054 117.297 199.594 116.756 197.097 116.401C194.749 116.273 192.394 116.205 190.05 116.22C187.822 116.458 185.659 116.923 183.446 117.201C182.206 116.676 181.012 116.061 179.722 115.627C177.729 115.636 175.761 115.896 173.78 115.996C170.825 116.13 168.143 117.151 165.339 117.753C168.592 116.326 169.896 114.026 173.66 113.525Z" fill="#CDB593" stroke="#CDB593" stroke-width="0.0938"/>
<path d="M168.203 118.547C169.077 117.55 170.677 117.333 172.11 117.203C174.456 117.023 176.745 116.52 179.127 116.551C181.045 116.492 182.486 117.93 184.416 117.895C186.99 117.86 189.519 117.386 192.12 117.529C194.908 117.496 197.568 118.371 200.278 118.851C201.632 119.099 202.98 119.408 204.268 119.855C203.869 120.434 203.453 121.006 203.029 121.57C201.918 121.19 200.751 121.197 199.611 121.361C199.009 121.106 198.418 120.855 197.826 120.6C197.252 120.849 196.689 121.097 196.12 121.342C195.169 120.933 194.223 120.507 193.31 120.042C193.079 120.249 192.612 120.654 192.381 120.856C190.7 120.699 189.025 120.563 187.347 120.414C187.162 120.23 186.794 119.871 186.609 119.687C185.799 119.818 184.987 119.941 184.181 120.064C183.628 119.82 183.081 119.58 182.539 119.34C180.403 119.806 178.141 119.735 175.981 120.103C175.62 119.642 175.258 119.18 174.902 118.722C174.551 119.116 174.207 119.515 173.868 119.916C171.894 120.451 169.362 120.169 168.203 118.547Z" fill="#FFF8EE" stroke="#CDB593" stroke-width="0.0938"/>
<path d="M165.376 119.697C170.458 120.293 174.854 122.81 179.713 124.051C183.675 124.345 187.644 124.531 191.608 124.765C193.972 124.659 196.245 124.116 198.576 123.832C201.68 123.497 204.481 122.368 207.418 121.611C205.441 123.689 203.421 125.739 201.468 127.831C197.639 128.324 193.285 129.967 189.437 130.382C186.013 130.296 182.32 130.146 178.901 129.89C176.241 128.867 174.487 126.402 171.954 125.177C169.583 123.505 166.855 122.009 165.376 119.697Z" fill="#CDB593" stroke="#CDB593" stroke-width="0.0938"/>
<path d="M177.263 103.031C178.268 102.317 179.272 101.604 180.289 100.898C181.472 101.655 182.655 102.412 183.835 103.176C181.644 103.14 179.452 103.057 177.263 103.031Z" fill="#363636" stroke="#363636" stroke-width="0.0938"/>
<path d="M190.074 102.893C191.082 102.276 192.092 101.665 193.097 101.032C194.064 101.404 195.028 101.788 195.987 102.185C194.089 103.051 192.076 103.141 190.074 102.893Z" fill="#363636" stroke="#363636" stroke-width="0.0938"/>
<path d="M144.266 143.214C146.32 142.41 148.438 141.782 150.5 141C150.449 141.434 150.337 142.307 150.286 142.741C149.887 146.016 149.325 149.274 149.132 152.57C149.017 154.276 149.861 155.824 150.466 157.367C153.651 164.677 157.081 171.889 160.79 178.951C162.132 181.779 165.142 183.124 167.749 184.525C170.373 185.974 173.386 186.356 176.319 186.704C182.579 187.516 188.886 188.024 195.201 188.153C196.732 188.11 198.528 188.346 199.682 187.091C203.652 183.446 206.88 179.075 210.04 174.73C212.428 171.575 213.843 167.858 215.451 164.277C217.08 160.508 214.085 153.36 215.5 149.5C215.037 149.809 215.942 149.169 215.5 149.5C219.346 156.665 229.325 166.212 233.184 173.368C233.969 174.919 235.692 175.542 237.094 176.393C245.614 181.297 254.116 186.236 262.631 191.152C269.053 194.758 275.146 198.919 281.392 202.817C289.629 208.048 297.856 213.3 306.101 218.518C307.336 219.222 307.795 220.637 308.352 221.857C311.979 230.23 316.023 238.426 319.345 246.931C322.788 255.501 326.308 264.046 329.708 272.633C331.492 278.332 333.022 284.109 334.707 289.838C339.586 307.232 345.053 324.454 350.275 341.744C351.326 345.023 352.175 348.367 353.375 351.599C355.236 356.172 357.131 360.733 359 365.31C352.818 368.413 346.639 371.516 340.448 374.606C339.067 372.178 337.644 369.771 336.075 367.463C333.841 368.714 331.517 369.784 329.163 370.785L329.12 371.189C328.983 371.164 328.709 371.112 328.572 371.086C327.856 371.439 327.14 371.791 326.415 372.126C321.605 374.447 316.563 376.239 311.688 378.406C304.798 381.909 297.916 385.437 291.039 388.966C290.808 390.363 290.319 391.764 290.559 393.199C288.793 393.255 287.026 393.251 285.26 393.247C283.626 391.205 281.345 389.611 280.256 387.186C276.616 376.115 273.126 364.996 269.431 353.946C268.972 357.561 268.65 361.193 268.234 364.811C267.99 366.651 268.959 368.314 269.572 369.977C273.688 380.576 277.761 391.192 281.869 401.795C282.508 403.484 283.455 405.139 283.4 407H117.384C118.674 406.918 119.969 406.824 121.264 406.764C121.603 398.245 122.138 389.731 122.246 381.204C122.413 373.033 122.559 364.863 122.743 356.693C122.88 351.948 122.777 347.164 121.821 342.496C121.701 341.224 120.393 340.773 119.45 340.223C120.192 339.522 120.912 338.809 121.624 338.078C123.21 339.187 125.062 340.132 127.056 339.935C128.141 338.719 129.663 338.022 130.803 336.9C130.516 333.067 127.369 330.445 125.006 327.754C123.201 325.188 123.077 321.935 122.532 318.948C122.288 317.147 120.873 315.853 119.973 314.366C120.41 312.802 120.835 311.233 121.259 309.668C122.627 308.71 123.956 307.696 125.409 306.879C126.893 304.958 129.504 303.2 128.964 300.449C128.865 297.905 126.387 296.186 124.029 296.031C121.649 295.752 119.257 296.306 116.89 296.19C114.468 294.402 112.285 292.317 109.906 290.474C108.611 289.623 107.115 289.107 105.636 288.686C102.995 288.454 100.465 289.399 97.9397 290.001C94.8055 290.71 91.7444 291.853 88.5116 292.038C86.2092 292.244 83.9067 292.459 81.6088 292.679C80.4427 294.338 79.1006 295.876 78.0502 297.613C77.4327 299.285 77.1369 301.055 76.6781 302.779C75.4519 303.424 74.23 304.072 73.0038 304.717C71.2287 308.641 72.5879 313.055 71.7476 317.156C70.8001 321.333 69.5395 325.481 69.2995 329.779C64.7547 332.048 60.3044 334.558 55.5025 336.264C54.3836 336.664 53.2088 336.991 52.0126 336.926C47.8324 336.664 43.6821 337.399 39.549 337.91C35.7976 338.516 31.9903 338.955 28.3801 340.206C24.813 341.418 21.2028 342.587 17.8543 344.34C15.2819 345.591 13.9828 348.294 12.272 350.443C10.8914 352.175 9.75511 354.204 7.8944 355.476C6.80969 354.818 6.14511 353.245 4.69586 353.46C3.28109 353.258 2.17057 352.278 1 351.543C1.67748 349.037 1.99041 346.424 2.93789 344C3.93698 341.916 5.24032 339.995 6.36796 337.979C7.35837 336.174 8.83319 334.467 8.82029 332.297C9.02179 327.905 9.25754 323.512 9.45905 319.12C9.51489 317.28 10.0293 315.509 10.6125 313.786C12.6447 307.072 14.93 300.428 16.5679 293.598C21.1298 275.938 25.623 258.256 30.0648 240.562C31.3081 234.858 32.4658 229.138 33.6535 223.426C33.8892 222.24 34.3051 221.096 34.8412 220.017C37.5508 214.555 40.2004 209.062 42.8674 203.578C43.3518 202.348 44.5738 201.755 45.663 201.175C51.151 198.27 56.5187 195.141 62.0239 192.283C68.5066 189.33 74.9549 186.283 81.4805 183.429C97.0826 177.966 112.723 172.606 128.334 167.174C129.101 165.412 129.826 163.615 130.911 162.016C134.774 156.279 135.18 155.259 139 149.5C139.45 148.826 150.286 142.741 144.266 143.214ZM179.976 218.557C176.679 219.872 178.712 225.545 181.987 225.072C183.205 225.064 184.573 223.993 184.345 222.661C184.268 221.918 184.11 221.183 183.882 220.478C183.364 218.956 181.499 217.985 179.976 218.557ZM174.501 266.75C173.194 268.576 174.562 270.807 175.904 272.174C176.984 272.242 178.223 272.642 179.145 271.843C180.633 270.97 179.955 269.019 179.578 267.717C178.918 265.675 175.796 264.854 174.501 266.75ZM102.635 276.704C101.439 277.013 100.041 277.146 99.1704 278.113C98.7845 281.853 97.6739 285.472 97.4853 289.237C100.294 288.661 103.098 287.793 105.983 287.771C108.616 288.626 110.652 290.685 112.903 292.232C113.988 287.169 114.472 281.836 113.255 276.751C109.855 275.444 106.108 276.029 102.635 276.704ZM170.124 321.041C170.008 322.623 171.054 323.921 172.036 325.034C173.528 325.374 175.595 325.326 176.156 323.577C176.281 321.78 175.809 319.464 173.906 318.768C172.289 317.947 170.154 319.227 170.124 321.041ZM165.888 376.511C165.545 378.221 166.668 379.717 167.753 380.908C169.245 381.243 171.307 381.2 171.873 379.451C171.98 377.684 171.552 375.428 169.721 374.68C168.225 373.867 166.201 374.843 165.888 376.511Z" fill="black"/>
<path d="M215.5 149.5C214.085 153.36 217.08 160.508 215.451 164.277C213.843 167.858 212.428 171.575 210.04 174.73C206.88 179.075 203.652 183.446 199.682 187.091C198.528 188.346 196.732 188.11 195.201 188.153C188.886 188.024 182.579 187.516 176.319 186.704C173.386 186.356 170.373 185.974 167.749 184.525C165.142 183.124 162.132 181.779 160.79 178.951C157.081 171.889 153.651 164.677 150.466 157.367C149.861 155.824 149.017 154.276 149.132 152.57C149.325 149.274 149.887 146.016 150.286 142.741C150.337 142.307 150.449 141.434 150.5 141C148.438 141.782 146.32 142.41 144.266 143.214C150.286 142.741 139.45 148.826 139 149.5C135.18 155.259 134.774 156.279 130.911 162.016C129.826 163.615 129.101 165.412 128.334 167.174C112.723 172.606 97.0826 177.966 81.4805 183.429C74.9549 186.283 68.5066 189.33 62.0239 192.283C56.5187 195.141 51.151 198.27 45.663 201.175C44.5738 201.755 43.3518 202.348 42.8674 203.578C40.2004 209.062 37.5508 214.555 34.8412 220.017C34.3051 221.096 33.8892 222.24 33.6535 223.426C32.4658 229.138 31.3081 234.858 30.0648 240.562C25.623 258.256 21.1298 275.938 16.5679 293.598C14.93 300.428 12.6447 307.072 10.6125 313.786C10.0293 315.509 9.51489 317.28 9.45905 319.12C9.25754 323.512 9.02179 327.905 8.82029 332.297C8.83319 334.467 7.35837 336.174 6.36796 337.979C5.24032 339.995 3.93698 341.916 2.93789 344C1.99041 346.424 1.67748 349.037 1 351.543C2.17057 352.278 3.28109 353.258 4.69586 353.46C6.14511 353.245 6.80969 354.818 7.8944 355.476C9.75511 354.204 10.8914 352.175 12.272 350.443C13.9828 348.294 15.2819 345.591 17.8543 344.34C21.2028 342.587 24.813 341.418 28.3801 340.206C31.9903 338.955 35.7976 338.516 39.549 337.91C43.6821 337.399 47.8324 336.664 52.0126 336.926C53.2088 336.991 54.3836 336.664 55.5025 336.264C60.3044 334.558 64.7547 332.048 69.2995 329.779C69.5395 325.481 70.8001 321.333 71.7476 317.156C72.5879 313.055 71.2287 308.641 73.0038 304.717C74.23 304.072 75.4519 303.424 76.6781 302.779C77.1369 301.055 77.4327 299.285 78.0502 297.613C79.1006 295.876 80.4427 294.338 81.6088 292.679C83.9067 292.459 86.2092 292.244 88.5116 292.038C91.7444 291.853 94.8055 290.71 97.9397 290.001C100.465 289.399 102.995 288.454 105.636 288.686C107.115 289.107 108.611 289.623 109.906 290.474C112.285 292.317 114.468 294.402 116.89 296.19C119.257 296.306 121.649 295.752 124.029 296.031C126.387 296.186 128.865 297.905 128.964 300.449C129.504 303.2 126.893 304.958 125.409 306.879C123.956 307.696 122.627 308.71 121.259 309.668C120.835 311.233 120.41 312.802 119.973 314.366C120.873 315.853 122.288 317.147 122.532 318.948C123.077 321.935 123.201 325.188 125.006 327.754C127.369 330.445 130.516 333.067 130.803 336.9C129.663 338.022 128.141 338.719 127.056 339.935C125.062 340.132 123.21 339.187 121.624 338.078C120.912 338.809 120.192 339.522 119.45 340.223C120.393 340.773 121.701 341.224 121.821 342.496C122.777 347.164 122.88 351.948 122.743 356.693C122.559 364.863 122.413 373.033 122.246 381.204C122.138 389.731 121.603 398.245 121.264 406.764C119.969 406.824 118.674 406.918 117.384 407H283.4C283.455 405.139 282.508 403.484 281.869 401.795C277.761 391.192 273.688 380.576 269.572 369.977C268.959 368.314 267.99 366.651 268.234 364.811C268.65 361.193 268.972 357.561 269.431 353.946C273.126 364.996 276.616 376.115 280.256 387.186C281.345 389.611 283.626 391.205 285.26 393.247C287.026 393.251 288.793 393.255 290.559 393.199C290.319 391.764 290.808 390.363 291.039 388.966C297.916 385.437 304.798 381.909 311.688 378.406C316.563 376.239 321.605 374.447 326.415 372.126C327.14 371.791 327.856 371.439 328.572 371.086C328.709 371.112 328.983 371.164 329.12 371.189L329.163 370.785C331.517 369.784 333.841 368.714 336.075 367.463C337.644 369.771 339.067 372.178 340.448 374.606C346.639 371.516 352.818 368.413 359 365.31C357.131 360.733 355.236 356.172 353.375 351.599C352.175 348.367 351.326 345.023 350.275 341.744C345.053 324.454 339.586 307.232 334.707 289.838C333.022 284.109 331.492 278.332 329.708 272.633C326.308 264.046 322.788 255.501 319.345 246.931C316.023 238.426 311.979 230.23 308.352 221.857C307.795 220.637 307.336 219.222 306.101 218.518C297.856 213.3 289.629 208.048 281.392 202.817C275.146 198.919 269.053 194.758 262.631 191.152C254.116 186.236 245.614 181.297 237.094 176.393C235.692 175.542 233.969 174.919 233.184 173.368C229.325 166.212 219.346 156.665 215.5 149.5ZM215.5 149.5C215.942 149.169 215.037 149.809 215.5 149.5ZM179.976 218.557C176.679 219.872 178.712 225.545 181.987 225.072C183.205 225.064 184.573 223.993 184.345 222.661C184.268 221.918 184.11 221.183 183.882 220.478C183.364 218.956 181.499 217.985 179.976 218.557ZM174.501 266.75C173.194 268.576 174.562 270.807 175.904 272.174C176.984 272.242 178.223 272.642 179.145 271.843C180.633 270.97 179.955 269.019 179.578 267.717C178.918 265.675 175.796 264.854 174.501 266.75ZM102.635 276.704C101.439 277.013 100.041 277.146 99.1704 278.113C98.7845 281.853 97.6739 285.472 97.4853 289.237C100.294 288.661 103.098 287.793 105.983 287.771C108.616 288.626 110.652 290.685 112.903 292.232C113.988 287.169 114.472 281.836 113.255 276.751C109.855 275.444 106.108 276.029 102.635 276.704ZM170.124 321.041C170.008 322.623 171.054 323.921 172.036 325.034C173.528 325.374 175.595 325.326 176.156 323.577C176.281 321.78 175.809 319.464 173.906 318.768C172.289 317.947 170.154 319.227 170.124 321.041ZM165.888 376.511C165.545 378.221 166.668 379.717 167.753 380.908C169.245 381.243 171.307 381.2 171.873 379.451C171.98 377.684 171.552 375.428 169.721 374.68C168.225 373.867 166.201 374.843 165.888 376.511Z" stroke="#363636" stroke-width="0.0938"/>
<path d="M180.659 218.198C182.163 217.516 184.005 218.674 184.518 220.488C184.742 221.329 184.899 222.205 184.975 223.092C185.2 224.681 183.849 225.957 182.646 225.967C179.41 226.53 177.402 219.766 180.659 218.198Z" fill="#CDB593" stroke="#CDB593" stroke-width="0.0938"/>
<path d="M174.521 266.962C175.796 265.253 178.871 265.993 179.521 267.835C179.893 269.009 180.56 270.77 179.095 271.557C178.187 272.278 176.966 271.917 175.902 271.855C174.58 270.622 173.233 268.61 174.521 266.962Z" fill="#CDB593" stroke="#CDB593" stroke-width="0.0938"/>
<path d="M105.248 269.758C115.214 251.037 117.2 276.472 120.5 277.758C121.682 282.761 116.053 301.276 115 306.258C123.536 306.258 107.803 292.71 105.248 291.868C102.447 291.889 99.7256 292.743 97 293.31C97.183 289.606 96.6254 277.437 96.9999 273.758C97.8449 272.806 105.248 254.037 105.248 269.758Z" fill="black" stroke="#363636" stroke-width="0.0938"/>
<path d="M170.009 321.268C170.038 319.64 172.153 318.491 173.753 319.228C175.638 319.852 176.105 321.931 175.982 323.544C175.426 325.114 173.379 325.156 171.902 324.851C170.93 323.852 169.894 322.688 170.009 321.268Z" fill="#CDB593" stroke="#CDB593" stroke-width="0.0938"/>
<path d="M328.88 370.329C331.247 369.326 333.583 368.253 335.829 367C337.407 369.313 338.838 371.725 340.226 374.158C341.597 376.635 343.21 378.982 344.33 381.592C347.861 389.659 351.456 397.696 355 405.754C334.821 405.858 314.637 405.871 294.454 406C292.962 401.607 291.699 397.132 290.065 392.79C289.824 391.352 290.315 389.948 290.548 388.548C297.462 385.012 304.382 381.476 311.309 377.965C316.211 375.795 321.28 373.999 326.117 371.673C326.846 371.337 327.566 370.984 328.285 370.63C328.423 370.656 328.699 370.708 328.837 370.734L328.88 370.329Z" fill="#CDB593" stroke="#CDB593" stroke-width="0.0938"/>
<path d="M166.073 376.223C166.434 374.476 168.77 373.454 170.498 374.305C172.611 375.088 173.106 377.452 172.982 379.302C172.329 381.135 169.948 381.179 168.226 380.828C166.974 379.581 165.677 378.015 166.073 376.223Z" fill="#CDB593" stroke="#CDB593" stroke-width="0.0938"/>
<path d="M98.1792 289.364C100.701 288.757 103.228 287.802 105.865 288.036C107.343 288.462 108.837 288.982 110.13 289.842C112.507 291.704 114.686 293.809 117.105 295.614C119.469 295.731 121.858 295.171 124.234 295.453C126.589 295.61 129.064 297.346 129.163 299.915C129.703 302.693 127.095 304.468 125.613 306.408C124.162 307.233 122.834 308.257 121.468 309.225C121.045 310.805 120.621 312.389 120.184 313.968C121.083 315.47 122.496 316.776 122.74 318.595C123.284 321.611 123.408 324.897 125.211 327.488C127.57 330.205 130.713 332.852 131 336.724C129.861 337.857 128.341 338.56 127.258 339.788C125.266 339.988 123.417 339.033 121.832 337.913C121.122 338.651 120.402 339.371 119.662 340.079C117.491 339.823 115.298 340.044 113.123 339.909C111.196 339.775 109.312 339.315 107.407 339.037C105.403 338.842 103.502 339.684 101.536 339.923C99.6608 339.814 97.8022 339.536 95.9355 339.332C95.7471 339.332 95.3746 339.332 95.1905 339.332C93.3577 339.54 91.521 339.727 89.6969 339.983C89.0074 340.075 88.3224 340.174 87.6329 340.27C87.3288 340.734 87.0249 341.198 86.7166 341.667C85.8175 343.073 84.7855 344.41 84.0405 345.912C84.1433 352.04 85.3166 358.177 84.7126 364.323C82.2119 370.099 79.6386 375.945 75.7721 380.941C74.1834 382.972 72.2738 384.847 69.8502 385.798C66.382 387.225 63.0934 389.04 59.779 390.797C56.0325 392.607 52.3114 395.012 48.0166 394.999C43.1052 395.042 38.2624 394.087 33.4152 393.445C31.4198 393.167 29.4158 393.536 27.4204 393.48C25.5535 393.441 23.9264 392.368 22.4191 391.37C19.152 389.113 16.0261 386.613 13.2728 383.727C12.0396 382.482 11.3245 380.841 10.8108 379.183C9.02089 373.532 7.32542 367.834 6.20767 362.005C5.65523 359.18 4.76896 356.354 5.05571 353.446C6.50309 353.229 7.1668 354.818 8.25011 355.482C10.1084 354.197 11.2433 352.149 12.622 350.4C14.3306 348.229 15.6278 345.5 18.1971 344.237C21.5412 342.466 25.1468 341.286 28.7092 340.062C32.3145 338.799 36.1169 338.356 39.8637 337.744C43.9914 337.228 48.1363 336.485 52.3112 336.75C53.5057 336.815 54.679 336.485 55.7965 336.082C60.5922 334.359 65.0369 331.824 69.5756 329.533C69.8155 325.192 71.0743 321.004 72.0205 316.786C72.8597 312.645 71.5023 308.188 73.2751 304.225C74.4997 303.574 75.72 302.919 76.9446 302.268C77.4029 300.527 77.6983 298.739 78.3149 297.051C79.364 295.297 80.7043 293.744 81.8689 292.068C84.1639 291.847 86.4633 291.63 88.7628 291.422C91.9919 291.235 95.0492 290.08 98.1792 289.364Z" fill="#CDB593" stroke="#CDB593" stroke-width="0.0938"/>
</svg>
